<!-- <svg width="16" height="14" viewBox="0 0 16 14" fill="none" xmlns="http://www.w3.org/2000/svg">
<path d="M10.5804 8.07966C10.5804 9.50256 9.4229 10.6601 8 10.6601C6.5771 10.6601 5.42003 9.50256 5.42003 8.07966C5.42003 6.65676 6.5771 5.49925 8 5.49925C9.4229 5.49925 10.5804 6.6572 10.5804 8.07966ZM16 4.4156V11.7446C16 12.7217 15.2078 13.5138 14.2308 13.5138H1.76923C0.792171 13.5138 0 12.7217 0 11.7446V4.4156C0 3.43854 0.792171 2.64637 1.76923 2.64637H3.94538V2.03422C3.94538 1.17924 4.63803 0.486145 5.49345 0.486145H10.5066C11.362 0.486145 12.0546 1.17924 12.0546 2.03422V2.64593H14.2308C15.2078 2.64637 16 3.43854 16 4.4156ZM11.9073 8.07966C11.9073 5.92519 10.1545 4.17233 8 4.17233C5.84597 4.17233 4.09311 5.92519 4.09311 8.07966C4.09311 10.2341 5.84597 11.987 8 11.987C10.1545 11.987 11.9073 10.2341 11.9073 8.07966Z" fill="#BEA69E"/>
</svg> -->

<svg xmlns="http://www.w3.org/2000/svg" version="1.1" width="190px" height="179px" style="shape-rendering:geometricPrecision; text-rendering:geometricPrecision; image-rendering:optimizeQuality; fill-rule:evenodd; clip-rule:evenodd" xmlns:xlink="http://www.w3.org/1999/xlink">
<g><path style="opacity:1" fill="#def706" d="M 92.5,-0.5 C 124.833,-0.5 157.167,-0.5 189.5,-0.5C 189.5,0.833333 189.5,2.16667 189.5,3.5C 152.735,3.62555 116.068,3.29221 79.5,2.5C 84.2431,2.1234 88.5764,1.1234 92.5,-0.5 Z"/></g>
<g><path style="opacity:1" fill="#e0f60a" d="M -0.5,-0.5 C 23.1667,-0.5 46.8333,-0.5 70.5,-0.5C 72.8268,0.858716 75.1601,2.35872 77.5,4C 76.9535,4.92458 76.2868,5.75792 75.5,6.5C 74.2997,5.46881 72.9663,4.63547 71.5,4C 47.5023,3.50003 23.5023,3.33337 -0.5,3.5C -0.5,2.16667 -0.5,0.833333 -0.5,-0.5 Z"/></g>
<g><path style="opacity:1" fill="#b6fe1e" d="M 189.5,4.5 C 189.5,4.83333 189.5,5.16667 189.5,5.5C 162.498,5.33336 135.498,5.50003 108.5,6C 107.915,7.30238 107.249,8.46905 106.5,9.5C 106.286,7.85613 106.62,6.35613 107.5,5C 134.831,4.50002 162.165,4.33336 189.5,4.5 Z"/></g>
<g><path style="opacity:1" fill="#58d601" d="M 189.5,5.5 C 189.5,5.83333 189.5,6.16667 189.5,6.5C 163.498,6.33336 137.498,6.50003 111.5,7C 110.584,7.37424 109.75,7.87424 109,8.5C 108.261,11.5465 107.428,14.5465 106.5,17.5C 105.833,17.5 105.5,17.8333 105.5,18.5C 105.167,18.5 104.833,18.5 104.5,18.5C 104.448,16.0971 104.781,13.7638 105.5,11.5C 105.328,10.5084 105.662,9.84171 106.5,9.5C 107.249,8.46905 107.915,7.30238 108.5,6C 135.498,5.50003 162.498,5.33336 189.5,5.5 Z"/></g>
<g><path style="opacity:1" fill="#a9f619" d="M 69.5,6.5 C 69.5,6.16667 69.5,5.83333 69.5,5.5C 70.5,5.5 71.5,5.5 72.5,5.5C 73.0922,8.63053 72.0922,10.9639 69.5,12.5C 69.9195,10.9064 70.5862,9.40638 71.5,8C 71.1639,6.97008 70.4972,6.47008 69.5,6.5 Z"/></g>
<g><path style="opacity:1" fill="#2ae10e" d="M 189.5,6.5 C 189.5,61.1667 189.5,115.833 189.5,170.5C 162.167,170.5 134.833,170.5 107.5,170.5C 107.5,168.833 107.5,167.167 107.5,165.5C 108.167,164.5 108.833,163.5 109.5,162.5C 116.067,161.125 122.734,160.291 129.5,160C 132.758,157.428 136.425,155.594 140.5,154.5C 141.356,158.081 142.356,158.247 143.5,155C 143.011,153.862 142.678,152.695 142.5,151.5C 143.609,151.443 144.609,151.11 145.5,150.5C 147.544,149.969 149.211,148.802 150.5,147C 154.248,147.22 157.248,145.887 159.5,143C 158.483,141.951 158.316,140.784 159,139.5C 162.575,135.347 165.909,131.014 169,126.5C 169.49,125.207 169.657,123.873 169.5,122.5C 169.5,122.167 169.5,121.833 169.5,121.5C 171.888,120.781 173.388,119.115 174,116.5C 175.149,113.607 175.649,110.607 175.5,107.5C 175.5,106.833 175.5,106.167 175.5,105.5C 176.793,104.158 177.626,102.491 178,100.5C 180.27,81.5902 176.27,64.2569 166,48.5C 165.405,47.1011 165.572,45.7678 166.5,44.5C 164.678,44.5374 162.678,44.204 160.5,43.5C 158.368,40.7254 157.035,37.5588 156.5,34C 151.5,31 146.5,28 141.5,25C 139.26,24.023 136.927,23.523 134.5,23.5C 133.942,22.2101 132.942,21.3768 131.5,21C 123.524,17.891 115.19,16.7243 106.5,17.5C 107.428,14.5465 108.261,11.5465 109,8.5C 109.75,7.87424 110.584,7.37424 111.5,7C 137.498,6.50003 163.498,6.33336 189.5,6.5 Z"/></g>
<g><path style="opacity:1" fill="#2be10e" d="M -0.5,5.5 C 22.8333,5.5 46.1667,5.5 69.5,5.5C 69.5,5.83333 69.5,6.16667 69.5,6.5C 68.1562,9.37401 66.9895,12.374 66,15.5C 65.1667,16.3333 64.3333,17.1667 63.5,18C 58.296,20.2115 53.6294,23.2115 49.5,27C 48.552,27.4828 47.552,27.6495 46.5,27.5C 46.5,28.5 46.5,29.5 46.5,30.5C 43.9891,31.7599 41.6557,33.4266 39.5,35.5C 38.5713,36.6888 38.238,38.0222 38.5,39.5C 37.5,39.5 36.5,39.5 35.5,39.5C 33.6898,42.5243 32.5231,45.8577 32,49.5C 31,50.1667 30,50.8333 29,51.5C 26.795,59.3554 24.1283,67.022 21,74.5C 20.3333,83.5 20.3333,92.5 21,101.5C 22.3496,104.964 23.8496,108.297 25.5,111.5C 25.4138,115.318 26.0805,118.984 27.5,122.5C 27.6102,124.374 26.9436,125.874 25.5,127C 29.3638,125.814 31.8638,127.314 33,131.5C 34.451,133.464 36.2843,134.797 38.5,135.5C 38.8333,135.5 39.1667,135.5 39.5,135.5C 39.3567,139.765 41.3567,142.431 45.5,143.5C 45.8333,143.5 46.1667,143.5 46.5,143.5C 46.7512,145.17 47.4178,146.67 48.5,148C 50.8792,150.384 53.7125,151.884 57,152.5C 59.3035,154.744 58.9701,156.41 56,157.5C 55.3333,158.167 55.3333,158.833 56,159.5C 57.7467,158.67 59.4134,157.67 61,156.5C 68.9305,158.308 71.0971,162.808 67.5,170C 44.8358,170.5 22.1691,170.667 -0.5,170.5C -0.5,115.5 -0.5,60.5 -0.5,5.5 Z"/></g>
<g><path style="opacity:1" fill="#c0fa2c" d="M 105.5,11.5 C 104.781,13.7638 104.448,16.0971 104.5,18.5C 104.5,19.1667 104.5,19.8333 104.5,20.5C 102.326,23.5154 100.659,26.8487 99.5,30.5C 99.1249,32.6976 98.4582,34.6976 97.5,36.5C 97.6324,31.1145 98.9657,26.1145 101.5,21.5C 102.317,19.0314 102.817,16.3647 103,13.5C 103.708,12.6195 104.542,11.9528 105.5,11.5 Z"/></g>
<g><path style="opacity:1" fill="#48d311" d="M 105.5,18.5 C 105.5,17.8333 105.833,17.5 106.5,17.5C 115.19,16.7243 123.524,17.891 131.5,21C 132.942,21.3768 133.942,22.2101 134.5,23.5C 132.139,23.3259 129.806,22.9926 127.5,22.5C 127.158,21.6618 126.492,21.3284 125.5,21.5C 119.09,19.7188 112.424,18.7188 105.5,18.5 Z"/></g>
<g><path style="opacity:1" fill="#46d605" d="M 69.5,6.5 C 70.4972,6.47008 71.1639,6.97008 71.5,8C 70.5862,9.40638 69.9195,10.9064 69.5,12.5C 68.2616,14.2143 67.595,16.2143 67.5,18.5C 64.4553,19.2794 61.7886,20.6127 59.5,22.5C 51.6532,26.6724 44.9865,32.3391 39.5,39.5C 39.1667,39.5 38.8333,39.5 38.5,39.5C 38.238,38.0222 38.5713,36.6888 39.5,35.5C 41.6557,33.4266 43.9891,31.7599 46.5,30.5C 46.5,29.5 46.5,28.5 46.5,27.5C 47.552,27.6495 48.552,27.4828 49.5,27C 53.6294,23.2115 58.296,20.2115 63.5,18C 64.3333,17.1667 65.1667,16.3333 66,15.5C 66.9895,12.374 68.1562,9.37401 69.5,6.5 Z"/></g>
<g><path style="opacity:1" fill="#88eb10" d="M 67.5,18.5 C 66.0252,20.6899 64.0252,22.0233 61.5,22.5C 60.8333,22.5 60.1667,22.5 59.5,22.5C 61.7886,20.6127 64.4553,19.2794 67.5,18.5 Z"/></g>
<g><path style="opacity:1" fill="#bbf917" d="M 69.5,12.5 C 69.3215,15.2165 68.8215,17.8832 68,20.5C 66.2111,22.229 64.0444,22.8957 61.5,22.5C 64.0252,22.0233 66.0252,20.6899 67.5,18.5C 67.595,16.2143 68.2616,14.2143 69.5,12.5 Z"/></g>
<g><path style="opacity:1" fill="#4bc72c" d="M 78.5,13.5 C 78.1868,20.1121 76.1868,26.1121 72.5,31.5C 73.2967,27.7768 74.2967,24.1101 75.5,20.5C 75.5,19.8333 75.5,19.1667 75.5,18.5C 76.6873,16.9275 77.6873,15.2608 78.5,13.5 Z"/></g>
<g><path style="opacity:1" fill="#89fb43" d="M 104.5,18.5 C 104.833,18.5 105.167,18.5 105.5,18.5C 112.424,18.7188 119.09,19.7188 125.5,21.5C 123.833,21.5 122.167,21.5 120.5,21.5C 115.26,20.5509 109.927,20.2175 104.5,20.5C 104.5,19.8333 104.5,19.1667 104.5,18.5 Z"/></g>
<g><path style="opacity:1" fill="#56ca24" d="M 104.5,20.5 C 109.927,20.2175 115.26,20.5509 120.5,21.5C 120.204,23.403 119.537,25.0697 118.5,26.5C 118.5,24.8333 118.5,23.1667 118.5,21.5C 114.154,21.3343 109.821,21.501 105.5,22C 104.177,22.8159 103.511,23.9826 103.5,25.5C 103.443,26.609 103.11,27.609 102.5,28.5C 101.778,29.5511 100.778,30.2178 99.5,30.5C 100.659,26.8487 102.326,23.5154 104.5,20.5 Z"/></g>
<g><path style="opacity:1" fill="#b0fb2b" d="M 127.5,22.5 C 129.806,22.9926 132.139,23.3259 134.5,23.5C 134.833,24.1667 135.167,24.8333 135.5,25.5C 132.458,25.2671 129.792,24.2671 127.5,22.5 Z"/></g>
<g><path style="opacity:1" fill="#d3fb17" d="M 70.5,-0.5 C 77.8333,-0.5 85.1667,-0.5 92.5,-0.5C 88.5764,1.1234 84.2431,2.1234 79.5,2.5C 116.068,3.29221 152.735,3.62555 189.5,3.5C 189.5,3.83333 189.5,4.16667 189.5,4.5C 162.165,4.33336 134.831,4.50002 107.5,5C 106.62,6.35613 106.286,7.85613 106.5,9.5C 105.662,9.84171 105.328,10.5084 105.5,11.5C 104.542,11.9528 103.708,12.6195 103,13.5C 102.817,16.3647 102.317,19.0314 101.5,21.5C 101.5,19.5 101.5,17.5 101.5,15.5C 100.178,15.33 99.0113,15.6634 98,16.5C 97.7151,20.2363 96.2151,23.2363 93.5,25.5C 93.5,24.8333 93.5,24.1667 93.5,23.5C 94.3705,20.8877 95.0372,18.221 95.5,15.5C 97.9745,12.7491 98.9745,9.41578 98.5,5.5C 92.8333,5.5 87.1667,5.5 81.5,5.5C 80.5041,5.41423 79.6708,5.74756 79,6.5C 79.1072,9.59212 77.9406,11.9255 75.5,13.5C 75.5,15.1667 75.5,16.8333 75.5,18.5C 75.5,19.1667 75.5,19.8333 75.5,20.5C 73.9186,22.6737 72.4186,25.0071 71,27.5C 70.5045,29.4727 70.3379,31.4727 70.5,33.5C 70.5,34.1667 70.1667,34.5 69.5,34.5C 68.8333,34.8333 68.1667,35.1667 67.5,35.5C 67.5394,34.4168 67.8728,33.4168 68.5,32.5C 67.675,31.6143 66.675,31.281 65.5,31.5C 65.313,29.4357 64.813,27.4357 64,25.5C 62.9887,24.6634 61.8221,24.33 60.5,24.5C 60.8333,23.8333 61.1667,23.1667 61.5,22.5C 64.0444,22.8957 66.2111,22.229 68,20.5C 68.8215,17.8832 69.3215,15.2165 69.5,12.5C 72.0922,10.9639 73.0922,8.63053 72.5,5.5C 71.5,5.5 70.5,5.5 69.5,5.5C 46.1667,5.5 22.8333,5.5 -0.5,5.5C -0.5,4.83333 -0.5,4.16667 -0.5,3.5C 23.5023,3.33337 47.5023,3.50003 71.5,4C 72.9663,4.63547 74.2997,5.46881 75.5,6.5C 76.2868,5.75792 76.9535,4.92458 77.5,4C 75.1601,2.35872 72.8268,0.858716 70.5,-0.5 Z"/></g>
<g><path style="opacity:1" fill="#e0f606" d="M 75.5,13.5 C 74.2985,17.0995 72.9651,20.7662 71.5,24.5C 69.6676,26.9572 68.0009,26.9572 66.5,24.5C 67.4803,23.0186 68.647,21.6853 70,20.5C 70.5863,15.6018 72.4197,11.2685 75.5,7.5C 76.5192,9.4595 76.5192,11.4595 75.5,13.5 Z"/></g>
<g><path style="opacity:1" fill="#aff73a" d="M 81.5,5.5 C 81.1667,6.16667 80.8333,6.83333 80.5,7.5C 79.7148,9.37358 79.0482,11.3736 78.5,13.5C 77.6873,15.2608 76.6873,16.9275 75.5,18.5C 75.5,16.8333 75.5,15.1667 75.5,13.5C 77.9406,11.9255 79.1072,9.59212 79,6.5C 79.6708,5.74756 80.5041,5.41423 81.5,5.5 Z"/></g>
<g><path style="opacity:1" fill="#43c92f" d="M 96.5,10.5 C 96.3713,12.2161 96.038,13.8828 95.5,15.5C 95.0372,18.221 94.3705,20.8877 93.5,23.5C 92.8333,24.1667 92.1667,24.8333 91.5,25.5C 91.4433,23.1155 91.7766,20.7822 92.5,18.5C 93.6539,15.5826 94.9873,12.916 96.5,10.5 Z"/></g>
<g><path style="opacity:1" fill="#6bd82b" d="M 81.5,5.5 C 87.1667,5.5 92.8333,5.5 98.5,5.5C 98.9745,9.41578 97.9745,12.7491 95.5,15.5C 96.038,13.8828 96.3713,12.2161 96.5,10.5C 97.4345,9.43236 97.7678,8.09903 97.5,6.5C 91.773,6.25978 86.1064,6.59311 80.5,7.5C 80.8333,6.83333 81.1667,6.16667 81.5,5.5 Z"/></g>
<g><path style="opacity:1" fill="#adf438" d="M 75.5,20.5 C 74.2967,24.1101 73.2967,27.7768 72.5,31.5C 71.8333,32.1667 71.1667,32.8333 70.5,33.5C 70.3379,31.4727 70.5045,29.4727 71,27.5C 72.4186,25.0071 73.9186,22.6737 75.5,20.5 Z"/></g>
<g><path style="opacity:1" fill="#b2f738" d="M 120.5,21.5 C 122.167,21.5 123.833,21.5 125.5,21.5C 126.492,21.3284 127.158,21.6618 127.5,22.5C 125.5,22.5 123.5,22.5 121.5,22.5C 120.508,25.8229 119.508,29.1563 118.5,32.5C 117.022,36.285 115.855,40.285 115,44.5C 113.022,46.9719 111.522,49.6385 110.5,52.5C 110.483,48.3758 111.65,44.7091 114,41.5C 115.041,36.3325 116.541,31.3325 118.5,26.5C 119.537,25.0697 120.204,23.403 120.5,21.5 Z"/></g>
<g><path style="opacity:1" fill="#b7fb1e" d="M 59.5,22.5 C 60.1667,22.5 60.8333,22.5 61.5,22.5C 61.1667,23.1667 60.8333,23.8333 60.5,24.5C 57.8386,26.6577 54.8386,28.1577 51.5,29C 47.3011,34.028 42.9678,38.8613 38.5,43.5C 38.8333,42.1667 39.1667,40.8333 39.5,39.5C 44.9865,32.3391 51.6532,26.6724 59.5,22.5 Z"/></g>
<g><path style="opacity:1" fill="#48da0d" d="M 134.5,23.5 C 136.927,23.523 139.26,24.023 141.5,25C 146.5,28 151.5,31 156.5,34C 157.035,37.5588 158.368,40.7254 160.5,43.5C 156.318,38.154 151.318,33.654 145.5,30C 142.52,27.676 139.187,26.176 135.5,25.5C 135.167,24.8333 134.833,24.1667 134.5,23.5 Z"/></g>
<g><path style="opacity:1" fill="#c4fb2b" d="M 69.5,34.5 C 68.9839,39.1697 67.6506,43.503 65.5,47.5C 65.1901,43.3005 65.8568,39.3005 67.5,35.5C 68.1667,35.1667 68.8333,34.8333 69.5,34.5 Z"/></g>
<g><path style="opacity:1" fill="#97f118" d="M 38.5,39.5 C 38.8333,39.5 39.1667,39.5 39.5,39.5C 39.1667,40.8333 38.8333,42.1667 38.5,43.5C 37.5275,45.1392 36.1942,46.4726 34.5,47.5C 35.8201,44.8599 37.1534,42.1932 38.5,39.5 Z"/></g>
<g><path style="opacity:1" fill="#ddf70f" d="M 101.5,21.5 C 98.9657,26.1145 97.6324,31.1145 97.5,36.5C 94.9221,41.9991 92.5888,47.6658 90.5,53.5C 88.8333,53.5 87.1667,53.5 85.5,53.5C 84.5655,52.4324 84.2322,51.099 84.5,49.5C 84.5,49.1667 84.5,48.8333 84.5,48.5C 87.2926,44.0459 89.7926,39.3793 92,34.5C 92.3629,31.456 92.8629,28.456 93.5,25.5C 96.2151,23.2363 97.7151,20.2363 98,16.5C 99.0113,15.6634 100.178,15.33 101.5,15.5C 101.5,17.5 101.5,19.5 101.5,21.5 Z"/></g>
<g><path style="opacity:1" fill="#47c923" d="M 72.5,31.5 C 71.5011,38.1738 69.5011,44.5071 66.5,50.5C 66.0431,51.2975 65.3764,51.6309 64.5,51.5C 64.8333,50.1667 65.1667,48.8333 65.5,47.5C 67.6506,43.503 68.9839,39.1697 69.5,34.5C 70.1667,34.5 70.5,34.1667 70.5,33.5C 71.1667,32.8333 71.8333,32.1667 72.5,31.5 Z"/></g>
<g><path style="opacity:1" fill="#3dc82f" d="M 118.5,26.5 C 116.541,31.3325 115.041,36.3325 114,41.5C 111.65,44.7091 110.483,48.3758 110.5,52.5C 108.755,54.0326 107.755,56.0326 107.5,58.5C 106.833,60.5 106.167,62.5 105.5,64.5C 104.076,66.5145 103.41,68.8478 103.5,71.5C 101.984,75.2224 100.317,78.8891 98.5,82.5C 98.9625,77.8376 99.4625,73.1709 100,68.5C 101.574,67.0158 102.907,65.3492 104,63.5C 106.134,55.125 109.134,47.125 113,39.5C 114.403,33.7926 115.903,28.1259 117.5,22.5C 113.818,22.3347 110.152,22.5014 106.5,23C 105.627,24.045 104.627,24.8783 103.5,25.5C 103.511,23.9826 104.177,22.8159 105.5,22C 109.821,21.501 114.154,21.3343 118.5,21.5C 118.5,23.1667 118.5,24.8333 118.5,26.5 Z"/></g>
<g><path style="opacity:1" fill="#abfb34" d="M 63.5,47.5 C 64.1667,47.5 64.8333,47.5 65.5,47.5C 65.1667,48.8333 64.8333,50.1667 64.5,51.5C 64.5,52.1667 64.1667,52.5 63.5,52.5C 63.5,50.8333 63.5,49.1667 63.5,47.5 Z"/></g>
<g><path style="opacity:1" fill="#ccfb26" d="M 63.5,47.5 C 63.5,49.1667 63.5,50.8333 63.5,52.5C 63.3713,54.2161 63.038,55.8828 62.5,57.5C 60.7202,58.9899 60.0535,60.9899 60.5,63.5C 60.1667,63.5 59.8333,63.5 59.5,63.5C 59.1667,63.5 58.8333,63.5 58.5,63.5C 59.0696,57.7265 60.7362,52.3932 63.5,47.5 Z"/></g>
<g><path style="opacity:1" fill="#bdfb1f" d="M 135.5,25.5 C 139.187,26.176 142.52,27.676 145.5,30C 151.318,33.654 156.318,38.154 160.5,43.5C 163.823,49.2553 167.323,54.9219 171,60.5C 171.813,62.4357 172.313,64.4357 172.5,66.5C 172.528,69.9164 173.528,72.9164 175.5,75.5C 175.5,75.8333 175.5,76.1667 175.5,76.5C 175.5,77.5 175.5,78.5 175.5,79.5C 172.628,75.0343 171.128,70.0343 171,64.5C 167.555,59.9448 164.888,54.9448 163,49.5C 158.081,43.4496 152.581,37.9496 146.5,33C 144.381,30.6073 141.715,29.2739 138.5,29C 137.635,27.6412 136.635,26.4745 135.5,25.5 Z"/></g>
<g><path style="opacity:1" fill="#93eb36" d="M 110.5,52.5 C 110.5,53.1667 110.5,53.8333 110.5,54.5C 109.857,56.0764 108.857,57.4097 107.5,58.5C 107.755,56.0326 108.755,54.0326 110.5,52.5 Z"/></g>
<g><path style="opacity:1" fill="#b1fa34" d="M 135.5,54.5 C 136.11,55.391 136.443,56.391 136.5,57.5C 135.609,56.8902 134.609,56.5569 133.5,56.5C 129.354,55.353 125.02,55.1864 120.5,56C 118.623,58.126 117.623,60.626 117.5,63.5C 115.578,65.7925 114.245,68.4592 113.5,71.5C 112.633,64.9336 114.633,59.4336 119.5,55C 124.823,54.5006 130.156,54.334 135.5,54.5 Z"/></g>
<g><path style="opacity:1" fill="#4cc924" d="M 133.5,56.5 C 129.486,56.3345 125.486,56.5012 121.5,57C 120.357,59.4254 119.024,61.5921 117.5,63.5C 117.623,60.626 118.623,58.126 120.5,56C 125.02,55.1864 129.354,55.353 133.5,56.5 Z"/></g>
<g><path style="opacity:1" fill="#64ce25" d="M 153.5,56.5 C 153.5,56.8333 153.5,57.1667 153.5,57.5C 149.662,57.0216 146.329,58.0216 143.5,60.5C 143.539,59.4168 143.873,58.4168 144.5,57.5C 147.428,56.5159 150.428,56.1826 153.5,56.5 Z"/></g>
<g><path style="opacity:1" fill="#bdfb1d" d="M 31.5,53.5 C 31.5124,57.4503 30.1791,60.7836 27.5,63.5C 27.3433,62.1266 27.51,60.7932 28,59.5C 28.7388,57.1112 29.9054,55.1112 31.5,53.5 Z"/></g>
<g><path style="opacity:1" fill="#a8f42b" d="M 153.5,57.5 C 153.5,57.1667 153.5,56.8333 153.5,56.5C 154.833,56.5 156.167,56.5 157.5,56.5C 158.6,57.6049 159.267,58.9382 159.5,60.5C 157.947,58.615 155.947,57.615 153.5,57.5 Z"/></g>
<g><path style="opacity:1" fill="#d0f922" d="M 153.5,56.5 C 150.428,56.1826 147.428,56.5159 144.5,57.5C 143.873,58.4168 143.539,59.4168 143.5,60.5C 143.5,61.1667 143.5,61.8333 143.5,62.5C 142.5,64.5 141.5,66.5 140.5,68.5C 140.664,65.8127 140.497,63.146 140,60.5C 139.764,62.1193 138.931,63.1193 137.5,63.5C 137.795,61.2646 137.461,59.2646 136.5,57.5C 136.443,56.391 136.11,55.391 135.5,54.5C 137.997,54.7268 139.664,56.0602 140.5,58.5C 141.386,57.675 141.719,56.675 141.5,55.5C 144.14,55.4467 146.64,54.78 149,53.5C 150.942,53.9586 152.442,54.9586 153.5,56.5 Z"/></g>
<g><path style="opacity:1" fill="#7fe72c" d="M 62.5,57.5 C 61.8505,59.4352 61.5172,61.4352 61.5,63.5C 61.1667,63.5 60.8333,63.5 60.5,63.5C 60.0535,60.9899 60.7202,58.9899 62.5,57.5 Z"/></g>
<g><path style="opacity:1" fill="#cffb23" d="M 157.5,56.5 C 158.833,56.5 160.167,56.5 161.5,56.5C 163.229,60.6698 163.729,65.0031 163,69.5C 161.22,73.7426 159.386,77.7426 157.5,81.5C 157.5,80.8333 157.5,80.1667 157.5,79.5C 157.833,78.1667 158.167,76.8333 158.5,75.5C 158.5,74.8333 158.5,74.1667 158.5,73.5C 159.167,73.5 159.5,73.1667 159.5,72.5C 161.379,69.1439 161.879,65.4773 161,61.5C 160.617,60.944 160.117,60.6107 159.5,60.5C 159.267,58.9382 158.6,57.6049 157.5,56.5 Z"/></g>
<g><path style="opacity:1" fill="#4acb2a" d="M 133.5,56.5 C 134.609,56.5569 135.609,56.8902 136.5,57.5C 136.154,62.216 135.487,66.8827 134.5,71.5C 133.222,71.7822 132.222,72.4489 131.5,73.5C 131.264,70.7743 132.097,68.441 134,66.5C 134.747,63.0764 134.58,59.7431 133.5,56.5 Z"/></g>
<g><path style="opacity:1" fill="#d1f823" d="M 110.5,54.5 C 110.604,57.0895 109.937,59.4229 108.5,61.5C 109.649,65.54 108.316,68.54 104.5,70.5C 105.15,68.5648 105.483,66.5648 105.5,64.5C 106.167,62.5 106.833,60.5 107.5,58.5C 108.857,57.4097 109.857,56.0764 110.5,54.5 Z"/></g>
<g><path style="opacity:1" fill="#45c723" d="M 153.5,57.5 C 155.947,57.615 157.947,58.615 159.5,60.5C 160.62,64.4718 160.62,68.4718 159.5,72.5C 159.5,73.1667 159.167,73.5 158.5,73.5C 158.666,69.4862 158.499,65.4862 158,61.5C 156.333,60.2668 154.833,58.9335 153.5,57.5 Z"/></g>
<g><path style="opacity:1" fill="#adf63c" d="M 105.5,64.5 C 105.483,66.5648 105.15,68.5648 104.5,70.5C 104.5,71.1667 104.167,71.5 103.5,71.5C 103.41,68.8478 104.076,66.5145 105.5,64.5 Z"/></g>
<g><path style="opacity:1" fill="#a9f62d" d="M 159.5,60.5 C 160.117,60.6107 160.617,60.944 161,61.5C 161.879,65.4773 161.379,69.1439 159.5,72.5C 160.62,68.4718 160.62,64.4718 159.5,60.5 Z"/></g>
<g><path style="opacity:1" fill="#4cd706" d="M 160.5,43.5 C 162.678,44.204 164.678,44.5374 166.5,44.5C 165.572,45.7678 165.405,47.1011 166,48.5C 176.27,64.2569 180.27,81.5902 178,100.5C 177.626,102.491 176.793,104.158 175.5,105.5C 176.254,100.537 176.587,95.5365 176.5,90.5C 177.161,88.866 177.494,87.0326 177.5,85C 177.64,81.8502 176.973,79.0169 175.5,76.5C 175.5,76.1667 175.5,75.8333 175.5,75.5C 175.472,72.0836 174.472,69.0836 172.5,66.5C 172.313,64.4357 171.813,62.4357 171,60.5C 167.323,54.9219 163.823,49.2553 160.5,43.5 Z"/></g>
<g><path style="opacity:1" fill="#39c62e" d="M 59.5,63.5 C 59.8333,63.5 60.1667,63.5 60.5,63.5C 60.8333,63.5 61.1667,63.5 61.5,63.5C 61.5848,66.6489 60.5848,69.3155 58.5,71.5C 58.8333,68.8333 59.1667,66.1667 59.5,63.5 Z"/></g>
<g><path style="opacity:1" fill="#dbf813" d="M 118.5,32.5 C 118.251,35.0021 117.917,37.5021 117.5,40C 117.827,41.8133 118.493,43.48 119.5,45C 117.609,47.8991 117.109,51.0658 118,54.5C 123.932,53.1747 129.766,53.1747 135.5,54.5C 130.156,54.334 124.823,54.5006 119.5,55C 114.633,59.4336 112.633,64.9336 113.5,71.5C 110.828,73.3914 109.828,76.0581 110.5,79.5C 108.345,81.6174 107.345,84.284 107.5,87.5C 105.926,89.1016 105.259,91.1016 105.5,93.5C 105.5,94.1667 105.5,94.8333 105.5,95.5C 105.167,95.5 104.833,95.5 104.5,95.5C 102.603,97.6975 101.603,100.364 101.5,103.5C 99.1103,106.689 97.7769,110.356 97.5,114.5C 96.5,114.5 95.5,114.5 94.5,114.5C 94.7244,119.059 94.0577,123.392 92.5,127.5C 92.1667,127.5 91.8333,127.5 91.5,127.5C 91.6655,123.486 91.4988,119.486 91,115.5C 89.5833,118.225 89.0833,120.892 89.5,123.5C 88.6919,123.192 88.0253,122.692 87.5,122C 80.4764,121.831 73.4764,121.331 66.5,120.5C 63.7434,118.116 64.0767,116.449 67.5,115.5C 67.2322,117.099 67.5655,118.432 68.5,119.5C 74.1667,119.5 79.8333,119.5 85.5,119.5C 87.4509,118.284 88.9509,116.618 90,114.5C 92.0208,110.346 93.1875,106.013 93.5,101.5C 93.5,100.833 93.5,100.167 93.5,99.5C 95.2798,98.0101 95.9465,96.0101 95.5,93.5C 95.5,93.1667 95.5,92.8333 95.5,92.5C 97.053,89.7601 98.8863,87.0934 101,84.5C 102.157,80.2177 102.99,75.8843 103.5,71.5C 104.167,71.5 104.5,71.1667 104.5,70.5C 108.316,68.54 109.649,65.54 108.5,61.5C 109.937,59.4229 110.604,57.0895 110.5,54.5C 110.5,53.8333 110.5,53.1667 110.5,52.5C 111.522,49.6385 113.022,46.9719 115,44.5C 115.855,40.285 117.022,36.285 118.5,32.5 Z"/></g>
<g><path style="opacity:1" fill="#dff70a" d="M 127.5,22.5 C 129.792,24.2671 132.458,25.2671 135.5,25.5C 136.635,26.4745 137.635,27.6412 138.5,29C 141.715,29.2739 144.381,30.6073 146.5,33C 152.581,37.9496 158.081,43.4496 163,49.5C 164.888,54.9448 167.555,59.9448 171,64.5C 171.128,70.0343 172.628,75.0343 175.5,79.5C 176.423,83.0641 176.756,86.7307 176.5,90.5C 175.11,97.7996 173.61,105.133 172,112.5C 171,113.5 170,114.5 169,115.5C 167.13,119.896 165.297,124.229 163.5,128.5C 162.559,130.772 161.226,132.772 159.5,134.5C 155.446,136.223 152.779,139.223 151.5,143.5C 148.267,144.609 144.934,145.442 141.5,146C 140.809,147.067 140.309,148.234 140,149.5C 138.348,150.399 136.848,151.399 135.5,152.5C 134.5,152.5 133.5,152.5 132.5,152.5C 133.461,149.574 134.127,146.574 134.5,143.5C 136.579,140.889 137.912,137.889 138.5,134.5C 141.111,129.322 143.611,123.989 146,118.5C 147.036,115.247 147.703,111.914 148,108.5C 149.333,107.833 150.333,106.833 151,105.5C 152.143,102.223 152.977,98.8898 153.5,95.5C 154.11,94.609 154.443,93.609 154.5,92.5C 155.458,92.0472 156.292,91.3805 157,90.5C 157.497,88.1902 157.663,85.8568 157.5,83.5C 157.5,82.8333 157.5,82.1667 157.5,81.5C 159.386,77.7426 161.22,73.7426 163,69.5C 163.729,65.0031 163.229,60.6698 161.5,56.5C 160.167,56.5 158.833,56.5 157.5,56.5C 156.167,56.5 154.833,56.5 153.5,56.5C 152.442,54.9586 150.942,53.9586 149,53.5C 146.64,54.78 144.14,55.4467 141.5,55.5C 141.719,56.675 141.386,57.675 140.5,58.5C 139.664,56.0602 137.997,54.7268 135.5,54.5C 129.766,53.1747 123.932,53.1747 118,54.5C 117.109,51.0658 117.609,47.8991 119.5,45C 118.493,43.48 117.827,41.8133 117.5,40C 117.917,37.5021 118.251,35.0021 118.5,32.5C 119.508,29.1563 120.508,25.8229 121.5,22.5C 123.5,22.5 125.5,22.5 127.5,22.5 Z"/></g>
<g><path style="opacity:1" fill="#a4f921" d="M 172.5,66.5 C 174.472,69.0836 175.472,72.0836 175.5,75.5C 173.528,72.9164 172.528,69.9164 172.5,66.5 Z"/></g>
<g><path style="opacity:1" fill="#c4fd21" d="M 27.5,63.5 C 27.7372,67.4102 26.9039,71.0769 25,74.5C 24.5003,81.8258 24.3337,89.1591 24.5,96.5C 23.5088,89.6866 23.1755,82.6866 23.5,75.5C 23.4665,70.9424 24.7998,66.9424 27.5,63.5 Z"/></g>
<g><path style="opacity:1" fill="#43c82b" d="M 117.5,63.5 C 117.5,64.8333 117.5,66.1667 117.5,67.5C 116.542,69.3024 115.875,71.3024 115.5,73.5C 114.407,75.3492 113.074,77.0158 111.5,78.5C 112.167,76.1667 112.833,73.8333 113.5,71.5C 114.245,68.4592 115.578,65.7925 117.5,63.5 Z"/></g>
<g><path style="opacity:1" fill="#7be231" d="M 58.5,63.5 C 58.8333,63.5 59.1667,63.5 59.5,63.5C 59.1667,66.1667 58.8333,68.8333 58.5,71.5C 57.9348,73.42 56.9348,75.0867 55.5,76.5C 55.5,75.8333 55.5,75.1667 55.5,74.5C 56.7033,70.8899 57.7033,67.2232 58.5,63.5 Z"/></g>
<g><path style="opacity:1" fill="#b7fc31" d="M 113.5,71.5 C 112.833,73.8333 112.167,76.1667 111.5,78.5C 111.5,79.1667 111.167,79.5 110.5,79.5C 109.828,76.0581 110.828,73.3914 113.5,71.5 Z"/></g>
<g><path style="opacity:1" fill="#1cd046" d="M 96.5,10.5 C 94.9873,12.916 93.6539,15.5826 92.5,18.5C 91.7766,20.7822 91.4433,23.1155 91.5,25.5C 91.5,25.8333 91.5,26.1667 91.5,26.5C 88.1623,30.8132 86.4956,35.8132 86.5,41.5C 84.1749,42.6546 83.0082,44.6546 83,47.5C 82.8333,48.8333 82.6667,50.1667 82.5,51.5C 82.5854,53.3328 83.2521,54.6661 84.5,55.5C 86.9664,56.6341 89.633,56.8007 92.5,56C 93.3802,54.6439 93.7135,53.1439 93.5,51.5C 94.4959,51.5858 95.3292,51.2524 96,50.5C 97.8581,43.0662 100.025,35.7329 102.5,28.5C 103.11,27.609 103.443,26.609 103.5,25.5C 104.627,24.8783 105.627,24.045 106.5,23C 110.152,22.5014 113.818,22.3347 117.5,22.5C 115.903,28.1259 114.403,33.7926 113,39.5C 109.134,47.125 106.134,55.125 104,63.5C 102.907,65.3492 101.574,67.0158 100,68.5C 99.4625,73.1709 98.9625,77.8376 98.5,82.5C 97.871,85.3973 96.871,88.064 95.5,90.5C 94.2101,91.0577 93.3768,92.0577 93,93.5C 92.6371,96.544 92.1371,99.544 91.5,102.5C 91.5,102.833 91.5,103.167 91.5,103.5C 89.5669,104.642 88.0669,106.308 87,108.5C 87.2875,114.987 84.2875,117.987 78,117.5C 75.3897,117.467 73.223,116.8 71.5,115.5C 72.1667,111.5 72.8333,107.5 73.5,103.5C 76.3237,98.4085 78.6571,93.0752 80.5,87.5C 83.758,82.0444 85.4247,76.0444 85.5,69.5C 85.5,68.5 85.5,67.5 85.5,66.5C 76.6758,65.4032 72.6758,69.4032 73.5,78.5C 73.5,78.8333 73.5,79.1667 73.5,79.5C 73.1667,79.5 72.8333,79.5 72.5,79.5C 71.2058,80.2899 70.0391,81.2899 69,82.5C 66.5257,90.0883 64.359,97.755 62.5,105.5C 61.5028,105.47 60.8361,105.97 60.5,107C 59.0444,110.4 58.0444,113.9 57.5,117.5C 53.1667,117.5 48.8333,117.5 44.5,117.5C 45.0508,114.193 45.3841,110.86 45.5,107.5C 46.5,107.5 47.5,107.5 48.5,107.5C 48.5045,103.466 48.8379,99.4659 49.5,95.5C 52.2655,93.1999 54.0989,90.1999 55,86.5C 55.498,83.5184 55.6646,80.5184 55.5,77.5C 55.5,77.1667 55.5,76.8333 55.5,76.5C 56.9348,75.0867 57.9348,73.42 58.5,71.5C 60.5848,69.3155 61.5848,66.6489 61.5,63.5C 61.5172,61.4352 61.8505,59.4352 62.5,57.5C 63.038,55.8828 63.3713,54.2161 63.5,52.5C 64.1667,52.5 64.5,52.1667 64.5,51.5C 65.3764,51.6309 66.0431,51.2975 66.5,50.5C 69.5011,44.5071 71.5011,38.1738 72.5,31.5C 76.1868,26.1121 78.1868,20.1121 78.5,13.5C 79.0482,11.3736 79.7148,9.37358 80.5,7.5C 86.1064,6.59311 91.773,6.25978 97.5,6.5C 97.7678,8.09903 97.4345,9.43236 96.5,10.5 Z"/></g>
<g><path style="opacity:1" fill="#dff50a" d="M 79.5,69.5 C 80.5862,69.62 81.2528,70.2867 81.5,71.5C 80.1118,74.2605 78.6118,76.9272 77,79.5C 76.8253,76.8428 76.9919,74.1761 77.5,71.5C 77.8333,70.5 78.5,69.8333 79.5,69.5 Z"/></g>
<g><path style="opacity:1" fill="#a8f93f" d="M 84.5,69.5 C 84.0246,73.0839 83.0246,76.4172 81.5,79.5C 81.9422,75.8455 82.2756,72.1788 82.5,68.5C 81.209,68.2627 80.209,68.596 79.5,69.5C 78.5,69.8333 77.8333,70.5 77.5,71.5C 77.1667,71.5 76.8333,71.5 76.5,71.5C 76.9564,68.7144 78.6231,67.381 81.5,67.5C 83.0296,67.6399 84.0296,68.3065 84.5,69.5 Z"/></g>
<g><path style="opacity:1" fill="#61d836" d="M 85.5,69.5 C 85.1667,69.5 84.8333,69.5 84.5,69.5C 84.0296,68.3065 83.0296,67.6399 81.5,67.5C 78.6231,67.381 76.9564,68.7144 76.5,71.5C 75.6515,73.8876 74.6515,76.2209 73.5,78.5C 72.6758,69.4032 76.6758,65.4032 85.5,66.5C 85.5,67.5 85.5,68.5 85.5,69.5 Z"/></g>
<g><path style="opacity:1" fill="#4ccc20" d="M 93.5,51.5 C 93.7135,53.1439 93.3802,54.6439 92.5,56C 89.633,56.8007 86.9664,56.6341 84.5,55.5C 87.0593,55.8016 89.3926,55.4682 91.5,54.5C 91.427,52.9731 92.0937,51.9731 93.5,51.5 Z"/></g>
<g><path style="opacity:1" fill="#a9fd3c" d="M 84.5,49.5 C 84.2322,51.099 84.5655,52.4324 85.5,53.5C 87.2646,54.4614 89.2646,54.7947 91.5,54.5C 89.3926,55.4682 87.0593,55.8016 84.5,55.5C 83.2584,53.3888 83.2584,51.3888 84.5,49.5 Z"/></g>
<g><path style="opacity:1" fill="#bffa29" d="M 97.5,36.5 C 96.4166,41.5915 95.0833,46.5915 93.5,51.5C 92.0937,51.9731 91.427,52.9731 91.5,54.5C 89.2646,54.7947 87.2646,54.4614 85.5,53.5C 87.1667,53.5 88.8333,53.5 90.5,53.5C 92.5888,47.6658 94.9221,41.9991 97.5,36.5 Z"/></g>
<g><path style="opacity:1" fill="#57d22f" d="M 86.5,41.5 C 85.8333,43.8333 85.1667,46.1667 84.5,48.5C 84.5,48.8333 84.5,49.1667 84.5,49.5C 83.2584,51.3888 83.2584,53.3888 84.5,55.5C 83.2521,54.6661 82.5854,53.3328 82.5,51.5C 82.6667,50.1667 82.8333,48.8333 83,47.5C 83.0082,44.6546 84.1749,42.6546 86.5,41.5 Z"/></g>
<g><path style="opacity:1" fill="#3ec52c" d="M 102.5,28.5 C 100.025,35.7329 97.8581,43.0662 96,50.5C 95.3292,51.2524 94.4959,51.5858 93.5,51.5C 95.0833,46.5915 96.4166,41.5915 97.5,36.5C 98.4582,34.6976 99.1249,32.6976 99.5,30.5C 100.778,30.2178 101.778,29.5511 102.5,28.5 Z"/></g>
<g><path style="opacity:1" fill="#b4f92f" d="M 93.5,23.5 C 93.5,24.1667 93.5,24.8333 93.5,25.5C 92.8629,28.456 92.3629,31.456 92,34.5C 89.7926,39.3793 87.2926,44.0459 84.5,48.5C 85.1667,46.1667 85.8333,43.8333 86.5,41.5C 87.6206,39.0458 88.454,36.3791 89,33.5C 91.1366,31.6789 91.9699,29.3456 91.5,26.5C 91.5,26.1667 91.5,25.8333 91.5,25.5C 92.1667,24.8333 92.8333,24.1667 93.5,23.5 Z"/></g>
<g><path style="opacity:1" fill="#4bc922" d="M 91.5,26.5 C 91.9699,29.3456 91.1366,31.6789 89,33.5C 88.454,36.3791 87.6206,39.0458 86.5,41.5C 86.4956,35.8132 88.1623,30.8132 91.5,26.5 Z"/></g>
<g><path style="opacity:1" fill="#d4fa20" d="M 79.5,69.5 C 80.209,68.596 81.209,68.2627 82.5,68.5C 82.2756,72.1788 81.9422,75.8455 81.5,79.5C 80.6554,80.6715 79.9887,82.0048 79.5,83.5C 78.8571,85.0764 77.8571,86.4097 76.5,87.5C 77.038,85.8828 77.3713,84.2161 77.5,82.5C 76.5,82.5 75.5,82.5 74.5,82.5C 74.5979,84.5529 73.9313,86.2196 72.5,87.5C 72.8333,84.8333 73.1667,82.1667 73.5,79.5C 73.5,79.1667 73.5,78.8333 73.5,78.5C 74.6515,76.2209 75.6515,73.8876 76.5,71.5C 76.8333,71.5 77.1667,71.5 77.5,71.5C 76.9919,74.1761 76.8253,76.8428 77,79.5C 78.6118,76.9272 80.1118,74.2605 81.5,71.5C 81.2528,70.2867 80.5862,69.62 79.5,69.5 Z"/></g>
<g><path style="opacity:1" fill="#4fcf2a" d="M 158.5,75.5 C 158.167,76.8333 157.833,78.1667 157.5,79.5C 156.076,81.5145 155.41,83.8478 155.5,86.5C 154.766,87.7079 154.433,89.0413 154.5,90.5C 154.167,90.5 153.833,90.5 153.5,90.5C 153.5,89.5 153.5,88.5 153.5,87.5C 153.241,82.5896 154.907,78.5896 158.5,75.5 Z"/></g>
<g><path style="opacity:1" fill="#52d706" d="M 38.5,39.5 C 37.1534,42.1932 35.8201,44.8599 34.5,47.5C 33.5082,49.4561 32.5082,51.4561 31.5,53.5C 29.9054,55.1112 28.7388,57.1112 28,59.5C 27.51,60.7932 27.3433,62.1266 27.5,63.5C 24.7998,66.9424 23.4665,70.9424 23.5,75.5C 22.3443,82.9887 22.1777,90.6554 23,98.5C 23.2794,101.457 24.1127,104.123 25.5,106.5C 25.5,108.167 25.5,109.833 25.5,111.5C 23.8496,108.297 22.3496,104.964 21,101.5C 20.3333,92.5 20.3333,83.5 21,74.5C 24.1283,67.022 26.795,59.3554 29,51.5C 30,50.8333 31,50.1667 32,49.5C 32.5231,45.8577 33.6898,42.5243 35.5,39.5C 36.5,39.5 37.5,39.5 38.5,39.5 Z"/></g>
<g><path style="opacity:1" fill="#3ac42a" d="M 84.5,69.5 C 84.8333,69.5 85.1667,69.5 85.5,69.5C 85.4247,76.0444 83.758,82.0444 80.5,87.5C 80.8333,84.8333 81.1667,82.1667 81.5,79.5C 83.0246,76.4172 84.0246,73.0839 84.5,69.5 Z"/></g>
<g><path style="opacity:1" fill="#a1f32f" d="M 157.5,79.5 C 157.5,80.1667 157.5,80.8333 157.5,81.5C 157.5,82.1667 157.5,82.8333 157.5,83.5C 156.833,84.5 156.167,85.5 155.5,86.5C 155.41,83.8478 156.076,81.5145 157.5,79.5 Z"/></g>
<g><path style="opacity:1" fill="#94f122" d="M 175.5,76.5 C 176.973,79.0169 177.64,81.8502 177.5,85C 177.494,87.0326 177.161,88.866 176.5,90.5C 176.756,86.7307 176.423,83.0641 175.5,79.5C 175.5,78.5 175.5,77.5 175.5,76.5 Z"/></g>
<g><path style="opacity:1" fill="#b2fe29" d="M 23.5,75.5 C 23.1755,82.6866 23.5088,89.6866 24.5,96.5C 24.448,98.9029 24.7814,101.236 25.5,103.5C 25.5,104.5 25.5,105.5 25.5,106.5C 24.1127,104.123 23.2794,101.457 23,98.5C 22.1777,90.6554 22.3443,82.9887 23.5,75.5 Z"/></g>
<g><path style="opacity:1" fill="#b8f931" d="M 103.5,71.5 C 102.99,75.8843 102.157,80.2177 101,84.5C 98.8863,87.0934 97.053,89.7601 95.5,92.5C 95.5,91.8333 95.5,91.1667 95.5,90.5C 96.871,88.064 97.871,85.3973 98.5,82.5C 100.317,78.8891 101.984,75.2224 103.5,71.5 Z"/></g>
<g><path style="opacity:1" fill="#9ff43b" d="M 110.5,79.5 C 109.871,82.3973 108.871,85.064 107.5,87.5C 107.345,84.284 108.345,81.6174 110.5,79.5 Z"/></g>
<g><path style="opacity:1" fill="#35ca2c" d="M 55.5,77.5 C 55.6646,80.5184 55.498,83.5184 55,86.5C 54.0989,90.1999 52.2655,93.1999 49.5,95.5C 49.8782,93.079 50.5448,90.7457 51.5,88.5C 53.4725,85.9164 54.4725,82.9164 54.5,79.5C 54.3284,78.5084 54.6618,77.8417 55.5,77.5 Z"/></g>
<g><path style="opacity:1" fill="#cbfd22" d="M 157.5,83.5 C 157.663,85.8568 157.497,88.1902 157,90.5C 156.292,91.3805 155.458,92.0472 154.5,92.5C 154.5,91.8333 154.5,91.1667 154.5,90.5C 154.433,89.0413 154.766,87.7079 155.5,86.5C 156.167,85.5 156.833,84.5 157.5,83.5 Z"/></g>
<g><path style="opacity:1" fill="#70dd2a" d="M 54.5,79.5 C 54.4725,82.9164 53.4725,85.9164 51.5,88.5C 51.5,87.8333 51.5,87.1667 51.5,86.5C 52.2638,83.9823 53.2638,81.649 54.5,79.5 Z"/></g>
<g><path style="opacity:1" fill="#1cd045" d="M 133.5,56.5 C 134.58,59.7431 134.747,63.0764 134,66.5C 132.097,68.441 131.264,70.7743 131.5,73.5C 130.21,74.0577 129.377,75.0577 129,76.5C 127.112,82.907 125.279,89.2403 123.5,95.5C 123.5,96.1667 123.5,96.8333 123.5,97.5C 122.262,99.2143 121.595,101.214 121.5,103.5C 121.5,104.167 121.5,104.833 121.5,105.5C 120.053,106.134 119.387,107.301 119.5,109C 119.684,110.376 120.351,111.209 121.5,111.5C 122.5,111.5 123.5,111.5 124.5,111.5C 125.778,111.218 126.778,110.551 127.5,109.5C 131.347,103.491 133.68,96.8247 134.5,89.5C 139.613,81.3539 142.613,72.3539 143.5,62.5C 143.5,61.8333 143.5,61.1667 143.5,60.5C 146.329,58.0216 149.662,57.0216 153.5,57.5C 154.833,58.9335 156.333,60.2668 158,61.5C 158.499,65.4862 158.666,69.4862 158.5,73.5C 158.5,74.1667 158.5,74.8333 158.5,75.5C 154.907,78.5896 153.241,82.5896 153.5,87.5C 152.264,89.6107 150.764,91.6107 149,93.5C 147.314,99.4196 145.814,105.42 144.5,111.5C 143.167,111.5 142.5,112.167 142.5,113.5C 140.958,114.301 139.292,114.634 137.5,114.5C 137.725,110.944 136.892,110.61 135,113.5C 134.055,113.095 133.388,112.428 133,111.5C 132.259,112.641 131.425,112.641 130.5,111.5C 129.729,113.862 128.895,116.196 128,118.5C 126.108,117.383 125.275,115.716 125.5,113.5C 121.543,113.008 117.877,113.675 114.5,115.5C 113.833,113.833 113.167,112.167 112.5,110.5C 111.372,115.885 110.038,121.218 108.5,126.5C 106.668,127.248 105.001,128.248 103.5,129.5C 104.397,129.669 105.397,130.002 106.5,130.5C 107.962,134.401 107.462,138.068 105,141.5C 104.667,141.167 104.333,140.833 104,140.5C 103.26,141.749 103.427,142.749 104.5,143.5C 103.518,146.763 102.851,150.097 102.5,153.5C 99.5383,158.606 97.2049,164.106 95.5,170C 90.5111,170.499 85.5111,170.666 80.5,170.5C 81.3483,166.108 82.3483,161.775 83.5,157.5C 83.5,157.167 83.5,156.833 83.5,156.5C 85.4098,153.548 86.4098,150.214 86.5,146.5C 87.1667,145.5 87.8333,144.5 88.5,143.5C 89.4972,143.53 90.1639,143.03 90.5,142C 93.5402,133.159 96.7068,124.326 100,115.5C 100.822,112.883 101.322,110.216 101.5,107.5C 104.048,104.004 105.381,100.004 105.5,95.5C 105.5,94.8333 105.5,94.1667 105.5,93.5C 107.074,91.8984 107.741,89.8984 107.5,87.5C 108.871,85.064 109.871,82.3973 110.5,79.5C 111.167,79.5 111.5,79.1667 111.5,78.5C 113.074,77.0158 114.407,75.3492 115.5,73.5C 115.5,74.5 115.5,75.5 115.5,76.5C 116.5,76.5 117.5,76.5 118.5,76.5C 118.671,79.7973 118.005,80.1306 116.5,77.5C 116.242,79.5759 115.742,81.9093 115,84.5C 113.956,83.3774 113.29,82.0441 113,80.5C 111.455,82.2088 110.622,84.2088 110.5,86.5C 110.993,91.0708 112.993,91.7374 116.5,88.5C 118.154,93.7298 117.488,98.5631 114.5,103C 116.589,106.309 118.422,106.143 120,102.5C 120.938,99.1883 121.771,95.855 122.5,92.5C 121.649,88.8899 120.649,85.2232 119.5,81.5C 119.709,80.914 120.043,80.414 120.5,80C 122.473,79.5045 124.473,79.3379 126.5,79.5C 126.683,77.0637 126.016,74.897 124.5,73C 125.451,69.9433 125.784,66.7766 125.5,63.5C 124.167,63.5 122.833,63.5 121.5,63.5C 121.905,67.0479 121.405,70.3812 120,73.5C 119.667,71.1667 119.333,68.8333 119,66.5C 118.667,67.1667 118.333,67.8333 118,68.5C 117.601,68.2716 117.435,67.9382 117.5,67.5C 117.5,66.1667 117.5,64.8333 117.5,63.5C 119.024,61.5921 120.357,59.4254 121.5,57C 125.486,56.5012 129.486,56.3345 133.5,56.5 Z"/></g>
<g><path style="opacity:1" fill="#41ca30" d="M 143.5,62.5 C 142.613,72.3539 139.613,81.3539 134.5,89.5C 134.5,88.1667 134.5,86.8333 134.5,85.5C 135.167,83.5 135.833,81.5 136.5,79.5C 138.208,76.0497 139.541,72.383 140.5,68.5C 141.5,66.5 142.5,64.5 143.5,62.5 Z"/></g>
<g><path style="opacity:1" fill="#40c926" d="M 131.5,73.5 C 129.925,78.3524 128.592,83.3524 127.5,88.5C 125.755,90.0326 124.755,92.0326 124.5,94.5C 124.5,95.1667 124.167,95.5 123.5,95.5C 125.279,89.2403 127.112,82.907 129,76.5C 129.377,75.0577 130.21,74.0577 131.5,73.5 Z"/></g>
<g><path style="opacity:1" fill="#b3f935" d="M 140.5,68.5 C 139.541,72.383 138.208,76.0497 136.5,79.5C 136.677,75.2924 138.01,71.6257 140.5,68.5 Z"/></g>
<g><path style="opacity:1" fill="#bcfb2f" d="M 136.5,57.5 C 137.461,59.2646 137.795,61.2646 137.5,63.5C 137.982,66.8306 136.982,69.4973 134.5,71.5C 135.487,66.8827 136.154,62.216 136.5,57.5 Z"/></g>
<g><path style="opacity:1" fill="#daf714" d="M 140.5,68.5 C 138.01,71.6257 136.677,75.2924 136.5,79.5C 135.833,81.5 135.167,83.5 134.5,85.5C 133.833,86.5 133.167,87.5 132.5,88.5C 131.325,89.9738 130.325,91.6404 129.5,93.5C 129.167,92.5 128.833,91.5 128.5,90.5C 130.747,84.2908 132.747,77.9574 134.5,71.5C 136.982,69.4973 137.982,66.8306 137.5,63.5C 138.931,63.1193 139.764,62.1193 140,60.5C 140.497,63.146 140.664,65.8127 140.5,68.5 Z"/></g>
<g><path style="opacity:1" fill="#b6fb30" d="M 72.5,79.5 C 72.8333,79.5 73.1667,79.5 73.5,79.5C 73.1667,82.1667 72.8333,84.8333 72.5,87.5C 71.5,88.8333 70.5,90.1667 69.5,91.5C 70.4876,87.5158 71.4876,83.5158 72.5,79.5 Z"/></g>
<g><path style="opacity:1" fill="#c3fa31" d="M 79.5,83.5 C 78.1703,89.1538 76.1703,94.4871 73.5,99.5C 73.9734,95.2669 74.9734,91.2669 76.5,87.5C 77.8571,86.4097 78.8571,85.0764 79.5,83.5 Z"/></g>
<g><path style="opacity:1" fill="#95ec31" d="M 134.5,85.5 C 134.5,86.8333 134.5,88.1667 134.5,89.5C 133.5,91.5 132.5,93.5 131.5,95.5C 131.674,93.139 132.007,90.8056 132.5,88.5C 133.167,87.5 133.833,86.5 134.5,85.5 Z"/></g>
<g><path style="opacity:1" fill="#1ad04a" d="M 115.5,73.5 C 115.875,71.3024 116.542,69.3024 117.5,67.5C 117.435,67.9382 117.601,68.2716 118,68.5C 118.333,67.8333 118.667,67.1667 119,66.5C 119.333,68.8333 119.667,71.1667 120,73.5C 121.405,70.3812 121.905,67.0479 121.5,63.5C 122.833,63.5 124.167,63.5 125.5,63.5C 125.784,66.7766 125.451,69.9433 124.5,73C 126.016,74.897 126.683,77.0637 126.5,79.5C 124.473,79.3379 122.473,79.5045 120.5,80C 120.043,80.414 119.709,80.914 119.5,81.5C 120.649,85.2232 121.649,88.8899 122.5,92.5C 121.771,95.855 120.938,99.1883 120,102.5C 118.422,106.143 116.589,106.309 114.5,103C 117.488,98.5631 118.154,93.7298 116.5,88.5C 112.993,91.7374 110.993,91.0708 110.5,86.5C 110.622,84.2088 111.455,82.2088 113,80.5C 113.29,82.0441 113.956,83.3774 115,84.5C 115.742,81.9093 116.242,79.5759 116.5,77.5C 118.005,80.1306 118.671,79.7973 118.5,76.5C 117.5,76.5 116.5,76.5 115.5,76.5C 115.5,75.5 115.5,74.5 115.5,73.5 Z"/></g>
<g><path style="opacity:1" fill="#d3fa20" d="M 55.5,74.5 C 55.5,75.1667 55.5,75.8333 55.5,76.5C 55.5,76.8333 55.5,77.1667 55.5,77.5C 54.6618,77.8417 54.3284,78.5084 54.5,79.5C 53.2638,81.649 52.2638,83.9823 51.5,86.5C 49.5275,89.0836 48.5275,92.0836 48.5,95.5C 48.1667,95.5 47.8333,95.5 47.5,95.5C 47.1667,95.5 46.8333,95.5 46.5,95.5C 47.2528,90.3685 49.0862,85.7018 52,81.5C 51.9582,78.3994 53.1249,76.0661 55.5,74.5 Z"/></g>
<g><path style="opacity:1" fill="#46cd2e" d="M 72.5,79.5 C 71.4876,83.5158 70.4876,87.5158 69.5,91.5C 67.7549,93.0326 66.7549,95.0326 66.5,97.5C 64.9261,99.1016 64.2594,101.102 64.5,103.5C 63.6618,103.842 63.3284,104.508 63.5,105.5C 63.1667,105.5 62.8333,105.5 62.5,105.5C 64.359,97.755 66.5257,90.0883 69,82.5C 70.0391,81.2899 71.2058,80.2899 72.5,79.5 Z"/></g>
<g><path style="opacity:1" fill="#8dec2e" d="M 127.5,88.5 C 127.245,90.9674 126.245,92.9674 124.5,94.5C 124.755,92.0326 125.755,90.0326 127.5,88.5 Z"/></g>
<g><path style="opacity:1" fill="#54cb36" d="M 95.5,90.5 C 95.5,91.1667 95.5,91.8333 95.5,92.5C 95.5,92.8333 95.5,93.1667 95.5,93.5C 94.5418,95.3024 93.8751,97.3024 93.5,99.5C 93.5,100.167 93.5,100.833 93.5,101.5C 92.8333,101.833 92.1667,102.167 91.5,102.5C 92.1371,99.544 92.6371,96.544 93,93.5C 93.3768,92.0577 94.2101,91.0577 95.5,90.5 Z"/></g>
<g><path style="opacity:1" fill="#8ae534" d="M 107.5,87.5 C 107.741,89.8984 107.074,91.8984 105.5,93.5C 105.259,91.1016 105.926,89.1016 107.5,87.5 Z"/></g>
<g><path style="opacity:1" fill="#c5fb29" d="M 134.5,71.5 C 132.747,77.9574 130.747,84.2908 128.5,90.5C 128.833,91.5 129.167,92.5 129.5,93.5C 130.325,91.6404 131.325,89.9738 132.5,88.5C 132.007,90.8056 131.674,93.139 131.5,95.5C 130.045,99.4127 128.712,103.413 127.5,107.5C 127.167,107.5 126.833,107.5 126.5,107.5C 126.954,104.135 127.62,100.802 128.5,97.5C 128.167,96.5 127.833,95.5 127.5,94.5C 126.914,94.7093 126.414,95.0426 126,95.5C 125.667,97.8333 125.333,100.167 125,102.5C 124.241,104.063 123.074,105.063 121.5,105.5C 121.5,104.833 121.5,104.167 121.5,103.5C 123.074,101.898 123.741,99.8984 123.5,97.5C 123.5,96.8333 123.5,96.1667 123.5,95.5C 124.167,95.5 124.5,95.1667 124.5,94.5C 126.245,92.9674 127.245,90.9674 127.5,88.5C 128.592,83.3524 129.925,78.3524 131.5,73.5C 132.222,72.4489 133.222,71.7822 134.5,71.5 Z"/></g>
<g><path style="opacity:1" fill="#34c932" d="M 153.5,87.5 C 153.5,88.5 153.5,89.5 153.5,90.5C 151.647,93.2084 150.647,96.2084 150.5,99.5C 148.935,101.509 147.935,103.843 147.5,106.5C 146.662,106.842 146.328,107.508 146.5,108.5C 145.833,109.5 145.167,110.5 144.5,111.5C 145.814,105.42 147.314,99.4196 149,93.5C 150.764,91.6107 152.264,89.6107 153.5,87.5 Z"/></g>
<g><path style="opacity:1" fill="#a8f638" d="M 153.5,90.5 C 153.833,90.5 154.167,90.5 154.5,90.5C 154.5,91.1667 154.5,91.8333 154.5,92.5C 154.443,93.609 154.11,94.609 153.5,95.5C 152.5,96.8333 151.5,98.1667 150.5,99.5C 150.647,96.2084 151.647,93.2084 153.5,90.5 Z"/></g>
<g><path style="opacity:1" fill="#befb1f" d="M 176.5,90.5 C 176.587,95.5365 176.254,100.537 175.5,105.5C 175.5,106.167 175.5,106.833 175.5,107.5C 173.471,112.17 171.471,116.837 169.5,121.5C 169.5,121.833 169.5,122.167 169.5,122.5C 167.413,123.585 166.08,125.251 165.5,127.5C 164.833,127.833 164.167,128.167 163.5,128.5C 165.297,124.229 167.13,119.896 169,115.5C 170,114.5 171,113.5 172,112.5C 173.61,105.133 175.11,97.7996 176.5,90.5 Z"/></g>
<g><path style="opacity:1" fill="#aff742" d="M 95.5,93.5 C 95.9465,96.0101 95.2798,98.0101 93.5,99.5C 93.8751,97.3024 94.5418,95.3024 95.5,93.5 Z"/></g>
<g><path style="opacity:1" fill="#4bcb27" d="M 104.5,95.5 C 104.833,95.5 105.167,95.5 105.5,95.5C 105.381,100.004 104.048,104.004 101.5,107.5C 101.5,106.167 101.5,104.833 101.5,103.5C 103.097,101.152 104.097,98.4855 104.5,95.5 Z"/></g>
<g><path style="opacity:1" fill="#5cce2d" d="M 81.5,79.5 C 81.1667,82.1667 80.8333,84.8333 80.5,87.5C 78.6571,93.0752 76.3237,98.4085 73.5,103.5C 73.5,102.167 73.5,100.833 73.5,99.5C 76.1703,94.4871 78.1703,89.1538 79.5,83.5C 79.9887,82.0048 80.6554,80.6715 81.5,79.5 Z"/></g>
<g><path style="opacity:1" fill="#83e838" d="M 123.5,97.5 C 123.741,99.8984 123.074,101.898 121.5,103.5C 121.595,101.214 122.262,99.2143 123.5,97.5 Z"/></g>
<g><path style="opacity:1" fill="#d9f814" d="M 126.5,107.5 C 125.655,108.671 124.989,110.005 124.5,111.5C 123.5,111.5 122.5,111.5 121.5,111.5C 120.359,109.549 120.359,107.549 121.5,105.5C 123.074,105.063 124.241,104.063 125,102.5C 125.333,100.167 125.667,97.8333 126,95.5C 126.414,95.0426 126.914,94.7093 127.5,94.5C 127.833,95.5 128.167,96.5 128.5,97.5C 127.62,100.802 126.954,104.135 126.5,107.5 Z"/></g>
<g><path style="opacity:1" fill="#aaf731" d="M 104.5,95.5 C 104.097,98.4855 103.097,101.152 101.5,103.5C 101.603,100.364 102.603,97.6975 104.5,95.5 Z"/></g>
<g><path style="opacity:1" fill="#86e62b" d="M 150.5,99.5 C 150.834,102.491 149.834,104.824 147.5,106.5C 147.935,103.843 148.935,101.509 150.5,99.5 Z"/></g>
<g><path style="opacity:1" fill="#57cd24" d="M 73.5,103.5 C 72.8333,107.5 72.1667,111.5 71.5,115.5C 70.596,116.209 70.2627,117.209 70.5,118.5C 75.5,118.5 80.5,118.5 85.5,118.5C 85.5,118.833 85.5,119.167 85.5,119.5C 79.8333,119.5 74.1667,119.5 68.5,119.5C 69.0148,113.804 70.6815,108.471 73.5,103.5 Z"/></g>
<g><path style="opacity:1" fill="#9ef132" d="M 101.5,103.5 C 101.5,104.833 101.5,106.167 101.5,107.5C 100.167,110.167 98.8333,112.833 97.5,115.5C 97.5,115.167 97.5,114.833 97.5,114.5C 97.7769,110.356 99.1103,106.689 101.5,103.5 Z"/></g>
<g><path style="opacity:1" fill="#43c728" d="M 134.5,89.5 C 133.68,96.8247 131.347,103.491 127.5,109.5C 127.5,108.833 127.5,108.167 127.5,107.5C 128.712,103.413 130.045,99.4127 131.5,95.5C 132.5,93.5 133.5,91.5 134.5,89.5 Z"/></g>
<g><path style="opacity:1" fill="#bffb2e" d="M 73.5,99.5 C 73.5,100.833 73.5,102.167 73.5,103.5C 70.6815,108.471 69.0148,113.804 68.5,119.5C 67.5655,118.432 67.2322,117.099 67.5,115.5C 68.8036,111.292 69.9702,106.959 71,102.5C 71.3768,101.058 72.2101,100.058 73.5,99.5 Z"/></g>
<g><path style="opacity:1" fill="#c1f938" d="M 93.5,101.5 C 93.1875,106.013 92.0208,110.346 90,114.5C 88.9509,116.618 87.4509,118.284 85.5,119.5C 85.5,119.167 85.5,118.833 85.5,118.5C 88.2724,113.858 90.2724,108.858 91.5,103.5C 91.5,103.167 91.5,102.833 91.5,102.5C 92.1667,102.167 92.8333,101.833 93.5,101.5 Z"/></g>
<g><path style="opacity:1" fill="#a4f943" d="M 121.5,105.5 C 120.359,107.549 120.359,109.549 121.5,111.5C 120.351,111.209 119.684,110.376 119.5,109C 119.387,107.301 120.053,106.134 121.5,105.5 Z"/></g>
<g><path style="opacity:1" fill="#a0f64a" d="M 126.5,107.5 C 126.833,107.5 127.167,107.5 127.5,107.5C 127.5,108.167 127.5,108.833 127.5,109.5C 126.778,110.551 125.778,111.218 124.5,111.5C 124.989,110.005 125.655,108.671 126.5,107.5 Z"/></g>
<g><path style="opacity:1" fill="#20cf47" d="M 142.5,113.5 C 140.844,118.775 139.178,124.109 137.5,129.5C 137.5,129.833 137.5,130.167 137.5,130.5C 136.001,133.047 134.501,135.714 133,138.5C 131.691,143.565 130.525,148.565 129.5,153.5C 128.659,155.379 128.325,157.379 128.5,159.5C 123.5,159.5 118.5,159.5 113.5,159.5C 113.5,159.167 113.5,158.833 113.5,158.5C 114.649,158.209 115.316,157.376 115.5,156C 116.216,153.208 116.549,150.374 116.5,147.5C 116.5,146.167 116.5,144.833 116.5,143.5C 117.143,141.924 118.143,140.59 119.5,139.5C 121.587,134.826 122.921,129.826 123.5,124.5C 123.5,123.833 123.5,123.167 123.5,122.5C 123.389,121.883 123.056,121.383 122.5,121C 119.5,120.333 116.5,120.333 113.5,121C 109.473,124.988 108.139,129.488 109.5,134.5C 109.5,135.5 109.5,136.5 109.5,137.5C 107.72,138.99 107.054,140.99 107.5,143.5C 107.167,143.5 106.833,143.5 106.5,143.5C 105.833,143.5 105.167,143.5 104.5,143.5C 103.427,142.749 103.26,141.749 104,140.5C 104.333,140.833 104.667,141.167 105,141.5C 107.462,138.068 107.962,134.401 106.5,130.5C 105.397,130.002 104.397,129.669 103.5,129.5C 105.001,128.248 106.668,127.248 108.5,126.5C 110.038,121.218 111.372,115.885 112.5,110.5C 113.167,112.167 113.833,113.833 114.5,115.5C 117.877,113.675 121.543,113.008 125.5,113.5C 125.275,115.716 126.108,117.383 128,118.5C 128.895,116.196 129.729,113.862 130.5,111.5C 131.425,112.641 132.259,112.641 133,111.5C 133.388,112.428 134.055,113.095 135,113.5C 136.892,110.61 137.725,110.944 137.5,114.5C 139.292,114.634 140.958,114.301 142.5,113.5 Z"/></g>
<g><path style="opacity:1" fill="#c8fb2f" d="M 153.5,95.5 C 152.977,98.8898 152.143,102.223 151,105.5C 150.333,106.833 149.333,107.833 148,108.5C 147.703,111.914 147.036,115.247 146,118.5C 143.611,123.989 141.111,129.322 138.5,134.5C 138.517,132.435 138.85,130.435 139.5,128.5C 140.63,124.442 141.964,120.442 143.5,116.5C 145.655,114.383 146.655,111.716 146.5,108.5C 146.328,107.508 146.662,106.842 147.5,106.5C 149.834,104.824 150.834,102.491 150.5,99.5C 151.5,98.1667 152.5,96.8333 153.5,95.5 Z"/></g>
<g><path style="opacity:1" fill="#3ac936" d="M 91.5,103.5 C 90.2724,108.858 88.2724,113.858 85.5,118.5C 80.5,118.5 75.5,118.5 70.5,118.5C 70.2627,117.209 70.596,116.209 71.5,115.5C 73.223,116.8 75.3897,117.467 78,117.5C 84.2875,117.987 87.2875,114.987 87,108.5C 88.0669,106.308 89.5669,104.642 91.5,103.5 Z"/></g>
<g><path style="opacity:1" fill="#54d806" d="M 175.5,107.5 C 175.649,110.607 175.149,113.607 174,116.5C 173.388,119.115 171.888,120.781 169.5,121.5C 171.471,116.837 173.471,112.17 175.5,107.5 Z"/></g>
<g><path style="opacity:1" fill="#8deb3e" d="M 146.5,108.5 C 146.655,111.716 145.655,114.383 143.5,116.5C 144.038,114.883 144.371,113.216 144.5,111.5C 145.167,110.5 145.833,109.5 146.5,108.5 Z"/></g>
<g><path style="opacity:1" fill="#95f11a" d="M 26.5,111.5 C 28.3969,113.698 29.3969,116.364 29.5,119.5C 27.9028,117.152 26.9028,114.486 26.5,111.5 Z"/></g>
<g><path style="opacity:1" fill="#c3fb2b" d="M 97.5,114.5 C 97.5,114.833 97.5,115.167 97.5,115.5C 96.5856,119.936 94.919,123.936 92.5,127.5C 94.0577,123.392 94.7244,119.059 94.5,114.5C 95.5,114.5 96.5,114.5 97.5,114.5 Z"/></g>
<g><path style="opacity:1" fill="#dff60a" d="M 60.5,24.5 C 61.8221,24.33 62.9887,24.6634 64,25.5C 64.813,27.4357 65.313,29.4357 65.5,31.5C 66.675,31.281 67.675,31.6143 68.5,32.5C 67.8728,33.4168 67.5394,34.4168 67.5,35.5C 65.8568,39.3005 65.1901,43.3005 65.5,47.5C 64.8333,47.5 64.1667,47.5 63.5,47.5C 60.7362,52.3932 59.0696,57.7265 58.5,63.5C 57.7033,67.2232 56.7033,70.8899 55.5,74.5C 53.1249,76.0661 51.9582,78.3994 52,81.5C 49.0862,85.7018 47.2528,90.3685 46.5,95.5C 43.4516,100.307 42.1183,105.64 42.5,111.5C 41.8333,112.5 41.1667,113.5 40.5,114.5C 37.4983,116.468 36.8317,119.135 38.5,122.5C 45.6297,121.866 52.6297,121.199 59.5,120.5C 60.1174,120.389 60.6174,120.056 61,119.5C 61.3951,116.793 61.8951,114.127 62.5,111.5C 62.8333,110.167 63.1667,108.833 63.5,107.5C 67.308,103 69.308,97.6667 69.5,91.5C 70.5,90.1667 71.5,88.8333 72.5,87.5C 73.9313,86.2196 74.5979,84.5529 74.5,82.5C 75.5,82.5 76.5,82.5 77.5,82.5C 77.3713,84.2161 77.038,85.8828 76.5,87.5C 74.9734,91.2669 73.9734,95.2669 73.5,99.5C 72.2101,100.058 71.3768,101.058 71,102.5C 69.9702,106.959 68.8036,111.292 67.5,115.5C 64.0767,116.449 63.7434,118.116 66.5,120.5C 73.4764,121.331 80.4764,121.831 87.5,122C 88.0253,122.692 88.6919,123.192 89.5,123.5C 89.0833,120.892 89.5833,118.225 91,115.5C 91.4988,119.486 91.6655,123.486 91.5,127.5C 88.0577,135.608 85.3911,143.941 83.5,152.5C 81.8372,154.438 81.1706,156.772 81.5,159.5C 79.7662,163.3 77.7662,166.967 75.5,170.5C 75.2478,166.023 75.0811,161.357 75,156.5C 73.2745,155.536 71.4412,154.869 69.5,154.5C 67.5,154.5 65.5,154.5 63.5,154.5C 61.9294,149.601 58.5961,147.601 53.5,148.5C 48.2496,141.69 42.7496,135.024 37,128.5C 32.2847,120.498 28.4514,112.164 25.5,103.5C 24.7814,101.236 24.448,98.9029 24.5,96.5C 24.3337,89.1591 24.5003,81.8258 25,74.5C 26.9039,71.0769 27.7372,67.4102 27.5,63.5C 30.1791,60.7836 31.5124,57.4503 31.5,53.5C 32.5082,51.4561 33.5082,49.4561 34.5,47.5C 36.1942,46.4726 37.5275,45.1392 38.5,43.5C 42.9678,38.8613 47.3011,34.028 51.5,29C 54.8386,28.1577 57.8386,26.6577 60.5,24.5 Z"/></g>
<g><path style="opacity:1" fill="#bdfc30" d="M 61.5,111.5 C 61.8333,111.5 62.1667,111.5 62.5,111.5C 61.8951,114.127 61.3951,116.793 61,119.5C 60.6174,120.056 60.1174,120.389 59.5,120.5C 53.31,120.823 47.31,120.49 41.5,119.5C 47.5,119.5 53.5,119.5 59.5,119.5C 59.1107,116.447 59.7773,113.78 61.5,111.5 Z"/></g>
<g><path style="opacity:1" fill="#3eca2e" d="M 47.5,95.5 C 47.8333,95.5 48.1667,95.5 48.5,95.5C 48.8333,95.5 49.1667,95.5 49.5,95.5C 48.8379,99.4659 48.5045,103.466 48.5,107.5C 47.5,107.5 46.5,107.5 45.5,107.5C 45.3841,110.86 45.0508,114.193 44.5,117.5C 48.8333,117.5 53.1667,117.5 57.5,117.5C 58.0444,113.9 59.0444,110.4 60.5,107C 60.8361,105.97 61.5028,105.47 62.5,105.5C 61.8505,107.435 61.5172,109.435 61.5,111.5C 59.7773,113.78 59.1107,116.447 59.5,119.5C 53.5,119.5 47.5,119.5 41.5,119.5C 41.5838,116.673 42.2504,114.006 43.5,111.5C 45.4098,106.335 46.7431,101.002 47.5,95.5 Z"/></g>
<g><path style="opacity:1" fill="#8dea2a" d="M 42.5,111.5 C 42.8333,111.5 43.1667,111.5 43.5,111.5C 42.2504,114.006 41.5838,116.673 41.5,119.5C 40.5489,118.081 40.2155,116.415 40.5,114.5C 41.1667,113.5 41.8333,112.5 42.5,111.5 Z"/></g>
<g><path style="opacity:1" fill="#a0f03e" d="M 62.5,105.5 C 62.8333,105.5 63.1667,105.5 63.5,105.5C 63.5,106.167 63.5,106.833 63.5,107.5C 63.1667,108.833 62.8333,110.167 62.5,111.5C 62.1667,111.5 61.8333,111.5 61.5,111.5C 61.5172,109.435 61.8505,107.435 62.5,105.5 Z"/></g>
<g><path style="opacity:1" fill="#cafc2b" d="M 69.5,91.5 C 69.308,97.6667 67.308,103 63.5,107.5C 63.5,106.833 63.5,106.167 63.5,105.5C 63.3284,104.508 63.6618,103.842 64.5,103.5C 66.0739,101.898 66.7406,99.8984 66.5,97.5C 66.7549,95.0326 67.7549,93.0326 69.5,91.5 Z"/></g>
<g><path style="opacity:1" fill="#a1f43c" d="M 66.5,97.5 C 66.7406,99.8984 66.0739,101.898 64.5,103.5C 64.2594,101.102 64.9261,99.1016 66.5,97.5 Z"/></g>
<g><path style="opacity:1" fill="#c5fb2c" d="M 46.5,95.5 C 46.8333,95.5 47.1667,95.5 47.5,95.5C 46.7431,101.002 45.4098,106.335 43.5,111.5C 43.1667,111.5 42.8333,111.5 42.5,111.5C 42.1183,105.64 43.4516,100.307 46.5,95.5 Z"/></g>
<g><path style="opacity:1" fill="#a1f634" d="M 51.5,86.5 C 51.5,87.1667 51.5,87.8333 51.5,88.5C 50.5448,90.7457 49.8782,93.079 49.5,95.5C 49.1667,95.5 48.8333,95.5 48.5,95.5C 48.5275,92.0836 49.5275,89.0836 51.5,86.5 Z"/></g>
<g><path style="opacity:1" fill="#d3fa19" d="M 40.5,114.5 C 40.2155,116.415 40.5489,118.081 41.5,119.5C 47.31,120.49 53.31,120.823 59.5,120.5C 52.6297,121.199 45.6297,121.866 38.5,122.5C 36.8317,119.135 37.4983,116.468 40.5,114.5 Z"/></g>
<g><path style="opacity:1" fill="#a2f542" d="M 123.5,122.5 C 123.5,123.167 123.5,123.833 123.5,124.5C 122.833,125.5 122.167,126.5 121.5,127.5C 121.5,126.167 121.5,124.833 121.5,123.5C 119.585,123.216 117.919,123.549 116.5,124.5C 115.5,125.167 114.5,125.833 113.5,126.5C 113.511,124.983 114.177,123.816 115.5,123C 118.146,122.503 120.813,122.336 123.5,122.5 Z"/></g>
<g><path style="opacity:1" fill="#3ec32d" d="M 144.5,111.5 C 144.371,113.216 144.038,114.883 143.5,116.5C 141.964,120.442 140.63,124.442 139.5,128.5C 138.833,128.833 138.167,129.167 137.5,129.5C 139.178,124.109 140.844,118.775 142.5,113.5C 142.5,112.167 143.167,111.5 144.5,111.5 Z"/></g>
<g><path style="opacity:1" fill="#a7f717" d="M 31.5,122.5 C 33.7271,123.401 34.7271,125.067 34.5,127.5C 33.1103,126.101 32.1103,124.434 31.5,122.5 Z"/></g>
<g><path style="opacity:1" fill="#3fc932" d="M 123.5,122.5 C 120.813,122.336 118.146,122.503 115.5,123C 114.177,123.816 113.511,124.983 113.5,126.5C 112.167,129.167 110.833,131.833 109.5,134.5C 108.139,129.488 109.473,124.988 113.5,121C 116.5,120.333 119.5,120.333 122.5,121C 123.056,121.383 123.389,121.883 123.5,122.5 Z"/></g>
<g><path style="opacity:1" fill="#bffc31" d="M 116.5,124.5 C 117.919,123.549 119.585,123.216 121.5,123.5C 121.5,124.833 121.5,126.167 121.5,127.5C 120.833,131.5 120.167,135.5 119.5,139.5C 118.143,140.59 117.143,141.924 116.5,143.5C 117.064,136.924 118.397,130.591 120.5,124.5C 119.167,124.5 117.833,124.5 116.5,124.5 Z"/></g>
<g><path style="opacity:1" fill="#4adc09" d="M 25.5,111.5 C 25.8333,111.5 26.1667,111.5 26.5,111.5C 26.9028,114.486 27.9028,117.152 29.5,119.5C 30.9063,119.973 31.573,120.973 31.5,122.5C 32.1103,124.434 33.1103,126.101 34.5,127.5C 34.5,128.167 34.5,128.833 34.5,129.5C 35.4151,131.754 36.7484,133.754 38.5,135.5C 36.2843,134.797 34.451,133.464 33,131.5C 31.8638,127.314 29.3638,125.814 25.5,127C 26.9436,125.874 27.6102,124.374 27.5,122.5C 26.0805,118.984 25.4138,115.318 25.5,111.5 Z"/></g>
<g><path style="opacity:1" fill="#bffb35" d="M 113.5,126.5 C 112.067,132.33 110.401,137.997 108.5,143.5C 108.517,141.435 108.85,139.435 109.5,137.5C 109.5,136.5 109.5,135.5 109.5,134.5C 110.833,131.833 112.167,129.167 113.5,126.5 Z"/></g>
<g><path style="opacity:1" fill="#c7fd1d" d="M 25.5,103.5 C 28.4514,112.164 32.2847,120.498 37,128.5C 42.7496,135.024 48.2496,141.69 53.5,148.5C 50.9066,147.246 48.5732,145.58 46.5,143.5C 45.2427,140.573 43.2427,138.239 40.5,136.5C 40.5,135.833 40.1667,135.5 39.5,135.5C 38.5806,132.911 36.914,130.911 34.5,129.5C 34.5,128.833 34.5,128.167 34.5,127.5C 34.7271,125.067 33.7271,123.401 31.5,122.5C 31.573,120.973 30.9063,119.973 29.5,119.5C 29.3969,116.364 28.3969,113.698 26.5,111.5C 26.1667,111.5 25.8333,111.5 25.5,111.5C 25.5,109.833 25.5,108.167 25.5,106.5C 25.5,105.5 25.5,104.5 25.5,103.5 Z"/></g>
<g><path style="opacity:1" fill="#7ce509" d="M 34.5,129.5 C 36.914,130.911 38.5806,132.911 39.5,135.5C 39.1667,135.5 38.8333,135.5 38.5,135.5C 36.7484,133.754 35.4151,131.754 34.5,129.5 Z"/></g>
<g><path style="opacity:1" fill="#92ed1b" d="M 165.5,127.5 C 164.471,130.891 162.471,133.557 159.5,135.5C 159.5,135.167 159.5,134.833 159.5,134.5C 161.226,132.772 162.559,130.772 163.5,128.5C 164.167,128.167 164.833,127.833 165.5,127.5 Z"/></g>
<g><path style="opacity:1" fill="#aef63f" d="M 139.5,128.5 C 138.85,130.435 138.517,132.435 138.5,134.5C 137.912,137.889 136.579,140.889 134.5,143.5C 135.652,139.225 136.652,134.892 137.5,130.5C 137.5,130.167 137.5,129.833 137.5,129.5C 138.167,129.167 138.833,128.833 139.5,128.5 Z"/></g>
<g><path style="opacity:1" fill="#51cb2b" d="M 101.5,107.5 C 101.322,110.216 100.822,112.883 100,115.5C 96.7068,124.326 93.5402,133.159 90.5,142C 90.1639,143.03 89.4972,143.53 88.5,143.5C 89.8255,138.177 91.1588,132.843 92.5,127.5C 94.919,123.936 96.5856,119.936 97.5,115.5C 98.8333,112.833 100.167,110.167 101.5,107.5 Z"/></g>
<g><path style="opacity:1" fill="#47c51f" d="M 123.5,124.5 C 122.921,129.826 121.587,134.826 119.5,139.5C 120.167,135.5 120.833,131.5 121.5,127.5C 122.167,126.5 122.833,125.5 123.5,124.5 Z"/></g>
<g><path style="opacity:1" fill="#7fe612" d="M 40.5,136.5 C 43.2427,138.239 45.2427,140.573 46.5,143.5C 46.1667,143.5 45.8333,143.5 45.5,143.5C 43.4202,141.427 41.7536,139.093 40.5,136.5 Z"/></g>
<g><path style="opacity:1" fill="#81e031" d="M 109.5,137.5 C 108.85,139.435 108.517,141.435 108.5,143.5C 108.167,143.5 107.833,143.5 107.5,143.5C 107.054,140.99 107.72,138.99 109.5,137.5 Z"/></g>
<g><path style="opacity:1" fill="#c1fe20" d="M 159.5,134.5 C 159.5,134.833 159.5,135.167 159.5,135.5C 159.167,136.167 158.833,136.833 158.5,137.5C 155.5,138.5 153.5,140.5 152.5,143.5C 152.167,143.5 151.833,143.5 151.5,143.5C 152.779,139.223 155.446,136.223 159.5,134.5 Z"/></g>
<g><path style="opacity:1" fill="#40d204" d="M 39.5,135.5 C 40.1667,135.5 40.5,135.833 40.5,136.5C 41.7536,139.093 43.4202,141.427 45.5,143.5C 41.3567,142.431 39.3567,139.765 39.5,135.5 Z"/></g>
<g><path style="opacity:1" fill="#85ec15" d="M 158.5,137.5 C 156.833,139.833 154.833,141.833 152.5,143.5C 153.5,140.5 155.5,138.5 158.5,137.5 Z"/></g>
<g><path style="opacity:1" fill="#41da0a" d="M 169.5,122.5 C 169.657,123.873 169.49,125.207 169,126.5C 165.909,131.014 162.575,135.347 159,139.5C 158.316,140.784 158.483,141.951 159.5,143C 157.248,145.887 154.248,147.22 150.5,147C 149.211,148.802 147.544,149.969 145.5,150.5C 146.75,148.846 148.084,147.179 149.5,145.5C 150.167,144.833 150.833,144.167 151.5,143.5C 151.833,143.5 152.167,143.5 152.5,143.5C 154.833,141.833 156.833,139.833 158.5,137.5C 158.833,136.833 159.167,136.167 159.5,135.5C 162.471,133.557 164.471,130.891 165.5,127.5C 166.08,125.251 167.413,123.585 169.5,122.5 Z"/></g>
<g><path style="opacity:1" fill="#cffb1c" d="M 151.5,143.5 C 150.833,144.167 150.167,144.833 149.5,145.5C 145.975,146.759 142.975,148.759 140.5,151.5C 138.883,152.038 137.216,152.371 135.5,152.5C 136.848,151.399 138.348,150.399 140,149.5C 140.309,148.234 140.809,147.067 141.5,146C 144.934,145.442 148.267,144.609 151.5,143.5 Z"/></g>
<g><path style="opacity:1" fill="#cbfd2d" d="M 91.5,127.5 C 91.8333,127.5 92.1667,127.5 92.5,127.5C 91.1588,132.843 89.8255,138.177 88.5,143.5C 87.8333,144.5 87.1667,145.5 86.5,146.5C 85.2028,148.371 84.2028,150.371 83.5,152.5C 85.3911,143.941 88.0577,135.608 91.5,127.5 Z"/></g>
<g><path style="opacity:1" fill="#40c02b" d="M 104.5,143.5 C 105.167,143.5 105.833,143.5 106.5,143.5C 105.369,146.993 104.036,150.326 102.5,153.5C 102.851,150.097 103.518,146.763 104.5,143.5 Z"/></g>
<g><path style="opacity:1" fill="#47c42e" d="M 137.5,130.5 C 136.652,134.892 135.652,139.225 134.5,143.5C 132.267,146.39 130.934,149.723 130.5,153.5C 130.167,153.5 129.833,153.5 129.5,153.5C 130.525,148.565 131.691,143.565 133,138.5C 134.501,135.714 136.001,133.047 137.5,130.5 Z"/></g>
<g><path style="opacity:1" fill="#a0ee2c" d="M 116.5,143.5 C 116.5,144.833 116.5,146.167 116.5,147.5C 115.833,148.833 115.167,150.167 114.5,151.5C 114.111,148.447 114.777,145.78 116.5,143.5 Z"/></g>
<g><path style="opacity:1" fill="#c3fb1e" d="M 53.5,148.5 C 58.5961,147.601 61.9294,149.601 63.5,154.5C 60.1262,152.483 56.7929,150.483 53.5,148.5 Z"/></g>
<g><path style="opacity:1" fill="#b8f83f" d="M 106.5,143.5 C 106.833,143.5 107.167,143.5 107.5,143.5C 107.662,145.527 107.495,147.527 107,149.5C 105.726,152.939 104.226,156.272 102.5,159.5C 102.167,159.5 101.833,159.5 101.5,159.5C 101.833,157.5 102.167,155.5 102.5,153.5C 104.036,150.326 105.369,146.993 106.5,143.5 Z"/></g>
<g><path style="opacity:1" fill="#6fe20c" d="M 149.5,145.5 C 148.084,147.179 146.75,148.846 145.5,150.5C 144.609,151.11 143.609,151.443 142.5,151.5C 141.833,151.5 141.167,151.5 140.5,151.5C 142.975,148.759 145.975,146.759 149.5,145.5 Z"/></g>
<g><path style="opacity:1" fill="#87e82e" d="M 86.5,146.5 C 86.4098,150.214 85.4098,153.548 83.5,156.5C 83.5,155.167 83.5,153.833 83.5,152.5C 84.2028,150.371 85.2028,148.371 86.5,146.5 Z"/></g>
<g><path style="opacity:1" fill="#c0fa32" d="M 134.5,143.5 C 134.127,146.574 133.461,149.574 132.5,152.5C 133.5,152.5 134.5,152.5 135.5,152.5C 134.53,153.629 133.364,154.629 132,155.5C 130.97,155.164 130.47,154.497 130.5,153.5C 130.934,149.723 132.267,146.39 134.5,143.5 Z"/></g>
<g><path style="opacity:1" fill="#b6fa1b" d="M 63.5,154.5 C 65.5,154.5 67.5,154.5 69.5,154.5C 70.1667,155.5 70.8333,156.5 71.5,157.5C 68.3642,157.397 65.6975,156.397 63.5,154.5 Z"/></g>
<g><path style="opacity:1" fill="#4ac322" d="M 116.5,147.5 C 116.549,150.374 116.216,153.208 115.5,156C 115.316,157.376 114.649,158.209 113.5,158.5C 113.674,156.139 114.007,153.806 114.5,151.5C 115.167,150.167 115.833,148.833 116.5,147.5 Z"/></g>
<g><path style="opacity:1" fill="#49d704" d="M 46.5,143.5 C 48.5732,145.58 50.9066,147.246 53.5,148.5C 56.7929,150.483 60.1262,152.483 63.5,154.5C 65.6975,156.397 68.3642,157.397 71.5,157.5C 71.5,157.833 71.5,158.167 71.5,158.5C 72.4602,161.765 72.4602,165.098 71.5,168.5C 69.8235,169.183 69.1568,170.517 69.5,172.5C 46.1667,172.5 22.8333,172.5 -0.5,172.5C -0.5,171.833 -0.5,171.167 -0.5,170.5C 22.1691,170.667 44.8358,170.5 67.5,170C 71.0971,162.808 68.9305,158.308 61,156.5C 59.4134,157.67 57.7467,158.67 56,159.5C 55.3333,158.833 55.3333,158.167 56,157.5C 58.9701,156.41 59.3035,154.744 57,152.5C 53.7125,151.884 50.8792,150.384 48.5,148C 47.4178,146.67 46.7512,145.17 46.5,143.5 Z"/></g>
<g><path style="opacity:1" fill="#bafb31" d="M 83.5,152.5 C 83.5,153.833 83.5,155.167 83.5,156.5C 83.5,156.833 83.5,157.167 83.5,157.5C 82.8333,158.167 82.1667,158.833 81.5,159.5C 81.1706,156.772 81.8372,154.438 83.5,152.5 Z"/></g>
<g><path style="opacity:1" fill="#2ec35c" d="M 121.5,156.5 C 123.308,156.491 124.975,156.991 126.5,158C 125.667,158.167 124.833,158.333 124,158.5C 122.624,158.316 121.791,157.649 121.5,156.5 Z"/></g>
<g><path style="opacity:1" fill="#bff722" d="M 114.5,151.5 C 114.007,153.806 113.674,156.139 113.5,158.5C 113.5,158.833 113.5,159.167 113.5,159.5C 111.847,159.66 110.514,160.326 109.5,161.5C 108.5,162.167 107.5,162.833 106.5,163.5C 106.511,161.983 107.177,160.816 108.5,160C 108.167,159.667 107.833,159.333 107.5,159C 109.134,158.506 110.801,158.34 112.5,158.5C 112.171,155.772 112.837,153.438 114.5,151.5 Z"/></g>
<g><path style="opacity:1" fill="#97f014" d="M 71.5,158.5 C 72.7479,159.334 73.4146,160.667 73.5,162.5C 73.3282,164.548 72.9949,166.548 72.5,168.5C 72.1667,168.5 71.8333,168.5 71.5,168.5C 72.4602,165.098 72.4602,161.765 71.5,158.5 Z"/></g>
<g><path style="opacity:1" fill="#47da1b" d="M 140.5,151.5 C 141.167,151.5 141.833,151.5 142.5,151.5C 142.678,152.695 143.011,153.862 143.5,155C 142.356,158.247 141.356,158.081 140.5,154.5C 136.425,155.594 132.758,157.428 129.5,160C 122.734,160.291 116.067,161.125 109.5,162.5C 109.5,162.167 109.5,161.833 109.5,161.5C 110.514,160.326 111.847,159.66 113.5,159.5C 118.5,159.5 123.5,159.5 128.5,159.5C 128.325,157.379 128.659,155.379 129.5,153.5C 129.833,153.5 130.167,153.5 130.5,153.5C 130.47,154.497 130.97,155.164 132,155.5C 133.364,154.629 134.53,153.629 135.5,152.5C 137.216,152.371 138.883,152.038 140.5,151.5 Z"/></g>
<g><path style="opacity:1" fill="#64d801" d="M 109.5,161.5 C 109.5,161.833 109.5,162.167 109.5,162.5C 108.833,163.5 108.167,164.5 107.5,165.5C 106.539,167.265 106.205,169.265 106.5,171.5C 134.167,171.5 161.833,171.5 189.5,171.5C 189.5,171.833 189.5,172.167 189.5,172.5C 161.833,172.5 134.167,172.5 106.5,172.5C 105.225,169.604 105.225,166.604 106.5,163.5C 107.5,162.833 108.5,162.167 109.5,161.5 Z"/></g>
<g><path style="opacity:1" fill="#46ca2f" d="M 102.5,153.5 C 102.167,155.5 101.833,157.5 101.5,159.5C 100.374,162.465 99.3745,165.465 98.5,168.5C 97.7281,169.694 96.7281,170.694 95.5,171.5C 90.3054,171.821 85.3054,171.487 80.5,170.5C 85.5111,170.666 90.5111,170.499 95.5,170C 97.2049,164.106 99.5383,158.606 102.5,153.5 Z"/></g>
<g><path style="opacity:1" fill="#3fd702" d="M 107.5,165.5 C 107.5,167.167 107.5,168.833 107.5,170.5C 134.833,170.5 162.167,170.5 189.5,170.5C 189.5,170.833 189.5,171.167 189.5,171.5C 161.833,171.5 134.167,171.5 106.5,171.5C 106.205,169.265 106.539,167.265 107.5,165.5 Z"/></g>
<g><path style="opacity:1" fill="#c0fe1b" d="M 71.5,168.5 C 71.8333,168.5 72.1667,168.5 72.5,168.5C 72.607,170.903 71.607,172.736 69.5,174C 46.169,174.5 22.8357,174.667 -0.5,174.5C -0.5,173.833 -0.5,173.167 -0.5,172.5C 22.8333,172.5 46.1667,172.5 69.5,172.5C 69.1568,170.517 69.8235,169.183 71.5,168.5 Z"/></g>
<g><path style="opacity:1" fill="#bffe1b" d="M 106.5,172.5 C 134.167,172.5 161.833,172.5 189.5,172.5C 189.5,173.167 189.5,173.833 189.5,174.5C 161.48,175.158 133.813,174.492 106.5,172.5 Z"/></g>
<g><path style="opacity:1" fill="#ddf70c" d="M 116.5,124.5 C 117.833,124.5 119.167,124.5 120.5,124.5C 118.397,130.591 117.064,136.924 116.5,143.5C 114.777,145.78 114.111,148.447 114.5,151.5C 112.837,153.438 112.171,155.772 112.5,158.5C 110.801,158.34 109.134,158.506 107.5,159C 107.833,159.333 108.167,159.667 108.5,160C 107.177,160.816 106.511,161.983 106.5,163.5C 105.225,166.604 105.225,169.604 106.5,172.5C 133.813,174.492 161.48,175.158 189.5,174.5C 189.5,175.833 189.5,177.167 189.5,178.5C 126.167,178.5 62.8333,178.5 -0.5,178.5C -0.5,177.167 -0.5,175.833 -0.5,174.5C 22.8357,174.667 46.169,174.5 69.5,174C 71.607,172.736 72.607,170.903 72.5,168.5C 72.9949,166.548 73.3282,164.548 73.5,162.5C 73.4146,160.667 72.7479,159.334 71.5,158.5C 71.5,158.167 71.5,157.833 71.5,157.5C 70.8333,156.5 70.1667,155.5 69.5,154.5C 71.4412,154.869 73.2745,155.536 75,156.5C 75.0811,161.357 75.2478,166.023 75.5,170.5C 75.5,171.833 75.5,173.167 75.5,174.5C 83.7524,174.184 91.919,174.518 100,175.5C 101.504,173.901 101.67,172.068 100.5,170C 101.409,166.534 102.076,163.034 102.5,159.5C 104.226,156.272 105.726,152.939 107,149.5C 107.495,147.527 107.662,145.527 107.5,143.5C 107.833,143.5 108.167,143.5 108.5,143.5C 110.401,137.997 112.067,132.33 113.5,126.5C 114.5,125.833 115.5,125.167 116.5,124.5 Z"/></g>
<g><path style="opacity:1" fill="#d1fa1f" d="M 81.5,159.5 C 80.8118,162.918 79.8118,166.251 78.5,169.5C 78.685,170.584 79.0183,171.584 79.5,172.5C 84.9846,173.652 90.6513,173.818 96.5,173C 98.0368,171.89 98.7035,170.39 98.5,168.5C 99.3745,165.465 100.374,162.465 101.5,159.5C 101.833,159.5 102.167,159.5 102.5,159.5C 102.076,163.034 101.409,166.534 100.5,170C 101.67,172.068 101.504,173.901 100,175.5C 91.919,174.518 83.7524,174.184 75.5,174.5C 75.5,173.167 75.5,171.833 75.5,170.5C 77.7662,166.967 79.7662,163.3 81.5,159.5 Z"/></g>
<g><path style="opacity:1" fill="#aafa3a" d="M 98.5,168.5 C 98.7035,170.39 98.0368,171.89 96.5,173C 90.6513,173.818 84.9846,173.652 79.5,172.5C 85.0262,172.821 90.3595,172.488 95.5,171.5C 96.7281,170.694 97.7281,169.694 98.5,168.5 Z"/></g>
<g><path style="opacity:1" fill="#58c91e" d="M 83.5,157.5 C 82.3483,161.775 81.3483,166.108 80.5,170.5C 85.3054,171.487 90.3054,171.821 95.5,171.5C 90.3595,172.488 85.0262,172.821 79.5,172.5C 79.0183,171.584 78.685,170.584 78.5,169.5C 79.8118,166.251 80.8118,162.918 81.5,159.5C 82.1667,158.833 82.8333,158.167 83.5,157.5 Z"/></g>
</svg>
