<svg aria-hidden="true" style="position: absolute; width: 0; height: 0; overflow: hidden;" version="1.1"
    xmlns="http://www.w3.org/2000/svg" xmlns:xlink="http://www.w3.org/1999/xlink">
    <defs>
        <symbol id="icon-arrow" viewBox="0 0 64 32">
            <path d="M44.444 0l19.556 15.396-19.556 15.396v-12.729h-44.444v-5.333h44.444v-12.729z"></path>
        </symbol>
        <symbol id="icon-arrow-up" viewBox="0 0 32 32">  
            <path stroke-linejoin="round" stroke-linecap="round" stroke-miterlimit="4" stroke-width="2.0800"
                d="M13.333 8h10.667v10.667"></path>
            <path stroke-linejoin="round" stroke-linecap="round" stroke-miterlimit="4" stroke-width="2.0800"
                d="M8 24l16-16"></path>
        </symbol>
        
        <symbol id="icon-logo" viewBox="0 0 35 35">
        <path fill="#def706" style="fill: var(--color1, #def706)" d="M16.536-0.089c5.78 0 11.561 0 17.341 0 0 0.238 0 0.477 0 0.715-6.572 0.022-13.127-0.037-19.665-0.179 0.848-0.067 1.623-0.246 2.324-0.536z"></path>
<path fill="#e0f60a" style="fill: var(--color2, #e0f60a)" d="M-0.089-0.089c4.231 0 8.462 0 12.693 0 0.416 0.243 0.833 0.511 1.251 0.804-0.098 0.165-0.217 0.314-0.358 0.447-0.215-0.184-0.453-0.333-0.715-0.447-4.29-0.089-8.581-0.119-12.871-0.089 0-0.238 0-0.477 0-0.715z"></path>
<path fill="#b6fe1e" style="fill: var(--color3, #b6fe1e)" d="M33.877 0.804c0 0.060 0 0.119 0 0.179-4.827-0.030-9.654 0-14.48 0.089-0.105 0.233-0.224 0.441-0.358 0.626-0.038-0.294 0.021-0.562 0.179-0.804 4.886-0.089 9.773-0.119 14.659-0.089z"></path>
<path fill="#58d601" style="fill: var(--color4, #58d601)" d="M33.877 0.983c0 0.060 0 0.119 0 0.179-4.648-0.030-9.296 0-13.944 0.089-0.164 0.067-0.313 0.156-0.447 0.268-0.132 0.545-0.281 1.081-0.447 1.609-0.119 0-0.179 0.060-0.179 0.179-0.060 0-0.119 0-0.179 0-0.009-0.43 0.050-0.847 0.179-1.251-0.031-0.177 0.029-0.296 0.179-0.358 0.134-0.184 0.253-0.393 0.358-0.626 4.826-0.089 9.653-0.119 14.48-0.089z"></path>
<path fill="#a9f619" style="fill: var(--color5, #a9f619)" d="M12.425 1.162c0-0.060 0-0.119 0-0.179 0.179 0 0.358 0 0.536 0 0.106 0.56-0.073 0.977-0.536 1.251 0.075-0.285 0.194-0.553 0.358-0.804-0.060-0.184-0.179-0.274-0.358-0.268z"></path>
<path fill="#2ae10e" style="fill: var(--color6, #2ae10e)" d="M33.877 1.162c0 9.773 0 19.546 0 29.318-4.886 0-9.773 0-14.659 0 0-0.298 0-0.596 0-0.894 0.119-0.179 0.238-0.358 0.358-0.536 1.174-0.246 2.366-0.395 3.575-0.447 0.582-0.46 1.238-0.788 1.966-0.983 0.153 0.64 0.332 0.67 0.536 0.089-0.087-0.203-0.147-0.412-0.179-0.626 0.198-0.010 0.377-0.070 0.536-0.179 0.365-0.095 0.663-0.304 0.894-0.626 0.67 0.039 1.206-0.199 1.609-0.715-0.182-0.188-0.212-0.396-0.089-0.626 0.639-0.742 1.235-1.517 1.788-2.324 0.088-0.231 0.117-0.47 0.089-0.715 0-0.060 0-0.119 0-0.179 0.427-0.129 0.695-0.426 0.804-0.894 0.205-0.517 0.295-1.053 0.268-1.609 0-0.119 0-0.238 0-0.358 0.231-0.24 0.38-0.538 0.447-0.894 0.406-3.381-0.309-6.479-2.145-9.296-0.106-0.25-0.076-0.488 0.089-0.715-0.326 0.007-0.683-0.053-1.073-0.179-0.381-0.496-0.619-1.062-0.715-1.698-0.894-0.536-1.788-1.073-2.682-1.609-0.4-0.175-0.818-0.264-1.251-0.268-0.1-0.231-0.279-0.38-0.536-0.447-1.426-0.556-2.916-0.764-4.469-0.626 0.166-0.528 0.315-1.064 0.447-1.609 0.134-0.112 0.283-0.201 0.447-0.268 4.648-0.089 9.296-0.119 13.944-0.089z"></path>
<path fill="#2be10e" style="fill: var(--color7, #2be10e)" d="M-0.089 0.983c4.171 0 8.343 0 12.514 0 0 0.060 0 0.119 0 0.179-0.24 0.514-0.449 1.050-0.626 1.609-0.149 0.149-0.298 0.298-0.447 0.447-0.93 0.395-1.765 0.932-2.503 1.609-0.169 0.086-0.348 0.116-0.536 0.089 0 0.179 0 0.358 0 0.536-0.449 0.225-0.866 0.523-1.251 0.894-0.166 0.213-0.226 0.451-0.179 0.715-0.179 0-0.358 0-0.536 0-0.324 0.541-0.532 1.137-0.626 1.788-0.179 0.119-0.358 0.238-0.536 0.358-0.394 1.404-0.871 2.775-1.43 4.112-0.119 1.609-0.119 3.218 0 4.827 0.241 0.619 0.509 1.215 0.804 1.788-0.015 0.683 0.104 1.338 0.358 1.966 0.020 0.335-0.099 0.603-0.358 0.804 0.691-0.212 1.138 0.056 1.341 0.804 0.259 0.351 0.587 0.589 0.983 0.715 0.060 0 0.119 0 0.179 0-0.026 0.762 0.332 1.239 1.073 1.43 0.060 0 0.119 0 0.179 0 0.045 0.299 0.164 0.567 0.358 0.804 0.425 0.426 0.932 0.694 1.52 0.804 0.412 0.401 0.352 0.699-0.179 0.894-0.119 0.119-0.119 0.238 0 0.358 0.312-0.148 0.61-0.327 0.894-0.536 1.418 0.323 1.805 1.128 1.162 2.413-4.052 0.089-8.104 0.119-12.156 0.089 0-9.832 0-19.665 0-29.497z"></path>
<path fill="#c0fa2c" style="fill: var(--color8, #c0fa2c)" d="M18.86 2.056c-0.129 0.405-0.188 0.822-0.179 1.251 0 0.119 0 0.238 0 0.358-0.389 0.539-0.687 1.135-0.894 1.788-0.067 0.393-0.186 0.75-0.358 1.073 0.024-0.963 0.262-1.857 0.715-2.682 0.146-0.441 0.235-0.918 0.268-1.43 0.127-0.157 0.276-0.277 0.447-0.358z"></path>
<path fill="#48d311" style="fill: var(--color9, #48d311)" d="M18.86 3.307c0-0.119 0.060-0.179 0.179-0.179 1.554-0.139 3.043 0.070 4.469 0.626 0.258 0.067 0.437 0.216 0.536 0.447-0.422-0.031-0.839-0.091-1.251-0.179-0.061-0.15-0.18-0.209-0.358-0.179-1.146-0.318-2.338-0.497-3.575-0.536z"></path>
<path fill="#46d605" style="fill: var(--color10, #46d605)" d="M12.425 1.162c0.178-0.005 0.297 0.084 0.358 0.268-0.163 0.251-0.283 0.52-0.358 0.804-0.221 0.306-0.341 0.664-0.358 1.073-0.544 0.139-1.021 0.378-1.43 0.715-1.403 0.746-2.595 1.759-3.575 3.039-0.060 0-0.119 0-0.179 0-0.047-0.264 0.013-0.503 0.179-0.715 0.385-0.371 0.803-0.669 1.251-0.894 0-0.179 0-0.358 0-0.536 0.188 0.027 0.367-0.003 0.536-0.089 0.738-0.677 1.572-1.214 2.503-1.609 0.149-0.149 0.298-0.298 0.447-0.447 0.177-0.559 0.385-1.095 0.626-1.609z"></path>
<path fill="#88eb10" style="fill: var(--color11, #88eb10)" d="M12.067 3.307c-0.264 0.392-0.621 0.63-1.073 0.715-0.119 0-0.238 0-0.358 0 0.409-0.337 0.886-0.576 1.43-0.715z"></path>
<path fill="#bbf917" style="fill: var(--color12, #bbf917)" d="M12.425 2.235c-0.032 0.486-0.121 0.962-0.268 1.43-0.32 0.309-0.707 0.428-1.162 0.358 0.451-0.085 0.809-0.324 1.073-0.715 0.017-0.409 0.136-0.766 0.358-1.073z"></path>
<path fill="#4bc72c" style="fill: var(--color13, #4bc72c)" d="M14.034 2.413c-0.056 1.182-0.414 2.255-1.073 3.218 0.142-0.666 0.321-1.321 0.536-1.966 0-0.119 0-0.238 0-0.358 0.212-0.281 0.391-0.579 0.536-0.894z"></path>
<path fill="#89fb43" style="fill: var(--color14, #89fb43)" d="M18.682 3.307c0.060 0 0.119 0 0.179 0 1.238 0.039 2.43 0.218 3.575 0.536-0.298 0-0.596 0-0.894 0-0.937-0.17-1.89-0.229-2.86-0.179 0-0.119 0-0.238 0-0.358z"></path>
<path fill="#56ca24" style="fill: var(--color15, #56ca24)" d="M18.682 3.665c0.97-0.050 1.924 0.009 2.86 0.179-0.053 0.34-0.172 0.638-0.358 0.894 0-0.298 0-0.596 0-0.894-0.777-0.030-1.552 0-2.324 0.089-0.236 0.146-0.356 0.354-0.358 0.626-0.010 0.198-0.070 0.377-0.179 0.536-0.129 0.188-0.308 0.307-0.536 0.358 0.207-0.653 0.505-1.249 0.894-1.788z"></path>
<path fill="#b0fb2b" style="fill: var(--color16, #b0fb2b)" d="M22.793 4.022c0.412 0.088 0.829 0.148 1.251 0.179 0.060 0.119 0.119 0.238 0.179 0.358-0.544-0.042-1.020-0.22-1.43-0.536z"></path>
<path fill="#d3fb17" style="fill: var(--color17, #d3fb17)" d="M12.603-0.089c1.311 0 2.622 0 3.933 0-0.701 0.29-1.476 0.469-2.324 0.536 6.537 0.142 13.092 0.201 19.665 0.179 0 0.060 0 0.119 0 0.179-4.887-0.030-9.773 0-14.659 0.089-0.157 0.242-0.217 0.511-0.179 0.804-0.15 0.061-0.21 0.18-0.179 0.358-0.171 0.081-0.32 0.2-0.447 0.358-0.033 0.512-0.122 0.989-0.268 1.43 0-0.358 0-0.715 0-1.073-0.236-0.030-0.445 0.029-0.626 0.179-0.051 0.668-0.319 1.204-0.804 1.609 0-0.119 0-0.238 0-0.358 0.156-0.467 0.275-0.944 0.358-1.43 0.442-0.492 0.621-1.088 0.536-1.788-1.013 0-2.026 0-3.039 0-0.178-0.015-0.327 0.044-0.447 0.179 0.019 0.553-0.189 0.97-0.626 1.251 0 0.298 0 0.596 0 0.894 0 0.119 0 0.238 0 0.358-0.283 0.389-0.551 0.806-0.804 1.251-0.089 0.353-0.118 0.71-0.089 1.073 0 0.119-0.060 0.179-0.179 0.179-0.119 0.060-0.238 0.119-0.358 0.179 0.007-0.194 0.067-0.372 0.179-0.536-0.148-0.158-0.326-0.218-0.536-0.179-0.033-0.369-0.123-0.727-0.268-1.073-0.181-0.15-0.389-0.209-0.626-0.179 0.060-0.119 0.119-0.238 0.179-0.358 0.455 0.071 0.842-0.048 1.162-0.358 0.147-0.468 0.236-0.945 0.268-1.43 0.463-0.275 0.642-0.692 0.536-1.251-0.179 0-0.358 0-0.536 0-4.171 0-8.343 0-12.514 0 0-0.119 0-0.238 0-0.358 4.291-0.030 8.581 0 12.871 0.089 0.262 0.114 0.501 0.263 0.715 0.447 0.141-0.133 0.26-0.282 0.358-0.447-0.418-0.293-0.835-0.562-1.251-0.804z"></path>
<path fill="#e0f606" style="fill: var(--color18, #e0f606)" d="M13.497 2.413c-0.215 0.643-0.453 1.299-0.715 1.966-0.328 0.439-0.626 0.439-0.894 0 0.175-0.265 0.384-0.503 0.626-0.715 0.105-0.876 0.433-1.65 0.983-2.324 0.182 0.35 0.182 0.708 0 1.073z"></path>
<path fill="#aff73a" style="fill: var(--color19, #aff73a)" d="M14.57 0.983c-0.060 0.119-0.119 0.238-0.179 0.358-0.14 0.335-0.26 0.692-0.358 1.073-0.145 0.315-0.324 0.613-0.536 0.894 0-0.298 0-0.596 0-0.894 0.436-0.281 0.645-0.699 0.626-1.251 0.12-0.135 0.269-0.194 0.447-0.179z"></path>
<path fill="#43c92f" style="fill: var(--color20, #43c92f)" d="M17.251 1.877c-0.023 0.307-0.083 0.605-0.179 0.894-0.083 0.486-0.202 0.963-0.358 1.43-0.119 0.119-0.238 0.238-0.358 0.358-0.010-0.426 0.049-0.843 0.179-1.251 0.206-0.522 0.445-0.998 0.715-1.43z"></path>
<path fill="#6bd82b" style="fill: var(--color21, #6bd82b)" d="M14.57 0.983c1.013 0 2.026 0 3.039 0 0.085 0.7-0.094 1.296-0.536 1.788 0.096-0.289 0.156-0.587 0.179-0.894 0.167-0.191 0.227-0.429 0.179-0.715-1.024-0.043-2.037 0.017-3.039 0.179 0.060-0.119 0.119-0.238 0.179-0.358z"></path>
<path fill="#adf438" style="fill: var(--color22, #adf438)" d="M13.497 3.665c-0.215 0.645-0.394 1.301-0.536 1.966-0.119 0.119-0.238 0.238-0.358 0.358-0.029-0.362 0.001-0.72 0.089-1.073 0.254-0.446 0.522-0.863 0.804-1.251z"></path>
<path fill="#b2f738" style="fill: var(--color23, #b2f738)" d="M21.542 3.844c0.298 0 0.596 0 0.894 0 0.177-0.031 0.296 0.029 0.358 0.179-0.358 0-0.715 0-1.073 0-0.177 0.594-0.356 1.19-0.536 1.788-0.264 0.677-0.473 1.392-0.626 2.145-0.354 0.442-0.622 0.919-0.804 1.43-0.003-0.737 0.206-1.393 0.626-1.966 0.186-0.924 0.454-1.818 0.804-2.682 0.185-0.256 0.305-0.554 0.358-0.894z"></path>
<path fill="#b7fb1e" style="fill: var(--color24, #b7fb1e)" d="M10.637 4.022c0.119 0 0.238 0 0.358 0-0.060 0.119-0.119 0.238-0.179 0.358-0.476 0.386-1.012 0.654-1.609 0.804-0.751 0.899-1.525 1.763-2.324 2.592 0.060-0.238 0.119-0.477 0.179-0.715 0.981-1.28 2.173-2.293 3.575-3.039z"></path>
<path fill="#48da0d" style="fill: var(--color25, #48da0d)" d="M24.045 4.201c0.434 0.004 0.851 0.093 1.251 0.268 0.894 0.536 1.788 1.073 2.682 1.609 0.096 0.636 0.334 1.202 0.715 1.698-0.748-0.956-1.641-1.76-2.682-2.413-0.533-0.415-1.129-0.684-1.788-0.804-0.060-0.119-0.119-0.238-0.179-0.358z"></path>
<path fill="#c4fb2b" style="fill: var(--color26, #c4fb2b)" d="M12.425 6.168c-0.092 0.835-0.331 1.609-0.715 2.324-0.055-0.751 0.064-1.466 0.358-2.145 0.119-0.060 0.238-0.119 0.358-0.179z"></path>
<path fill="#97f118" style="fill: var(--color27, #97f118)" d="M6.883 7.061c0.060 0 0.119 0 0.179 0-0.060 0.238-0.119 0.477-0.179 0.715-0.174 0.293-0.412 0.531-0.715 0.715 0.236-0.472 0.474-0.949 0.715-1.43z"></path>
<path fill="#ddf70f" style="fill: var(--color28, #ddf70f)" d="M18.145 3.844c-0.453 0.825-0.691 1.719-0.715 2.682-0.461 0.983-0.878 1.996-1.251 3.039-0.298 0-0.596 0-0.894 0-0.167-0.191-0.227-0.429-0.179-0.715 0-0.060 0-0.119 0-0.179 0.499-0.796 0.946-1.631 1.341-2.503 0.065-0.544 0.154-1.080 0.268-1.609 0.485-0.405 0.754-0.941 0.804-1.609 0.181-0.15 0.389-0.209 0.626-0.179 0 0.358 0 0.715 0 1.073z"></path>
<path fill="#47c923" style="fill: var(--color29, #47c923)" d="M12.961 5.631c-0.179 1.193-0.536 2.325-1.073 3.397-0.082 0.143-0.201 0.202-0.358 0.179 0.060-0.238 0.119-0.477 0.179-0.715 0.384-0.715 0.623-1.489 0.715-2.324 0.119 0 0.179-0.060 0.179-0.179 0.119-0.119 0.238-0.238 0.358-0.358z"></path>
<path fill="#3dc82f" style="fill: var(--color30, #3dc82f)" d="M21.184 4.737c-0.35 0.864-0.618 1.758-0.804 2.682-0.42 0.574-0.629 1.229-0.626 1.966-0.312 0.274-0.491 0.632-0.536 1.073-0.119 0.358-0.238 0.715-0.358 1.073-0.255 0.36-0.374 0.777-0.358 1.251-0.271 0.665-0.569 1.321-0.894 1.966 0.083-0.834 0.172-1.668 0.268-2.503 0.281-0.265 0.52-0.563 0.715-0.894 0.381-1.497 0.918-2.927 1.609-4.29 0.251-1.020 0.519-2.033 0.804-3.039-0.658-0.030-1.314 0-1.966 0.089-0.156 0.187-0.335 0.336-0.536 0.447 0.002-0.271 0.121-0.48 0.358-0.626 0.772-0.089 1.547-0.119 2.324-0.089 0 0.298 0 0.596 0 0.894z"></path>
<path fill="#abfb34" style="fill: var(--color31, #abfb34)" d="M11.352 8.492c0.119 0 0.238 0 0.358 0-0.060 0.238-0.119 0.477-0.179 0.715 0 0.119-0.060 0.179-0.179 0.179 0-0.298 0-0.596 0-0.894z"></path>
<path fill="#ccfb26" style="fill: var(--color32, #ccfb26)" d="M11.352 8.492c0 0.298 0 0.596 0 0.894-0.023 0.307-0.083 0.605-0.179 0.894-0.318 0.266-0.437 0.624-0.358 1.073-0.060 0-0.119 0-0.179 0s-0.119 0-0.179 0c0.102-1.032 0.4-1.986 0.894-2.86z"></path>
<path fill="#bdfb1f" style="fill: var(--color33, #bdfb1f)" d="M24.223 4.559c0.659 0.121 1.255 0.389 1.788 0.804 1.040 0.653 1.934 1.458 2.682 2.413 0.594 1.029 1.22 2.042 1.877 3.039 0.145 0.346 0.235 0.704 0.268 1.073 0.005 0.611 0.184 1.147 0.536 1.609 0 0.060 0 0.119 0 0.179 0 0.179 0 0.358 0 0.536-0.513-0.798-0.782-1.692-0.804-2.682-0.616-0.814-1.093-1.708-1.43-2.682-0.879-1.082-1.863-2.065-2.95-2.95-0.379-0.428-0.855-0.666-1.43-0.715-0.155-0.243-0.333-0.452-0.536-0.626z"></path>
<path fill="#93eb36" style="fill: var(--color34, #93eb36)" d="M19.754 9.385c0 0.119 0 0.238 0 0.358-0.115 0.282-0.294 0.52-0.536 0.715 0.046-0.441 0.224-0.799 0.536-1.073z"></path>
<path fill="#b1fa34" style="fill: var(--color35, #b1fa34)" d="M24.223 9.743c0.109 0.159 0.169 0.338 0.179 0.536-0.159-0.109-0.338-0.169-0.536-0.179-0.741-0.205-1.516-0.235-2.324-0.089-0.336 0.38-0.514 0.827-0.536 1.341-0.344 0.41-0.582 0.887-0.715 1.43-0.155-1.174 0.203-2.157 1.073-2.95 0.952-0.089 1.905-0.119 2.86-0.089z"></path>
<path fill="#4cc924" style="fill: var(--color36, #4cc924)" d="M23.866 10.101c-0.718-0.030-1.433 0-2.145 0.089-0.204 0.434-0.443 0.821-0.715 1.162 0.022-0.514 0.201-0.961 0.536-1.341 0.808-0.145 1.583-0.116 2.324 0.089z"></path>
<path fill="#64ce25" style="fill: var(--color37, #64ce25)" d="M27.441 10.101c0 0.060 0 0.119 0 0.179-0.686-0.086-1.282 0.093-1.788 0.536 0.007-0.194 0.067-0.372 0.179-0.536 0.523-0.176 1.060-0.236 1.609-0.179z"></path>
<path fill="#bdfb1d" style="fill: var(--color38, #bdfb1d)" d="M5.631 9.564c0.002 0.706-0.236 1.302-0.715 1.788-0.028-0.246 0.002-0.484 0.089-0.715 0.132-0.427 0.341-0.785 0.626-1.073z"></path>
<path fill="#a8f42b" style="fill: var(--color39, #a8f42b)" d="M27.441 10.279c0-0.060 0-0.119 0-0.179 0.238 0 0.477 0 0.715 0 0.197 0.198 0.316 0.436 0.358 0.715-0.278-0.337-0.635-0.516-1.073-0.536z"></path>
<path fill="#d0f922" style="fill: var(--color40, #d0f922)" d="M27.441 10.101c-0.549-0.057-1.085 0.003-1.609 0.179-0.112 0.164-0.172 0.343-0.179 0.536 0 0.119 0 0.238 0 0.358-0.179 0.358-0.358 0.715-0.536 1.073 0.029-0.48-0.001-0.957-0.089-1.43-0.042 0.289-0.191 0.468-0.447 0.536 0.053-0.4-0.007-0.757-0.179-1.073-0.010-0.198-0.070-0.377-0.179-0.536 0.446 0.041 0.744 0.279 0.894 0.715 0.158-0.148 0.218-0.326 0.179-0.536 0.472-0.010 0.919-0.129 1.341-0.358 0.347 0.082 0.615 0.261 0.804 0.536z"></path>
<path fill="#7fe72c" style="fill: var(--color41, #7fe72c)" d="M11.173 10.279c-0.116 0.346-0.176 0.704-0.179 1.073-0.060 0-0.119 0-0.179 0-0.080-0.449 0.039-0.806 0.358-1.073z"></path>
<path fill="#cffb23" style="fill: var(--color42, #cffb23)" d="M28.156 10.101c0.238 0 0.477 0 0.715 0 0.309 0.745 0.398 1.52 0.268 2.324-0.318 0.758-0.646 1.474-0.983 2.145 0-0.119 0-0.238 0-0.358 0.060-0.238 0.119-0.477 0.179-0.715 0-0.119 0-0.238 0-0.358 0.119 0 0.179-0.060 0.179-0.179 0.336-0.6 0.425-1.255 0.268-1.966-0.068-0.099-0.158-0.159-0.268-0.179-0.042-0.279-0.161-0.518-0.358-0.715z"></path>
<path fill="#4acb2a" style="fill: var(--color43, #4acb2a)" d="M23.866 10.101c0.198 0.010 0.377 0.070 0.536 0.179-0.062 0.843-0.181 1.677-0.358 2.503-0.228 0.050-0.407 0.17-0.536 0.358-0.042-0.487 0.107-0.904 0.447-1.251 0.134-0.612 0.104-1.208-0.089-1.788z"></path>
<path fill="#d1f823" style="fill: var(--color44, #d1f823)" d="M19.754 9.743c0.019 0.463-0.101 0.88-0.358 1.251 0.205 0.722-0.033 1.259-0.715 1.609 0.116-0.346 0.176-0.704 0.179-1.073 0.119-0.358 0.238-0.715 0.358-1.073 0.243-0.195 0.421-0.433 0.536-0.715z"></path>
<path fill="#45c723" style="fill: var(--color45, #45c723)" d="M27.441 10.279c0.437 0.021 0.795 0.199 1.073 0.536 0.2 0.71 0.2 1.425 0 2.145 0 0.119-0.060 0.179-0.179 0.179 0.030-0.718-0-1.433-0.089-2.145-0.298-0.22-0.566-0.459-0.804-0.715z"></path>
<path fill="#adf63c" style="fill: var(--color46, #adf63c)" d="M18.86 11.531c-0.003 0.369-0.063 0.727-0.179 1.073 0 0.119-0.060 0.179-0.179 0.179-0.016-0.474 0.103-0.891 0.358-1.251z"></path>
<path fill="#a9f62d" style="fill: var(--color47, #a9f62d)" d="M28.514 10.816c0.11 0.020 0.2 0.079 0.268 0.179 0.157 0.711 0.068 1.367-0.268 1.966 0.2-0.72 0.2-1.435 0-2.145z"></path>
<path fill="#4cd706" style="fill: var(--color48, #4cd706)" d="M28.693 7.777c0.389 0.126 0.747 0.185 1.073 0.179-0.166 0.227-0.196 0.465-0.089 0.715 1.836 2.817 2.551 5.916 2.145 9.296-0.067 0.356-0.216 0.654-0.447 0.894 0.135-0.887 0.194-1.781 0.179-2.682 0.118-0.292 0.178-0.62 0.179-0.983 0.025-0.563-0.094-1.070-0.358-1.52 0-0.060 0-0.119 0-0.179-0.005-0.611-0.184-1.147-0.536-1.609-0.033-0.369-0.123-0.727-0.268-1.073-0.657-0.997-1.283-2.010-1.877-3.039z"></path>
<path fill="#39c62e" style="fill: var(--color49, #39c62e)" d="M10.637 11.352c0.060 0 0.119 0 0.179 0s0.119 0 0.179 0c0.015 0.563-0.164 1.040-0.536 1.43 0.060-0.477 0.119-0.953 0.179-1.43z"></path>
<path fill="#dbf813" style="fill: var(--color50, #dbf813)" d="M21.184 5.81c-0.044 0.447-0.104 0.894-0.179 1.341 0.058 0.324 0.178 0.622 0.358 0.894-0.338 0.518-0.427 1.084-0.268 1.698 1.060-0.237 2.103-0.237 3.128 0-0.955-0.030-1.909 0-2.86 0.089-0.87 0.793-1.228 1.776-1.073 2.95-0.478 0.338-0.656 0.815-0.536 1.43-0.385 0.379-0.564 0.855-0.536 1.43-0.281 0.286-0.401 0.644-0.358 1.073 0 0.119 0 0.238 0 0.358-0.060 0-0.119 0-0.179 0-0.339 0.393-0.518 0.87-0.536 1.43-0.427 0.57-0.666 1.226-0.715 1.966-0.179 0-0.358 0-0.536 0 0.040 0.815-0.079 1.59-0.358 2.324-0.060 0-0.119 0-0.179 0 0.030-0.718-0-1.433-0.089-2.145-0.253 0.487-0.343 0.964-0.268 1.43-0.144-0.055-0.264-0.144-0.358-0.268-1.256-0.030-2.507-0.12-3.754-0.268-0.493-0.426-0.433-0.724 0.179-0.894-0.048 0.286 0.012 0.524 0.179 0.715 1.013 0 2.026 0 3.039 0 0.349-0.217 0.617-0.515 0.804-0.894 0.361-0.743 0.57-1.517 0.626-2.324 0-0.119 0-0.238 0-0.358 0.318-0.266 0.437-0.624 0.358-1.073 0-0.060 0-0.119 0-0.179 0.278-0.49 0.605-0.967 0.983-1.43 0.207-0.766 0.356-1.54 0.447-2.324 0.119 0 0.179-0.060 0.179-0.179 0.682-0.35 0.921-0.887 0.715-1.609 0.257-0.371 0.376-0.788 0.358-1.251 0-0.119 0-0.238 0-0.358 0.183-0.512 0.451-0.988 0.804-1.43 0.153-0.754 0.361-1.469 0.626-2.145z"></path>
<path fill="#dff70a" style="fill: var(--color51, #dff70a)" d="M22.793 4.022c0.41 0.316 0.886 0.495 1.43 0.536 0.203 0.174 0.382 0.383 0.536 0.626 0.575 0.049 1.051 0.287 1.43 0.715 1.087 0.885 2.070 1.868 2.95 2.95 0.338 0.973 0.814 1.867 1.43 2.682 0.023 0.989 0.291 1.883 0.804 2.682 0.165 0.637 0.225 1.293 0.179 1.966-0.248 1.305-0.517 2.616-0.804 3.933-0.179 0.179-0.358 0.358-0.536 0.536-0.334 0.786-0.662 1.561-0.983 2.324-0.168 0.406-0.407 0.764-0.715 1.073-0.725 0.308-1.202 0.844-1.43 1.609-0.578 0.198-1.174 0.347-1.788 0.447-0.124 0.191-0.213 0.399-0.268 0.626-0.295 0.161-0.564 0.34-0.804 0.536-0.179 0-0.358 0-0.536 0 0.172-0.523 0.291-1.059 0.358-1.609 0.372-0.467 0.61-1.003 0.715-1.609 0.467-0.926 0.914-1.879 1.341-2.86 0.185-0.582 0.304-1.177 0.358-1.788 0.238-0.119 0.417-0.298 0.536-0.536 0.204-0.586 0.353-1.182 0.447-1.788 0.109-0.159 0.169-0.338 0.179-0.536 0.171-0.081 0.32-0.2 0.447-0.358 0.089-0.413 0.119-0.83 0.089-1.251 0-0.119 0-0.238 0-0.358 0.337-0.672 0.665-1.387 0.983-2.145 0.13-0.804 0.041-1.579-0.268-2.324-0.238 0-0.477 0-0.715 0s-0.477 0-0.715 0c-0.189-0.276-0.457-0.454-0.804-0.536-0.422 0.229-0.869 0.348-1.341 0.358 0.039 0.21-0.020 0.389-0.179 0.536-0.149-0.436-0.447-0.675-0.894-0.715-1.025-0.237-2.068-0.237-3.128 0-0.159-0.614-0.070-1.18 0.268-1.698-0.18-0.272-0.299-0.57-0.358-0.894 0.075-0.447 0.134-0.893 0.179-1.341 0.18-0.598 0.359-1.194 0.536-1.788 0.358 0 0.715 0 1.073 0z"></path>
<path fill="#a4f921" style="fill: var(--color52, #a4f921)" d="M30.838 11.888c0.353 0.462 0.531 0.998 0.536 1.609-0.353-0.462-0.531-0.998-0.536-1.609z"></path>
<path fill="#c4fd21" style="fill: var(--color53, #c4fd21)" d="M4.916 11.352c0.042 0.699-0.107 1.355-0.447 1.966-0.089 1.31-0.119 2.621-0.089 3.933-0.177-1.218-0.237-2.469-0.179-3.754-0.006-0.815 0.232-1.53 0.715-2.145z"></path>
<path fill="#43c82b" style="fill: var(--color54, #43c82b)" d="M21.006 11.352c0 0.238 0 0.477 0 0.715-0.171 0.322-0.291 0.68-0.358 1.073-0.195 0.331-0.434 0.629-0.715 0.894 0.119-0.417 0.238-0.834 0.358-1.251 0.133-0.544 0.372-1.020 0.715-1.43z"></path>
<path fill="#7be231" style="fill: var(--color55, #7be231)" d="M10.458 11.352c0.060 0 0.119 0 0.179 0-0.060 0.477-0.119 0.953-0.179 1.43-0.101 0.343-0.28 0.641-0.536 0.894 0-0.119 0-0.238 0-0.358 0.215-0.645 0.394-1.301 0.536-1.966z"></path>
<path fill="#b7fc31" style="fill: var(--color56, #b7fc31)" d="M20.291 12.782c-0.119 0.417-0.238 0.834-0.358 1.251 0 0.119-0.060 0.179-0.179 0.179-0.12-0.615 0.059-1.092 0.536-1.43z"></path>
<path fill="#1cd046" style="fill: var(--color57, #1cd046)" d="M17.251 1.877c-0.27 0.432-0.509 0.909-0.715 1.43-0.129 0.408-0.189 0.825-0.179 1.251 0 0.060 0 0.119 0 0.179-0.597 0.771-0.895 1.665-0.894 2.682-0.416 0.206-0.624 0.564-0.626 1.073-0.030 0.238-0.060 0.477-0.089 0.715 0.015 0.328 0.134 0.566 0.358 0.715 0.441 0.203 0.918 0.233 1.43 0.089 0.157-0.242 0.217-0.511 0.179-0.804 0.178 0.015 0.327-0.044 0.447-0.179 0.332-1.329 0.72-2.64 1.162-3.933 0.109-0.159 0.169-0.338 0.179-0.536 0.201-0.111 0.38-0.26 0.536-0.447 0.653-0.089 1.308-0.119 1.966-0.089-0.285 1.006-0.554 2.019-0.804 3.039-0.691 1.363-1.227 2.793-1.609 4.29-0.195 0.331-0.434 0.629-0.715 0.894-0.096 0.835-0.185 1.669-0.268 2.503-0.112 0.518-0.291 0.995-0.536 1.43-0.231 0.1-0.38 0.278-0.447 0.536-0.065 0.544-0.154 1.081-0.268 1.609 0 0.060 0 0.119 0 0.179-0.346 0.204-0.614 0.502-0.804 0.894 0.051 1.16-0.485 1.696-1.609 1.609-0.467-0.006-0.854-0.125-1.162-0.358 0.119-0.715 0.238-1.43 0.358-2.145 0.505-0.91 0.922-1.864 1.251-2.86 0.582-0.975 0.88-2.048 0.894-3.218 0-0.179 0-0.358 0-0.536-1.578-0.196-2.293 0.519-2.145 2.145 0 0.060 0 0.119 0 0.179-0.060 0-0.119 0-0.179 0-0.231 0.141-0.44 0.32-0.626 0.536-0.442 1.357-0.83 2.727-1.162 4.112-0.178-0.005-0.297 0.084-0.358 0.268-0.26 0.608-0.439 1.234-0.536 1.877-0.775 0-1.549 0-2.324 0 0.098-0.591 0.158-1.187 0.179-1.788 0.179 0 0.358 0 0.536 0 0.001-0.721 0.060-1.436 0.179-2.145 0.494-0.411 0.822-0.948 0.983-1.609 0.089-0.533 0.119-1.069 0.089-1.609 0-0.060 0-0.119 0-0.179 0.257-0.253 0.435-0.551 0.536-0.894 0.373-0.391 0.551-0.867 0.536-1.43 0.003-0.369 0.063-0.727 0.179-1.073 0.096-0.289 0.156-0.587 0.179-0.894 0.119 0 0.179-0.060 0.179-0.179 0.157 0.023 0.276-0.036 0.358-0.179 0.537-1.071 0.894-2.204 1.073-3.397 0.659-0.963 1.017-2.036 1.073-3.218 0.098-0.38 0.217-0.738 0.358-1.073 1.002-0.162 2.015-0.222 3.039-0.179 0.048 0.286-0.012 0.524-0.179 0.715z"></path>
<path fill="#dff50a" style="fill: var(--color58, #dff50a)" d="M14.212 12.425c0.194 0.021 0.313 0.141 0.358 0.358-0.248 0.493-0.516 0.97-0.804 1.43-0.031-0.475-0.001-0.952 0.089-1.43 0.060-0.179 0.179-0.298 0.358-0.358z"></path>
<path fill="#a8f93f" style="fill: var(--color59, #a8f93f)" d="M15.106 12.425c-0.085 0.641-0.264 1.237-0.536 1.788 0.079-0.653 0.139-1.309 0.179-1.966-0.231-0.042-0.41 0.017-0.536 0.179-0.179 0.060-0.298 0.179-0.358 0.358-0.060 0-0.119 0-0.179 0 0.082-0.498 0.38-0.736 0.894-0.715 0.273 0.025 0.452 0.144 0.536 0.358z"></path>
<path fill="#61d836" style="fill: var(--color60, #61d836)" d="M15.285 12.425c-0.060 0-0.119 0-0.179 0-0.084-0.213-0.263-0.333-0.536-0.358-0.514-0.021-0.812 0.217-0.894 0.715-0.152 0.427-0.33 0.844-0.536 1.251-0.147-1.626 0.568-2.341 2.145-2.145 0 0.179 0 0.358 0 0.536z"></path>
<path fill="#4ccc20" style="fill: var(--color61, #4ccc20)" d="M16.715 9.207c0.038 0.294-0.021 0.562-0.179 0.804-0.513 0.143-0.989 0.113-1.43-0.089 0.458 0.054 0.875-0.006 1.251-0.179-0.013-0.273 0.106-0.452 0.358-0.536z"></path>
<path fill="#a9fd3c" style="fill: var(--color62, #a9fd3c)" d="M15.106 8.849c-0.048 0.286 0.012 0.524 0.179 0.715 0.315 0.172 0.673 0.231 1.073 0.179-0.377 0.173-0.794 0.233-1.251 0.179-0.222-0.377-0.222-0.735 0-1.073z"></path>
<path fill="#bffa29" style="fill: var(--color63, #bffa29)" d="M17.43 6.525c-0.194 0.91-0.432 1.804-0.715 2.682-0.251 0.085-0.371 0.263-0.358 0.536-0.4 0.053-0.757-0.007-1.073-0.179 0.298 0 0.596 0 0.894 0 0.373-1.043 0.791-2.056 1.251-3.039z"></path>
<path fill="#57d22f" style="fill: var(--color64, #57d22f)" d="M15.464 7.419c-0.119 0.417-0.238 0.834-0.358 1.251 0 0.060 0 0.119 0 0.179-0.222 0.338-0.222 0.695 0 1.073-0.223-0.149-0.342-0.387-0.358-0.715 0.030-0.238 0.060-0.477 0.089-0.715 0.001-0.509 0.21-0.866 0.626-1.073z"></path>
<path fill="#3ec52c" style="fill: var(--color65, #3ec52c)" d="M18.324 5.095c-0.442 1.293-0.83 2.604-1.162 3.933-0.12 0.134-0.269 0.194-0.447 0.179 0.283-0.877 0.521-1.771 0.715-2.682 0.171-0.322 0.291-0.68 0.358-1.073 0.228-0.050 0.407-0.17 0.536-0.358z"></path>
<path fill="#b4f92f" style="fill: var(--color66, #b4f92f)" d="M16.715 4.201c0 0.119 0 0.238 0 0.358-0.114 0.528-0.203 1.065-0.268 1.609-0.395 0.872-0.842 1.707-1.341 2.503 0.119-0.417 0.238-0.834 0.358-1.251 0.2-0.439 0.349-0.915 0.447-1.43 0.382-0.326 0.531-0.743 0.447-1.251 0-0.060 0-0.119 0-0.179 0.119-0.119 0.238-0.238 0.358-0.358z"></path>
<path fill="#4bc922" style="fill: var(--color67, #4bc922)" d="M16.358 4.737c0.084 0.509-0.065 0.926-0.447 1.251-0.098 0.515-0.247 0.991-0.447 1.43-0.001-1.017 0.297-1.91 0.894-2.682z"></path>
<path fill="#d4fa20" style="fill: var(--color68, #d4fa20)" d="M14.212 12.425c0.127-0.162 0.306-0.221 0.536-0.179-0.040 0.658-0.1 1.313-0.179 1.966-0.151 0.209-0.27 0.448-0.358 0.715-0.115 0.282-0.294 0.52-0.536 0.715 0.096-0.289 0.156-0.587 0.179-0.894-0.179 0-0.358 0-0.536 0 0.018 0.367-0.102 0.665-0.358 0.894 0.060-0.477 0.119-0.953 0.179-1.43 0-0.060 0-0.119 0-0.179 0.206-0.407 0.385-0.825 0.536-1.251 0.060 0 0.119 0 0.179 0-0.091 0.478-0.121 0.955-0.089 1.43 0.288-0.46 0.556-0.937 0.804-1.43-0.044-0.217-0.163-0.336-0.358-0.358z"></path>
<path fill="#4fcf2a" style="fill: var(--color69, #4fcf2a)" d="M28.335 13.497c-0.060 0.238-0.119 0.477-0.179 0.715-0.255 0.36-0.374 0.777-0.358 1.251-0.131 0.216-0.191 0.454-0.179 0.715-0.060 0-0.119 0-0.179 0 0-0.179 0-0.358 0-0.536-0.046-0.878 0.252-1.593 0.894-2.145z"></path>
<path fill="#52d706" style="fill: var(--color70, #52d706)" d="M6.883 7.061c-0.241 0.481-0.479 0.958-0.715 1.43-0.177 0.35-0.356 0.707-0.536 1.073-0.285 0.288-0.494 0.646-0.626 1.073-0.088 0.231-0.117 0.47-0.089 0.715-0.483 0.615-0.721 1.331-0.715 2.145-0.207 1.339-0.236 2.709-0.089 4.112 0.050 0.529 0.199 1.005 0.447 1.43 0 0.298 0 0.596 0 0.894-0.295-0.573-0.563-1.168-0.804-1.788-0.119-1.609-0.119-3.218 0-4.827 0.559-1.337 1.036-2.707 1.43-4.112 0.179-0.119 0.358-0.238 0.536-0.358 0.093-0.651 0.302-1.247 0.626-1.788 0.179 0 0.358 0 0.536 0z"></path>
<path fill="#3ac42a" style="fill: var(--color71, #3ac42a)" d="M15.106 12.425c0.060 0 0.119 0 0.179 0-0.013 1.17-0.311 2.243-0.894 3.218 0.060-0.477 0.119-0.953 0.179-1.43 0.273-0.551 0.451-1.147 0.536-1.788z"></path>
<path fill="#a1f32f" style="fill: var(--color72, #a1f32f)" d="M28.156 14.212c0 0.119 0 0.238 0 0.358s0 0.238 0 0.358c-0.119 0.179-0.238 0.358-0.358 0.536-0.016-0.474 0.103-0.891 0.358-1.251z"></path>
<path fill="#94f122" style="fill: var(--color73, #94f122)" d="M31.374 13.676c0.263 0.45 0.383 0.956 0.358 1.52-0.001 0.363-0.061 0.691-0.179 0.983 0.046-0.674-0.014-1.329-0.179-1.966 0-0.179 0-0.358 0-0.536z"></path>
<path fill="#b2fe29" style="fill: var(--color74, #b2fe29)" d="M4.201 13.497c-0.058 1.285 0.002 2.536 0.179 3.754-0.009 0.43 0.050 0.847 0.179 1.251 0 0.179 0 0.358 0 0.536-0.248-0.425-0.397-0.902-0.447-1.43-0.147-1.402-0.117-2.773 0.089-4.112z"></path>
<path fill="#b8f931" style="fill: var(--color75, #b8f931)" d="M18.503 12.782c-0.091 0.784-0.24 1.558-0.447 2.324-0.378 0.464-0.706 0.94-0.983 1.43 0-0.119 0-0.238 0-0.358 0.245-0.435 0.424-0.912 0.536-1.43 0.325-0.646 0.623-1.301 0.894-1.966z"></path>
<path fill="#9ff43b" style="fill: var(--color76, #9ff43b)" d="M19.754 14.212c-0.112 0.518-0.291 0.995-0.536 1.43-0.028-0.575 0.151-1.052 0.536-1.43z"></path>
<path fill="#35ca2c" style="fill: var(--color77, #35ca2c)" d="M9.922 13.855c0.029 0.54-0 1.076-0.089 1.609-0.161 0.661-0.489 1.198-0.983 1.609 0.068-0.433 0.187-0.85 0.358-1.251 0.353-0.462 0.531-0.998 0.536-1.609-0.031-0.177 0.029-0.296 0.179-0.358z"></path>
<path fill="#cbfd22" style="fill: var(--color78, #cbfd22)" d="M28.156 14.927c0.029 0.421-0.001 0.838-0.089 1.251-0.127 0.157-0.276 0.277-0.447 0.358 0-0.119 0-0.238 0-0.358-0.012-0.261 0.048-0.499 0.179-0.715 0.119-0.179 0.238-0.358 0.358-0.536z"></path>
<path fill="#70dd2a" style="fill: var(--color79, #70dd2a)" d="M9.743 14.212c-0.005 0.611-0.184 1.147-0.536 1.609 0-0.119 0-0.238 0-0.358 0.137-0.45 0.315-0.867 0.536-1.251z"></path>
<path fill="#1cd045" style="fill: var(--color80, #1cd045)" d="M23.866 10.101c0.193 0.58 0.223 1.176 0.089 1.788-0.34 0.347-0.489 0.764-0.447 1.251-0.231 0.1-0.38 0.278-0.447 0.536-0.338 1.145-0.665 2.278-0.983 3.397 0 0.119 0 0.238 0 0.358-0.221 0.306-0.341 0.664-0.358 1.073 0 0.119 0 0.238 0 0.358-0.259 0.113-0.378 0.322-0.358 0.626 0.033 0.246 0.152 0.395 0.358 0.447 0.179 0 0.358 0 0.536 0 0.228-0.050 0.407-0.17 0.536-0.358 0.688-1.074 1.105-2.266 1.251-3.575 0.914-1.456 1.45-3.065 1.609-4.827 0-0.119 0-0.238 0-0.358 0.506-0.443 1.102-0.622 1.788-0.536 0.238 0.256 0.506 0.495 0.804 0.715 0.089 0.713 0.119 1.428 0.089 2.145 0 0.119 0 0.238 0 0.358-0.642 0.552-0.94 1.267-0.894 2.145-0.221 0.377-0.489 0.735-0.804 1.073-0.301 1.058-0.57 2.131-0.804 3.218-0.238 0-0.358 0.119-0.358 0.358-0.276 0.143-0.573 0.203-0.894 0.179 0.040-0.636-0.109-0.695-0.447-0.179-0.169-0.072-0.288-0.192-0.358-0.358-0.132 0.204-0.282 0.204-0.447 0-0.138 0.422-0.287 0.84-0.447 1.251-0.338-0.2-0.487-0.498-0.447-0.894-0.707-0.088-1.363 0.031-1.966 0.358-0.119-0.298-0.238-0.596-0.358-0.894-0.202 0.963-0.44 1.916-0.715 2.86-0.328 0.134-0.626 0.313-0.894 0.536 0.16 0.030 0.339 0.090 0.536 0.179 0.261 0.697 0.172 1.353-0.268 1.966-0.060-0.060-0.119-0.119-0.179-0.179-0.132 0.223-0.102 0.402 0.089 0.536-0.176 0.583-0.295 1.179-0.358 1.788-0.529 0.913-0.947 1.896-1.251 2.95-0.892 0.089-1.786 0.119-2.682 0.089 0.152-0.785 0.33-1.56 0.536-2.324 0-0.060 0-0.119 0-0.179 0.341-0.528 0.52-1.124 0.536-1.788 0.119-0.179 0.238-0.358 0.358-0.536 0.178 0.005 0.297-0.084 0.358-0.268 0.544-1.581 1.11-3.16 1.698-4.737 0.147-0.468 0.236-0.945 0.268-1.43 0.456-0.625 0.694-1.34 0.715-2.145 0-0.119 0-0.238 0-0.358 0.281-0.286 0.401-0.644 0.358-1.073 0.245-0.435 0.424-0.912 0.536-1.43 0.119 0 0.179-0.060 0.179-0.179 0.281-0.265 0.52-0.563 0.715-0.894 0 0.179 0 0.358 0 0.536 0.179 0 0.358 0 0.536 0 0.031 0.589-0.088 0.649-0.358 0.179-0.046 0.371-0.136 0.788-0.268 1.251-0.187-0.201-0.306-0.439-0.358-0.715-0.276 0.305-0.425 0.663-0.447 1.073 0.088 0.817 0.446 0.936 1.073 0.358 0.296 0.935 0.177 1.799-0.358 2.592 0.373 0.592 0.701 0.562 0.983-0.089 0.168-0.592 0.317-1.188 0.447-1.788-0.152-0.645-0.331-1.301-0.536-1.966 0.037-0.105 0.097-0.194 0.179-0.268 0.353-0.089 0.71-0.118 1.073-0.089 0.033-0.436-0.087-0.823-0.358-1.162 0.17-0.546 0.23-1.113 0.179-1.698-0.238 0-0.477 0-0.715 0 0.072 0.634-0.017 1.23-0.268 1.788-0.060-0.417-0.119-0.834-0.179-1.251-0.060 0.119-0.119 0.238-0.179 0.358-0.071-0.041-0.101-0.1-0.089-0.179 0-0.238 0-0.477 0-0.715 0.272-0.341 0.511-0.728 0.715-1.162 0.713-0.089 1.428-0.119 2.145-0.089z"></path>
<path fill="#41ca30" style="fill: var(--color81, #41ca30)" d="M25.654 11.173c-0.159 1.762-0.695 3.371-1.609 4.827 0-0.238 0-0.477 0-0.715 0.119-0.358 0.238-0.715 0.358-1.073 0.305-0.617 0.544-1.272 0.715-1.966 0.179-0.358 0.358-0.715 0.536-1.073z"></path>
<path fill="#40c926" style="fill: var(--color82, #40c926)" d="M23.508 13.14c-0.282 0.867-0.52 1.761-0.715 2.682-0.312 0.274-0.491 0.632-0.536 1.073 0 0.119-0.060 0.179-0.179 0.179 0.318-1.119 0.646-2.251 0.983-3.397 0.067-0.258 0.216-0.437 0.447-0.536z"></path>
<path fill="#b3f935" style="fill: var(--color83, #b3f935)" d="M25.117 12.246c-0.171 0.694-0.41 1.35-0.715 1.966 0.032-0.752 0.27-1.408 0.715-1.966z"></path>
<path fill="#bcfb2f" style="fill: var(--color84, #bcfb2f)" d="M24.402 10.279c0.172 0.315 0.232 0.673 0.179 1.073 0.086 0.595-0.093 1.072-0.536 1.43 0.176-0.825 0.296-1.66 0.358-2.503z"></path>
<path fill="#daf714" style="fill: var(--color85, #daf714)" d="M25.117 12.246c-0.445 0.559-0.683 1.214-0.715 1.966-0.119 0.358-0.238 0.715-0.358 1.073-0.119 0.179-0.238 0.358-0.358 0.536-0.21 0.263-0.389 0.561-0.536 0.894-0.060-0.179-0.119-0.358-0.179-0.536 0.402-1.11 0.759-2.242 1.073-3.397 0.444-0.358 0.622-0.835 0.536-1.43 0.256-0.068 0.405-0.247 0.447-0.536 0.089 0.473 0.119 0.95 0.089 1.43z"></path>
<path fill="#b6fb30" style="fill: var(--color86, #b6fb30)" d="M12.961 14.212c0.060 0 0.119 0 0.179 0-0.060 0.477-0.119 0.953-0.179 1.43-0.179 0.238-0.358 0.477-0.536 0.715 0.177-0.712 0.355-1.427 0.536-2.145z"></path>
<path fill="#c3fa31" style="fill: var(--color87, #c3fa31)" d="M14.212 14.927c-0.238 1.011-0.595 1.964-1.073 2.86 0.085-0.757 0.263-1.472 0.536-2.145 0.243-0.195 0.421-0.433 0.536-0.715z"></path>
<path fill="#95ec31" style="fill: var(--color88, #95ec31)" d="M24.045 15.285c0 0.238 0 0.477 0 0.715-0.179 0.358-0.358 0.715-0.536 1.073 0.031-0.422 0.091-0.839 0.179-1.251 0.119-0.179 0.238-0.358 0.358-0.536z"></path>
<path fill="#1ad04a" style="fill: var(--color89, #1ad04a)" d="M20.648 13.14c0.067-0.393 0.186-0.75 0.358-1.073-0.012 0.078 0.018 0.138 0.089 0.179 0.060-0.119 0.119-0.238 0.179-0.358 0.060 0.417 0.119 0.834 0.179 1.251 0.251-0.558 0.341-1.153 0.268-1.788 0.238 0 0.477 0 0.715 0 0.051 0.586-0.009 1.152-0.179 1.698 0.271 0.339 0.39 0.726 0.358 1.162-0.362-0.029-0.72 0.001-1.073 0.089-0.082 0.074-0.141 0.163-0.179 0.268 0.205 0.666 0.384 1.321 0.536 1.966-0.13 0.6-0.279 1.196-0.447 1.788-0.282 0.651-0.61 0.681-0.983 0.089 0.534-0.793 0.653-1.657 0.358-2.592-0.627 0.579-0.985 0.46-1.073-0.358 0.022-0.41 0.171-0.767 0.447-1.073 0.052 0.276 0.171 0.514 0.358 0.715 0.133-0.463 0.222-0.88 0.268-1.251 0.269 0.47 0.388 0.411 0.358-0.179-0.179 0-0.358 0-0.536 0 0-0.179 0-0.358 0-0.536z"></path>
<path fill="#d3fa20" style="fill: var(--color90, #d3fa20)" d="M9.922 13.318c0 0.119 0 0.238 0 0.358 0 0.060 0 0.119 0 0.179-0.15 0.061-0.209 0.18-0.179 0.358-0.221 0.384-0.4 0.801-0.536 1.251-0.353 0.462-0.531 0.998-0.536 1.609-0.060 0-0.119 0-0.179 0s-0.119 0-0.179 0c0.135-0.917 0.462-1.752 0.983-2.503-0.007-0.554 0.201-0.971 0.626-1.251z"></path>
<path fill="#46cd2e" style="fill: var(--color91, #46cd2e)" d="M12.961 14.212c-0.181 0.718-0.36 1.433-0.536 2.145-0.312 0.274-0.491 0.632-0.536 1.073-0.281 0.286-0.401 0.644-0.358 1.073-0.15 0.061-0.209 0.18-0.179 0.358-0.060 0-0.119 0-0.179 0 0.332-1.385 0.72-2.755 1.162-4.112 0.186-0.216 0.394-0.395 0.626-0.536z"></path>
<path fill="#8dec2e" style="fill: var(--color92, #8dec2e)" d="M22.793 15.821c-0.046 0.441-0.224 0.799-0.536 1.073 0.046-0.441 0.224-0.799 0.536-1.073z"></path>
<path fill="#54cb36" style="fill: var(--color93, #54cb36)" d="M17.073 16.179c0 0.119 0 0.238 0 0.358 0 0.060 0 0.119 0 0.179-0.171 0.322-0.291 0.68-0.358 1.073 0 0.119 0 0.238 0 0.358-0.119 0.060-0.238 0.119-0.358 0.179 0.114-0.528 0.203-1.065 0.268-1.609 0.067-0.258 0.216-0.437 0.447-0.536z"></path>
<path fill="#8ae534" style="fill: var(--color94, #8ae534)" d="M19.218 15.642c0.043 0.429-0.076 0.786-0.358 1.073-0.043-0.429 0.076-0.786 0.358-1.073z"></path>
<path fill="#c5fb29" style="fill: var(--color95, #c5fb29)" d="M24.045 12.782c-0.313 1.154-0.671 2.287-1.073 3.397 0.060 0.179 0.119 0.358 0.179 0.536 0.148-0.332 0.326-0.63 0.536-0.894-0.088 0.412-0.148 0.829-0.179 1.251-0.26 0.699-0.498 1.415-0.715 2.145-0.060 0-0.119 0-0.179 0 0.081-0.602 0.2-1.197 0.358-1.788-0.060-0.179-0.119-0.358-0.179-0.536-0.105 0.037-0.194 0.097-0.268 0.179-0.060 0.417-0.119 0.834-0.179 1.251-0.136 0.279-0.344 0.458-0.626 0.536 0-0.119 0-0.238 0-0.358 0.281-0.286 0.401-0.644 0.358-1.073 0-0.119 0-0.238 0-0.358 0.119 0 0.179-0.060 0.179-0.179 0.312-0.274 0.491-0.632 0.536-1.073 0.195-0.92 0.434-1.814 0.715-2.682 0.129-0.188 0.308-0.307 0.536-0.358z"></path>
<path fill="#34c932" style="fill: var(--color96, #34c932)" d="M27.441 15.642c0 0.179 0 0.358 0 0.536-0.331 0.484-0.51 1.020-0.536 1.609-0.28 0.359-0.459 0.776-0.536 1.251-0.15 0.061-0.21 0.18-0.179 0.358-0.119 0.179-0.238 0.358-0.358 0.536 0.235-1.087 0.503-2.16 0.804-3.218 0.315-0.338 0.584-0.695 0.804-1.073z"></path>
<path fill="#a8f638" style="fill: var(--color97, #a8f638)" d="M27.441 16.179c0.060 0 0.119 0 0.179 0 0 0.119 0 0.238 0 0.358-0.010 0.198-0.070 0.377-0.179 0.536-0.179 0.238-0.358 0.477-0.536 0.715 0.026-0.588 0.205-1.125 0.536-1.609z"></path>
<path fill="#befb1f" style="fill: var(--color98, #befb1f)" d="M31.553 16.179c0.016 0.9-0.044 1.794-0.179 2.682 0 0.119 0 0.238 0 0.358-0.363 0.835-0.72 1.669-1.073 2.503 0 0.060 0 0.119 0 0.179-0.373 0.194-0.611 0.492-0.715 0.894-0.119 0.060-0.238 0.119-0.358 0.179 0.321-0.764 0.649-1.538 0.983-2.324 0.179-0.179 0.358-0.358 0.536-0.536 0.288-1.317 0.556-2.628 0.804-3.933z"></path>
<path fill="#aff742" style="fill: var(--color99, #aff742)" d="M17.073 16.715c0.080 0.449-0.039 0.806-0.358 1.073 0.067-0.393 0.186-0.75 0.358-1.073z"></path>
<path fill="#4bcb27" style="fill: var(--color100, #4bcb27)" d="M18.682 17.073c0.060 0 0.119 0 0.179 0-0.021 0.805-0.26 1.52-0.715 2.145 0-0.238 0-0.477 0-0.715 0.285-0.42 0.464-0.896 0.536-1.43z"></path>
<path fill="#5cce2d" style="fill: var(--color101, #5cce2d)" d="M14.57 14.212c-0.060 0.477-0.119 0.953-0.179 1.43-0.329 0.997-0.747 1.95-1.251 2.86 0-0.238 0-0.477 0-0.715 0.477-0.896 0.835-1.85 1.073-2.86 0.087-0.267 0.207-0.506 0.358-0.715z"></path>
<path fill="#83e838" style="fill: var(--color102, #83e838)" d="M22.078 17.43c0.043 0.429-0.076 0.786-0.358 1.073 0.017-0.409 0.136-0.766 0.358-1.073z"></path>
<path fill="#d9f814" style="fill: var(--color103, #d9f814)" d="M22.615 19.218c-0.151 0.209-0.27 0.448-0.358 0.715-0.179 0-0.358 0-0.536 0-0.204-0.349-0.204-0.706 0-1.073 0.281-0.078 0.49-0.257 0.626-0.536 0.060-0.417 0.119-0.834 0.179-1.251 0.074-0.082 0.163-0.141 0.268-0.179 0.060 0.179 0.119 0.358 0.179 0.536-0.157 0.59-0.276 1.186-0.358 1.788z"></path>
<path fill="#aaf731" style="fill: var(--color104, #aaf731)" d="M18.682 17.073c-0.072 0.534-0.251 1.010-0.536 1.43 0.018-0.561 0.197-1.037 0.536-1.43z"></path>
<path fill="#86e62b" style="fill: var(--color105, #86e62b)" d="M26.905 17.788c0.060 0.535-0.119 0.952-0.536 1.251 0.078-0.475 0.257-0.892 0.536-1.251z"></path>
<path fill="#57cd24" style="fill: var(--color106, #57cd24)" d="M13.14 18.503c-0.119 0.715-0.238 1.43-0.358 2.145-0.162 0.127-0.221 0.306-0.179 0.536 0.894 0 1.788 0 2.682 0 0 0.060 0 0.119 0 0.179-1.013 0-2.026 0-3.039 0 0.092-1.018 0.39-1.972 0.894-2.86z"></path>
<path fill="#9ef132" style="fill: var(--color107, #9ef132)" d="M18.145 18.503c0 0.238 0 0.477 0 0.715-0.238 0.477-0.477 0.953-0.715 1.43 0-0.060 0-0.119 0-0.179 0.049-0.741 0.288-1.396 0.715-1.966z"></path>
<path fill="#43c728" style="fill: var(--color108, #43c728)" d="M24.045 16c-0.147 1.309-0.564 2.501-1.251 3.575 0-0.119 0-0.238 0-0.358 0.217-0.731 0.455-1.446 0.715-2.145 0.179-0.358 0.358-0.715 0.536-1.073z"></path>
<path fill="#bffb2e" style="fill: var(--color109, #bffb2e)" d="M13.14 17.788c0 0.238 0 0.477 0 0.715-0.504 0.889-0.802 1.842-0.894 2.86-0.167-0.191-0.227-0.429-0.179-0.715 0.233-0.752 0.442-1.527 0.626-2.324 0.067-0.258 0.216-0.437 0.447-0.536z"></path>
<path fill="#c1f938" style="fill: var(--color110, #c1f938)" d="M16.715 18.145c-0.056 0.807-0.264 1.581-0.626 2.324-0.188 0.379-0.456 0.676-0.804 0.894 0-0.060 0-0.119 0-0.179 0.496-0.83 0.853-1.724 1.073-2.682 0-0.060 0-0.119 0-0.179 0.119-0.060 0.238-0.119 0.358-0.179z"></path>
<path fill="#a4f943" style="fill: var(--color111, #a4f943)" d="M21.721 18.86c-0.204 0.366-0.204 0.724 0 1.073-0.205-0.052-0.325-0.201-0.358-0.447-0.020-0.304 0.099-0.512 0.358-0.626z"></path>
<path fill="#a0f64a" style="fill: var(--color112, #a0f64a)" d="M22.615 19.218c0.060 0 0.119 0 0.179 0 0 0.119 0 0.238 0 0.358-0.129 0.188-0.308 0.307-0.536 0.358 0.087-0.267 0.206-0.506 0.358-0.715z"></path>
<path fill="#20cf47" style="fill: var(--color113, #20cf47)" d="M25.475 20.291c-0.296 0.943-0.594 1.897-0.894 2.86 0 0.060 0 0.119 0 0.179-0.268 0.455-0.536 0.932-0.804 1.43-0.234 0.905-0.442 1.799-0.626 2.682-0.15 0.336-0.21 0.693-0.179 1.073-0.894 0-1.788 0-2.682 0 0-0.060 0-0.119 0-0.179 0.205-0.052 0.325-0.201 0.358-0.447 0.128-0.499 0.188-1.006 0.179-1.52 0-0.238 0-0.477 0-0.715 0.115-0.282 0.294-0.52 0.536-0.715 0.373-0.836 0.612-1.729 0.715-2.682 0-0.119 0-0.238 0-0.358-0.020-0.11-0.079-0.2-0.179-0.268-0.536-0.119-1.073-0.119-1.609 0-0.72 0.713-0.958 1.517-0.715 2.413 0 0.179 0 0.358 0 0.536-0.318 0.266-0.437 0.624-0.358 1.073-0.060 0-0.119 0-0.179 0-0.119 0-0.238 0-0.358 0-0.192-0.134-0.222-0.313-0.089-0.536 0.060 0.060 0.119 0.119 0.179 0.179 0.44-0.614 0.53-1.269 0.268-1.966-0.197-0.089-0.376-0.149-0.536-0.179 0.268-0.224 0.566-0.403 0.894-0.536 0.275-0.944 0.513-1.898 0.715-2.86 0.119 0.298 0.238 0.596 0.358 0.894 0.604-0.326 1.259-0.445 1.966-0.358-0.040 0.396 0.109 0.694 0.447 0.894 0.16-0.412 0.309-0.829 0.447-1.251 0.165 0.204 0.314 0.204 0.447 0 0.069 0.166 0.189 0.285 0.358 0.358 0.338-0.517 0.487-0.457 0.447 0.179 0.32 0.024 0.618-0.036 0.894-0.179z"></path>
<path fill="#c8fb2f" style="fill: var(--color114, #c8fb2f)" d="M27.441 17.073c-0.093 0.606-0.243 1.202-0.447 1.788-0.119 0.238-0.298 0.417-0.536 0.536-0.053 0.61-0.172 1.206-0.358 1.788-0.427 0.981-0.874 1.935-1.341 2.86 0.003-0.369 0.063-0.727 0.179-1.073 0.202-0.725 0.441-1.441 0.715-2.145 0.385-0.378 0.564-0.855 0.536-1.43-0.031-0.177 0.029-0.296 0.179-0.358 0.417-0.3 0.596-0.717 0.536-1.251 0.179-0.238 0.358-0.477 0.536-0.715z"></path>
<path fill="#3ac936" style="fill: var(--color115, #3ac936)" d="M16.358 18.503c-0.219 0.958-0.577 1.852-1.073 2.682-0.894 0-1.788 0-2.682 0-0.042-0.231 0.017-0.41 0.179-0.536 0.308 0.232 0.695 0.352 1.162 0.358 1.124 0.087 1.66-0.449 1.609-1.609 0.191-0.392 0.459-0.69 0.804-0.894z"></path>
<path fill="#54d806" style="fill: var(--color116, #54d806)" d="M31.374 19.218c0.027 0.555-0.063 1.092-0.268 1.609-0.109 0.468-0.378 0.765-0.804 0.894 0.352-0.834 0.71-1.668 1.073-2.503z"></path>
<path fill="#8deb3e" style="fill: var(--color117, #8deb3e)" d="M26.19 19.397c0.028 0.575-0.151 1.052-0.536 1.43 0.096-0.289 0.156-0.587 0.179-0.894 0.119-0.179 0.238-0.358 0.358-0.536z"></path>
<path fill="#95f11a" style="fill: var(--color118, #95f11a)" d="M4.737 19.933c0.339 0.393 0.518 0.87 0.536 1.43-0.286-0.42-0.464-0.896-0.536-1.43z"></path>
<path fill="#c3fb2b" style="fill: var(--color119, #c3fb2b)" d="M17.43 20.469c0 0.060 0 0.119 0 0.179-0.163 0.793-0.461 1.508-0.894 2.145 0.278-0.734 0.398-1.509 0.358-2.324 0.179 0 0.358 0 0.536 0z"></path>
<path fill="#dff60a" style="fill: var(--color120, #dff60a)" d="M10.816 4.38c0.236-0.030 0.445 0.029 0.626 0.179 0.145 0.346 0.235 0.704 0.268 1.073 0.21-0.039 0.389 0.020 0.536 0.179-0.112 0.164-0.172 0.343-0.179 0.536-0.294 0.679-0.413 1.394-0.358 2.145-0.119 0-0.238 0-0.358 0-0.494 0.875-0.792 1.828-0.894 2.86-0.142 0.666-0.321 1.321-0.536 1.966-0.425 0.28-0.633 0.697-0.626 1.251-0.521 0.751-0.849 1.585-0.983 2.503-0.545 0.859-0.783 1.813-0.715 2.86-0.119 0.179-0.238 0.358-0.358 0.536-0.537 0.352-0.656 0.829-0.358 1.43 1.275-0.113 2.526-0.233 3.754-0.358 0.11-0.020 0.2-0.079 0.268-0.179 0.071-0.484 0.16-0.961 0.268-1.43 0.060-0.238 0.119-0.477 0.179-0.715 0.681-0.804 1.038-1.758 1.073-2.86 0.179-0.238 0.358-0.477 0.536-0.715 0.256-0.229 0.375-0.527 0.358-0.894 0.179 0 0.358 0 0.536 0-0.023 0.307-0.083 0.605-0.179 0.894-0.273 0.673-0.452 1.388-0.536 2.145-0.231 0.1-0.38 0.279-0.447 0.536-0.184 0.797-0.393 1.572-0.626 2.324-0.612 0.17-0.672 0.468-0.179 0.894 1.247 0.149 2.499 0.238 3.754 0.268 0.094 0.124 0.213 0.213 0.358 0.268-0.075-0.466 0.015-0.943 0.268-1.43 0.089 0.713 0.119 1.428 0.089 2.145-0.615 1.449-1.092 2.939-1.43 4.469-0.297 0.346-0.416 0.764-0.358 1.251-0.31 0.679-0.668 1.335-1.073 1.966-0.045-0.8-0.075-1.634-0.089-2.503-0.308-0.172-0.636-0.292-0.983-0.358-0.358 0-0.715 0-1.073 0-0.281-0.876-0.877-1.233-1.788-1.073-0.939-1.217-1.922-2.409-2.95-3.575-0.843-1.431-1.528-2.92-2.056-4.469-0.128-0.405-0.188-0.822-0.179-1.251-0.030-1.312 0-2.623 0.089-3.933 0.34-0.612 0.489-1.267 0.447-1.966 0.479-0.486 0.717-1.082 0.715-1.788 0.18-0.365 0.359-0.723 0.536-1.073 0.303-0.184 0.541-0.422 0.715-0.715 0.799-0.829 1.573-1.693 2.324-2.592 0.597-0.151 1.133-0.419 1.609-0.804z"></path>
<path fill="#bdfc30" style="fill: var(--color121, #bdfc30)" d="M10.994 19.933c0.060 0 0.119 0 0.179 0-0.108 0.47-0.198 0.946-0.268 1.43-0.068 0.099-0.158 0.159-0.268 0.179-1.107 0.058-2.179-0.002-3.218-0.179 1.073 0 2.145 0 3.218 0-0.070-0.546 0.050-1.023 0.358-1.43z"></path>
<path fill="#3eca2e" style="fill: var(--color122, #3eca2e)" d="M8.492 17.073c0.060 0 0.119 0 0.179 0s0.119 0 0.179 0c-0.118 0.709-0.178 1.424-0.179 2.145-0.179 0-0.358 0-0.536 0-0.021 0.601-0.080 1.197-0.179 1.788 0.775 0 1.549 0 2.324 0 0.097-0.644 0.276-1.269 0.536-1.877 0.060-0.184 0.179-0.274 0.358-0.268-0.116 0.346-0.176 0.703-0.179 1.073-0.308 0.408-0.427 0.884-0.358 1.43-1.073 0-2.145 0-3.218 0 0.015-0.505 0.134-0.982 0.358-1.43 0.341-0.923 0.58-1.877 0.715-2.86z"></path>
<path fill="#8dea2a" style="fill: var(--color123, #8dea2a)" d="M7.598 19.933c0.060 0 0.119 0 0.179 0-0.223 0.448-0.343 0.925-0.358 1.43-0.17-0.254-0.23-0.552-0.179-0.894 0.119-0.179 0.238-0.358 0.358-0.536z"></path>
<path fill="#a0f03e" style="fill: var(--color124, #a0f03e)" d="M11.173 18.86c0.060 0 0.119 0 0.179 0 0 0.119 0 0.238 0 0.358-0.060 0.238-0.119 0.477-0.179 0.715-0.060 0-0.119 0-0.179 0 0.003-0.369 0.063-0.727 0.179-1.073z"></path>
<path fill="#cafc2b" style="fill: var(--color125, #cafc2b)" d="M12.425 16.358c-0.034 1.102-0.392 2.056-1.073 2.86 0-0.119 0-0.238 0-0.358-0.031-0.177 0.029-0.296 0.179-0.358 0.281-0.286 0.401-0.644 0.358-1.073 0.046-0.441 0.224-0.799 0.536-1.073z"></path>
<path fill="#a1f43c" style="fill: var(--color126, #a1f43c)" d="M11.888 17.43c0.043 0.429-0.076 0.786-0.358 1.073-0.043-0.429 0.076-0.786 0.358-1.073z"></path>
<path fill="#c5fb2c" style="fill: var(--color127, #c5fb2c)" d="M8.313 17.073c0.060 0 0.119 0 0.179 0-0.135 0.984-0.374 1.937-0.715 2.86-0.060 0-0.119 0-0.179 0-0.068-1.048 0.17-2.001 0.715-2.86z"></path>
<path fill="#a1f634" style="fill: var(--color128, #a1f634)" d="M9.207 15.464c0 0.119 0 0.238 0 0.358-0.171 0.401-0.29 0.819-0.358 1.251-0.060 0-0.119 0-0.179 0 0.005-0.611 0.184-1.147 0.536-1.609z"></path>
<path fill="#d3fa19" style="fill: var(--color129, #d3fa19)" d="M7.24 20.469c-0.051 0.342 0.009 0.64 0.179 0.894 1.039 0.177 2.111 0.236 3.218 0.179-1.228 0.125-2.48 0.244-3.754 0.358-0.298-0.602-0.179-1.078 0.358-1.43z"></path>
<path fill="#a2f542" style="fill: var(--color130, #a2f542)" d="M22.078 21.899c0 0.119 0 0.238 0 0.358-0.119 0.179-0.238 0.358-0.358 0.536 0-0.238 0-0.477 0-0.715-0.342-0.051-0.64 0.009-0.894 0.179-0.179 0.119-0.358 0.238-0.536 0.358 0.002-0.271 0.121-0.48 0.358-0.626 0.473-0.089 0.95-0.119 1.43-0.089z"></path>
<path fill="#3ec32d" style="fill: var(--color131, #3ec32d)" d="M25.832 19.933c-0.023 0.307-0.083 0.605-0.179 0.894-0.275 0.705-0.513 1.42-0.715 2.145-0.119 0.060-0.238 0.119-0.358 0.179 0.3-0.964 0.598-1.917 0.894-2.86 0-0.238 0.119-0.358 0.358-0.358z"></path>
<path fill="#a7f717" style="fill: var(--color132, #a7f717)" d="M5.631 21.899c0.398 0.161 0.577 0.459 0.536 0.894-0.248-0.25-0.427-0.548-0.536-0.894z"></path>
<path fill="#3fc932" style="fill: var(--color133, #3fc932)" d="M22.078 21.899c-0.48-0.029-0.957 0.001-1.43 0.089-0.236 0.146-0.356 0.355-0.358 0.626-0.238 0.477-0.477 0.953-0.715 1.43-0.243-0.896-0.005-1.7 0.715-2.413 0.536-0.119 1.073-0.119 1.609 0 0.099 0.068 0.159 0.158 0.179 0.268z"></path>
<path fill="#bffc31" style="fill: var(--color134, #bffc31)" d="M20.827 22.257c0.254-0.17 0.552-0.23 0.894-0.179 0 0.238 0 0.477 0 0.715-0.119 0.715-0.238 1.43-0.358 2.145-0.243 0.195-0.421 0.433-0.536 0.715 0.101-1.176 0.339-2.308 0.715-3.397-0.238 0-0.477 0-0.715 0z"></path>
<path fill="#4adc09" style="fill: var(--color135, #4adc09)" d="M4.559 19.933c0.060 0 0.119 0 0.179 0 0.072 0.534 0.251 1.010 0.536 1.43 0.251 0.085 0.371 0.263 0.358 0.536 0.109 0.346 0.288 0.644 0.536 0.894 0 0.119 0 0.238 0 0.358 0.164 0.403 0.402 0.761 0.715 1.073-0.396-0.126-0.724-0.364-0.983-0.715-0.203-0.748-0.65-1.017-1.341-0.804 0.258-0.201 0.377-0.469 0.358-0.804-0.254-0.629-0.373-1.284-0.358-1.966z"></path>
<path fill="#bffb35" style="fill: var(--color136, #bffb35)" d="M20.291 22.615c-0.256 1.042-0.554 2.055-0.894 3.039 0.003-0.369 0.063-0.727 0.179-1.073 0-0.179 0-0.358 0-0.536 0.238-0.477 0.477-0.953 0.715-1.43z"></path>
<path fill="#c7fd1d" style="fill: var(--color137, #c7fd1d)" d="M4.559 18.503c0.528 1.549 1.213 3.039 2.056 4.469 1.028 1.166 2.011 2.358 2.95 3.575-0.464-0.224-0.881-0.522-1.251-0.894-0.225-0.523-0.582-0.941-1.073-1.251 0-0.119-0.060-0.179-0.179-0.179-0.164-0.463-0.462-0.82-0.894-1.073 0-0.119 0-0.238 0-0.358 0.041-0.435-0.138-0.733-0.536-0.894 0.013-0.273-0.106-0.452-0.358-0.536-0.018-0.561-0.197-1.037-0.536-1.43-0.060 0-0.119 0-0.179 0 0-0.298 0-0.596 0-0.894 0-0.179 0-0.358 0-0.536z"></path>
<path fill="#7ce509" style="fill: var(--color138, #7ce509)" d="M6.168 23.151c0.432 0.252 0.729 0.61 0.894 1.073-0.060 0-0.119 0-0.179 0-0.313-0.312-0.551-0.67-0.715-1.073z"></path>
<path fill="#92ed1b" style="fill: var(--color139, #92ed1b)" d="M29.587 22.793c-0.184 0.606-0.541 1.083-1.073 1.43 0-0.060 0-0.119 0-0.179 0.309-0.309 0.547-0.666 0.715-1.073 0.119-0.060 0.238-0.119 0.358-0.179z"></path>
<path fill="#aef63f" style="fill: var(--color140, #aef63f)" d="M24.939 22.972c-0.116 0.346-0.176 0.703-0.179 1.073-0.105 0.606-0.343 1.142-0.715 1.609 0.206-0.764 0.385-1.539 0.536-2.324 0-0.060 0-0.119 0-0.179 0.119-0.060 0.238-0.119 0.358-0.179z"></path>
<path fill="#51cb2b" style="fill: var(--color141, #51cb2b)" d="M18.145 19.218c-0.032 0.486-0.121 0.962-0.268 1.43-0.589 1.578-1.155 3.157-1.698 4.737-0.060 0.184-0.179 0.274-0.358 0.268 0.237-0.952 0.475-1.905 0.715-2.86 0.432-0.637 0.73-1.352 0.894-2.145 0.238-0.477 0.477-0.953 0.715-1.43z"></path>
<path fill="#47c51f" style="fill: var(--color142, #47c51f)" d="M22.078 22.257c-0.104 0.952-0.342 1.846-0.715 2.682 0.119-0.715 0.238-1.43 0.358-2.145 0.119-0.179 0.238-0.358 0.358-0.536z"></path>
<path fill="#7fe612" style="fill: var(--color143, #7fe612)" d="M7.24 24.402c0.49 0.311 0.848 0.728 1.073 1.251-0.060 0-0.119 0-0.179 0-0.372-0.371-0.67-0.788-0.894-1.251z"></path>
<path fill="#81e031" style="fill: var(--color144, #81e031)" d="M19.575 24.581c-0.116 0.346-0.176 0.703-0.179 1.073-0.060 0-0.119 0-0.179 0-0.080-0.449 0.039-0.806 0.358-1.073z"></path>
<path fill="#c1fe20" style="fill: var(--color145, #c1fe20)" d="M28.514 24.045c0 0.060 0 0.119 0 0.179-0.060 0.119-0.119 0.238-0.179 0.358-0.536 0.179-0.894 0.536-1.073 1.073-0.060 0-0.119 0-0.179 0 0.229-0.765 0.705-1.301 1.43-1.609z"></path>
<path fill="#40d204" style="fill: var(--color146, #40d204)" d="M7.061 24.223c0.119 0 0.179 0.060 0.179 0.179 0.224 0.464 0.522 0.881 0.894 1.251-0.741-0.191-1.098-0.668-1.073-1.43z"></path>
<path fill="#85ec15" style="fill: var(--color147, #85ec15)" d="M28.335 24.581c-0.298 0.417-0.656 0.775-1.073 1.073 0.179-0.536 0.536-0.894 1.073-1.073z"></path>
<path fill="#41da0a" style="fill: var(--color148, #41da0a)" d="M30.302 21.899c0.028 0.245-0.002 0.484-0.089 0.715-0.553 0.807-1.149 1.582-1.788 2.324-0.122 0.23-0.092 0.438 0.089 0.626-0.403 0.516-0.939 0.754-1.609 0.715-0.23 0.322-0.528 0.531-0.894 0.626 0.223-0.296 0.462-0.594 0.715-0.894 0.119-0.119 0.238-0.238 0.358-0.358 0.060 0 0.119 0 0.179 0 0.417-0.298 0.775-0.656 1.073-1.073 0.060-0.119 0.119-0.238 0.179-0.358 0.531-0.347 0.889-0.824 1.073-1.43 0.104-0.402 0.342-0.7 0.715-0.894z"></path>
<path fill="#cffb1c" style="fill: var(--color149, #cffb1c)" d="M27.084 25.654c-0.119 0.119-0.238 0.238-0.358 0.358-0.63 0.225-1.166 0.583-1.609 1.073-0.289 0.096-0.587 0.156-0.894 0.179 0.241-0.197 0.509-0.376 0.804-0.536 0.055-0.226 0.145-0.435 0.268-0.626 0.614-0.1 1.21-0.249 1.788-0.447z"></path>
<path fill="#cbfd2d" style="fill: var(--color150, #cbfd2d)" d="M16.358 22.793c0.060 0 0.119 0 0.179 0-0.24 0.955-0.478 1.909-0.715 2.86-0.119 0.179-0.238 0.358-0.358 0.536-0.232 0.334-0.411 0.692-0.536 1.073 0.338-1.53 0.815-3.020 1.43-4.469z"></path>
<path fill="#40c02b" style="fill: var(--color151, #40c02b)" d="M18.682 25.654c0.119 0 0.238 0 0.358 0-0.202 0.624-0.441 1.22-0.715 1.788 0.063-0.608 0.182-1.204 0.358-1.788z"></path>
<path fill="#47c42e" style="fill: var(--color152, #47c42e)" d="M24.581 23.33c-0.152 0.785-0.33 1.56-0.536 2.324-0.399 0.517-0.637 1.113-0.715 1.788-0.060 0-0.119 0-0.179 0 0.183-0.882 0.392-1.776 0.626-2.682 0.268-0.498 0.537-0.975 0.804-1.43z"></path>
<path fill="#a0ee2c" style="fill: var(--color153, #a0ee2c)" d="M20.827 25.654c0 0.238 0 0.477 0 0.715-0.119 0.238-0.238 0.477-0.358 0.715-0.070-0.546 0.050-1.023 0.358-1.43z"></path>
<path fill="#c3fb1e" style="fill: var(--color154, #c3fb1e)" d="M9.564 26.547c0.911-0.161 1.507 0.197 1.788 1.073-0.603-0.361-1.199-0.718-1.788-1.073z"></path>
<path fill="#b8f83f" style="fill: var(--color155, #b8f83f)" d="M19.039 25.654c0.060 0 0.119 0 0.179 0 0.029 0.362-0.001 0.72-0.089 1.073-0.228 0.615-0.496 1.211-0.804 1.788-0.060 0-0.119 0-0.179 0 0.060-0.358 0.119-0.715 0.179-1.073 0.275-0.567 0.513-1.163 0.715-1.788z"></path>
<path fill="#6fe20c" style="fill: var(--color156, #6fe20c)" d="M26.726 26.011c-0.253 0.3-0.492 0.598-0.715 0.894-0.159 0.109-0.338 0.169-0.536 0.179-0.119 0-0.238 0-0.358 0 0.442-0.49 0.979-0.848 1.609-1.073z"></path>
<path fill="#87e82e" style="fill: var(--color157, #87e82e)" d="M15.464 26.19c-0.016 0.664-0.195 1.26-0.536 1.788 0-0.238 0-0.477 0-0.715 0.126-0.381 0.304-0.738 0.536-1.073z"></path>
<path fill="#c0fa32" style="fill: var(--color158, #c0fa32)" d="M24.045 25.654c-0.067 0.55-0.186 1.086-0.358 1.609 0.179 0 0.358 0 0.536 0-0.173 0.202-0.382 0.381-0.626 0.536-0.184-0.060-0.274-0.179-0.268-0.358 0.078-0.675 0.316-1.271 0.715-1.788z"></path>
<path fill="#b6fa1b" style="fill: var(--color159, #b6fa1b)" d="M11.352 27.62c0.358 0 0.715 0 1.073 0 0.119 0.179 0.238 0.358 0.358 0.536-0.561-0.018-1.037-0.197-1.43-0.536z"></path>
<path fill="#4ac322" style="fill: var(--color160, #4ac322)" d="M20.827 26.369c0.009 0.514-0.051 1.020-0.179 1.52-0.033 0.246-0.152 0.395-0.358 0.447 0.031-0.422 0.091-0.839 0.179-1.251 0.119-0.238 0.238-0.477 0.358-0.715z"></path>
<path fill="#49d704" style="fill: var(--color161, #49d704)" d="M8.313 25.654c0.371 0.372 0.788 0.67 1.251 0.894 0.589 0.355 1.185 0.712 1.788 1.073 0.393 0.339 0.87 0.518 1.43 0.536 0 0.060 0 0.119 0 0.179 0.172 0.584 0.172 1.18 0 1.788-0.3 0.122-0.419 0.361-0.358 0.715-4.171 0-8.343 0-12.514 0 0-0.119 0-0.238 0-0.358 4.053 0.030 8.105 0 12.156-0.089 0.643-1.286 0.256-2.090-1.162-2.413-0.284 0.209-0.582 0.388-0.894 0.536-0.119-0.119-0.119-0.238 0-0.358 0.531-0.195 0.591-0.493 0.179-0.894-0.588-0.11-1.094-0.378-1.52-0.804-0.193-0.238-0.313-0.506-0.358-0.804z"></path>
<path fill="#bafb31" style="fill: var(--color162, #bafb31)" d="M14.927 27.263c0 0.238 0 0.477 0 0.715 0 0.060 0 0.119 0 0.179-0.119 0.119-0.238 0.238-0.358 0.358-0.059-0.488 0.060-0.905 0.358-1.251z"></path>
<path fill="#2ec35c" style="fill: var(--color163, #2ec35c)" d="M21.721 27.978c0.323-0.002 0.621 0.088 0.894 0.268-0.149 0.030-0.298 0.060-0.447 0.089-0.246-0.033-0.395-0.152-0.447-0.358z"></path>
<path fill="#bff722" style="fill: var(--color164, #bff722)" d="M20.469 27.084c-0.088 0.412-0.148 0.829-0.179 1.251 0 0.060 0 0.119 0 0.179-0.296 0.029-0.534 0.148-0.715 0.358-0.179 0.119-0.358 0.238-0.536 0.358 0.002-0.271 0.121-0.48 0.358-0.626-0.060-0.060-0.119-0.119-0.179-0.179 0.292-0.088 0.59-0.118 0.894-0.089-0.059-0.488 0.060-0.905 0.358-1.251z"></path>
<path fill="#97f014" style="fill: var(--color165, #97f014)" d="M12.782 28.335c0.223 0.149 0.342 0.387 0.358 0.715-0.031 0.366-0.090 0.724-0.179 1.073-0.060 0-0.119 0-0.179 0 0.172-0.608 0.172-1.204 0-1.788z"></path>
<path fill="#47da1b" style="fill: var(--color166, #47da1b)" d="M25.117 27.084c0.119 0 0.238 0 0.358 0 0.032 0.214 0.091 0.422 0.179 0.626-0.204 0.58-0.383 0.551-0.536-0.089-0.729 0.196-1.384 0.523-1.966 0.983-1.21 0.052-2.401 0.201-3.575 0.447 0-0.060 0-0.119 0-0.179 0.181-0.21 0.42-0.329 0.715-0.358 0.894 0 1.788 0 2.682 0-0.031-0.379 0.028-0.737 0.179-1.073 0.060 0 0.119 0 0.179 0-0.005 0.178 0.084 0.297 0.268 0.358 0.244-0.156 0.452-0.334 0.626-0.536 0.307-0.023 0.605-0.083 0.894-0.179z"></path>
<path fill="#64d801" style="fill: var(--color167, #64d801)" d="M19.575 28.872c0 0.060 0 0.119 0 0.179-0.119 0.179-0.238 0.358-0.358 0.536-0.172 0.316-0.232 0.673-0.179 1.073 4.946 0 9.892 0 14.838 0 0 0.060 0 0.119 0 0.179-4.946 0-9.892 0-14.838 0-0.228-0.518-0.228-1.054 0-1.609 0.179-0.119 0.358-0.238 0.536-0.358z"></path>
<path fill="#46ca2f" style="fill: var(--color168, #46ca2f)" d="M18.324 27.441c-0.060 0.358-0.119 0.715-0.179 1.073-0.201 0.53-0.38 1.066-0.536 1.609-0.138 0.213-0.317 0.392-0.536 0.536-0.929 0.057-1.822-0.002-2.682-0.179 0.896 0.030 1.79-0 2.682-0.089 0.305-1.054 0.722-2.037 1.251-2.95z"></path>
<path fill="#3fd702" style="fill: var(--color169, #3fd702)" d="M19.218 29.587c0 0.298 0 0.596 0 0.894 4.886 0 9.773 0 14.659 0 0 0.060 0 0.119 0 0.179-4.946 0-9.892 0-14.838 0-0.053-0.4 0.007-0.757 0.179-1.073z"></path>
<path fill="#c0fe1b" style="fill: var(--color170, #c0fe1b)" d="M12.782 30.123c0.060 0 0.119 0 0.179 0 0.019 0.43-0.16 0.757-0.536 0.983-4.171 0.089-8.342 0.119-12.514 0.089 0-0.119 0-0.238 0-0.358 4.171 0 8.343 0 12.514 0-0.061-0.355 0.058-0.593 0.358-0.715z"></path>
<path fill="#bffe1b" style="fill: var(--color171, #bffe1b)" d="M19.039 30.838c4.946 0 9.892 0 14.838 0 0 0.119 0 0.238 0 0.358-5.009 0.118-9.955-0.001-14.838-0.358z"></path>
<path fill="#ddf70c" style="fill: var(--color172, #ddf70c)" d="M20.827 22.257c0.238 0 0.477 0 0.715 0-0.376 1.089-0.614 2.221-0.715 3.397-0.308 0.408-0.427 0.884-0.358 1.43-0.297 0.346-0.416 0.764-0.358 1.251-0.304-0.029-0.602 0.001-0.894 0.089 0.060 0.060 0.119 0.119 0.179 0.179-0.236 0.146-0.356 0.355-0.358 0.626-0.228 0.555-0.228 1.091 0 1.609 4.883 0.356 9.829 0.475 14.838 0.358 0 0.238 0 0.477 0 0.715-11.322 0-22.644 0-33.966 0 0-0.238 0-0.477 0-0.715 4.172 0.030 8.343 0 12.514-0.089 0.377-0.226 0.555-0.554 0.536-0.983 0.088-0.349 0.148-0.706 0.179-1.073-0.015-0.328-0.134-0.566-0.358-0.715 0-0.060 0-0.119 0-0.179-0.119-0.179-0.238-0.358-0.358-0.536 0.347 0.066 0.675 0.185 0.983 0.358 0.014 0.868 0.044 1.702 0.089 2.503 0 0.238 0 0.477 0 0.715 1.475-0.056 2.935 0.003 4.38 0.179 0.269-0.286 0.299-0.614 0.089-0.983 0.163-0.62 0.282-1.245 0.358-1.877 0.309-0.577 0.577-1.173 0.804-1.788 0.088-0.353 0.118-0.71 0.089-1.073 0.060 0 0.119 0 0.179 0 0.34-0.984 0.638-1.997 0.894-3.039 0.179-0.119 0.358-0.238 0.536-0.358z"></path>
<path fill="#d1fa1f" style="fill: var(--color173, #d1fa1f)" d="M14.57 28.514c-0.123 0.611-0.302 1.207-0.536 1.788 0.033 0.194 0.093 0.373 0.179 0.536 0.98 0.206 1.994 0.236 3.039 0.089 0.275-0.198 0.394-0.467 0.358-0.804 0.156-0.543 0.335-1.079 0.536-1.609 0.060 0 0.119 0 0.179 0-0.076 0.632-0.195 1.257-0.358 1.877 0.209 0.37 0.18 0.697-0.089 0.983-1.445-0.176-2.905-0.235-4.38-0.179 0-0.238 0-0.477 0-0.715 0.405-0.632 0.763-1.287 1.073-1.966z"></path>
<path fill="#aafa3a" style="fill: var(--color174, #aafa3a)" d="M17.609 30.123c0.036 0.338-0.083 0.606-0.358 0.804-1.046 0.146-2.059 0.117-3.039-0.089 0.988 0.057 1.941-0.002 2.86-0.179 0.22-0.144 0.398-0.323 0.536-0.536z"></path>
<path fill="#58c91e" style="fill: var(--color175, #58c91e)" d="M14.927 28.156c-0.206 0.764-0.385 1.539-0.536 2.324 0.859 0.176 1.753 0.236 2.682 0.179-0.919 0.177-1.872 0.236-2.86 0.179-0.086-0.164-0.146-0.343-0.179-0.536 0.235-0.581 0.413-1.177 0.536-1.788 0.119-0.119 0.238-0.238 0.358-0.358z"></path>

            <!-- <path d="M19.471 17.348h-13.192v12.649h-6.28v-29.997h21.368v5.24h-15.089v6.822h13.192v5.286z"></path>
            <path
                d="M32.201 25.66c3.569 0 5.376-2.259 5.376-6.776s-1.807-6.731-5.376-6.731c-3.569 0-5.376 2.214-5.376 6.731s1.807 6.776 5.376 6.776zM32.201 30.584c-7.183 0-11.43-4.789-11.43-11.701 0-7.048 4.382-11.701 11.43-11.701 6.957 0 11.294 4.608 11.294 11.701 0 7.048-4.382 11.701-11.294 11.701z">
            </path>
            <path
                d="M59.716 21.956h5.918c-0.632 5.15-4.834 8.629-10.21 8.629-6.054 0-10.21-4.021-10.21-11.972s4.156-11.43 10.391-11.43c5.783 0 9.713 3.298 10.074 8.538h-5.918c-0.316-2.304-1.988-3.659-4.201-3.659-2.485 0-4.518 1.581-4.518 6.415s2.033 7.183 4.337 7.183c2.304 0 4.111-1.31 4.337-3.704z">
            </path>
            <path
                d="M87.384 29.997h-5.557v-3.117c-1.536 2.53-3.84 3.704-6.912 3.704-4.427 0-7.545-3.298-7.545-8.177v-14.637h5.873v13.734c0 2.801 1.265 4.156 3.749 4.156 2.982 0 4.563-2.123 4.563-5.060v-12.83h5.828v22.227z">
            </path>
            <path
                d="M108.978 14.502h-5.647c-0.316-2.168-1.491-2.936-4.156-2.936-2.214 0-3.479 0.542-3.479 1.852s1.22 1.852 3.614 2.53c2.53 0.723 4.924 1.22 6.641 1.897 2.349 0.949 3.659 2.485 3.659 5.376 0 4.608-3.388 7.364-9.713 7.364-6.822 0-10.616-3.208-10.707-7.725h6.053c0 2.078 1.762 3.298 4.608 3.298 2.078 0 3.93-0.632 3.93-2.304 0-1.581-1.672-2.078-3.569-2.53-3.75-0.904-5.828-1.536-7.409-2.53-2.078-1.31-2.801-3.027-2.801-5.015 0-3.75 2.575-6.596 9.352-6.596 6.415 0 9.306 2.53 9.623 7.319z">
            </path>
            <path d="M117.412 29.997h-6.28v-6.099h6.28v6.099z"></path>
            <path d="M139.030 17.348h-13.192v12.649h-6.28v-29.997h21.368v5.24h-15.089v6.822h13.192v5.286z"></path>
            <path
                d="M147.494 29.997h-5.873v-22.227h5.512v2.665c1.943-2.982 4.201-3.253 6.596-3.253h0.768v6.008c-0.542-0.090-1.084-0.136-1.626-0.136-3.614 0-5.376 1.807-5.376 5.376v11.565z">
            </path>
            <path
                d="M168.495 21.549l0.045-2.44c-0.587 0.587-1.626 0.904-3.795 1.31-3.343 0.632-4.427 1.581-4.427 3.479 0 1.672 0.994 2.485 2.846 2.485 3.027 0 5.286-2.214 5.331-4.834zM174.413 29.997h-5.466c-0.181-0.542-0.316-1.31-0.361-1.988-1.4 1.536-3.75 2.575-6.731 2.575-5.060 0-7.409-2.485-7.409-6.099 0-6.415 4.292-7.138 10.21-7.951 2.936-0.407 3.75-0.994 3.75-2.53 0-1.446-1.446-2.304-3.75-2.304-2.665 0-3.75 1.31-4.021 3.298h-5.466c0.090-4.608 2.62-7.816 9.758-7.816 7.048 0 9.487 3.162 9.487 8.764v14.050z">
            </path>
            <path
                d="M208.808 29.997h-5.737v-13.463c0-2.665-1.4-4.563-3.479-4.563-2.168 0-3.75 2.033-3.75 4.744v13.282h-5.873v-13.372c0-3.569-0.949-4.472-3.524-4.472-2.349 0-3.569 1.446-3.569 4.337v13.508h-5.873v-22.227h5.512v3.253c1.491-2.936 3.569-3.84 6.506-3.84 3.027 0 4.472 0.949 6.189 3.524 1.22-2.44 3.208-3.524 6.008-3.524 4.472 0 7.59 3.253 7.59 7.409v15.405z">
            </path>
            <path
                d="M216.619 16.715h9.080c-0.090-3.298-2.259-4.879-4.563-4.879-2.349 0-4.292 1.807-4.518 4.879zM231.753 20.42h-15.315c0.181 3.343 2.078 5.512 4.969 5.512 1.897 0 3.569-0.949 3.976-2.485h6.054c-1.355 4.563-5.015 7.138-9.758 7.138-7.409 0-11.113-4.066-11.113-12.107 0-6.867 3.93-11.294 10.752-11.294s10.436 4.427 10.436 13.237z">
            </path> -->
        </symbol>
        <symbol id="icon-burger" viewBox="0 0 46 32">
            <path stroke-linejoin="miter" stroke-linecap="round" stroke-miterlimit="4" stroke-width="3.4286"
                d="M8.671 5.074h35.329"></path>
            <path stroke-linejoin="miter" stroke-linecap="round" stroke-miterlimit="4" stroke-width="3.4286"
                d="M8.671 24.468h35.329"></path>
            <path stroke-linejoin="miter" stroke-linecap="round" stroke-miterlimit="4" stroke-width="3.4286"
                d="M19.602 14.771h24.398"></path>
        </symbol>
        <symbol id="icon-star-unfilled" viewBox="0 0 34 32">
            <path stroke-linejoin="round" stroke-linecap="round" stroke-miterlimit="4" stroke-width="1.8824"
                d="M16.941 1.882l4.653 9.293 10.406 1.499-7.529 7.229 1.777 10.213-9.306-4.825-9.306 4.825 1.777-10.213-7.529-7.229 10.406-1.499 4.653-9.293z">
            </path>
        </symbol>
        <symbol id="icon-camera-header" viewBox="0 0 32 32">
            <path d="M21 17c0 1.326-0.527 2.598-1.464 3.536s-2.209 1.464-3.536 1.464-2.598-0.527-3.536-1.464c-0.938-0.938-1.464-2.21-1.464-3.536s0.527-2.598 1.464-3.536c0.938-0.938 2.209-1.464 3.536-1.464s2.598 0.527 3.536 1.464c0.938 0.938 1.464 2.209 1.464 3.536z"></path>
            <path d="M4 8c-1.061 0-2.078 0.421-2.828 1.172s-1.172 1.768-1.172 2.828v12c0 1.061 0.421 2.078 1.172 2.828s1.768 1.172 2.828 1.172h24c1.061 0 2.078-0.421 2.828-1.172s1.172-1.768 1.172-2.828v-12c0-1.061-0.421-2.078-1.172-2.828s-1.768-1.172-2.828-1.172h-2.344c-1.061-0-2.078-0.422-2.828-1.172l-1.656-1.656c-0.75-0.75-1.767-1.172-2.828-1.172h-4.688c-1.061 0-2.078 0.422-2.828 1.172l-1.656 1.656c-0.75 0.75-1.767 1.172-2.828 1.172h-2.344zM5 12c-0.265 0-0.52-0.105-0.707-0.293s-0.293-0.442-0.293-0.707c0-0.265 0.105-0.52 0.293-0.707s0.442-0.293 0.707-0.293c0.265 0 0.52 0.105 0.707 0.293s0.293 0.442 0.293 0.707c0 0.265-0.105 0.52-0.293 0.707s-0.442 0.293-0.707 0.293zM23 17c0 1.857-0.737 3.637-2.050 4.95s-3.093 2.050-4.95 2.050c-1.857 0-3.637-0.737-4.95-2.050s-2.050-3.093-2.050-4.95c0-1.857 0.738-3.637 2.050-4.95s3.093-2.050 4.95-2.050c1.857 0 3.637 0.738 4.95 2.050s2.050 3.093 2.050 4.95z"></path>
        </symbol>
        <symbol id="icon-camera" viewBox="0 0 43 32">
            <path
                d="M5.333 5.333c-1.414 0-2.771 0.562-3.771 1.562s-1.562 2.357-1.562 3.771v16c0 1.414 0.562 2.771 1.562 3.771s2.357 1.562 3.771 1.562h32c1.414 0 2.771-0.562 3.771-1.562s1.562-2.357 1.562-3.771v-16c0-1.414-0.562-2.771-1.562-3.771s-2.357-1.562-3.771-1.562h-3.125c-1.414-0-2.771-0.562-3.771-1.563l-2.208-2.208c-1-1-2.356-1.562-3.771-1.563h-6.251c-1.414 0-2.771 0.562-3.771 1.563l-2.208 2.208c-1 1-2.356 1.562-3.771 1.563h-3.125zM6.667 10.667c-0.354 0-0.693-0.14-0.943-0.391s-0.391-0.589-0.391-0.943c0-0.354 0.14-0.693 0.391-0.943s0.589-0.391 0.943-0.391c0.354 0 0.693 0.14 0.943 0.391s0.391 0.589 0.391 0.943c0 0.354-0.14 0.693-0.391 0.943s-0.589 0.391-0.943 0.391zM30.667 17.333c0 2.475-0.983 4.849-2.734 6.6s-4.124 2.734-6.6 2.734c-2.475 0-4.849-0.983-6.6-2.734s-2.734-4.124-2.734-6.6c0-2.475 0.983-4.849 2.734-6.6s4.124-2.734 6.6-2.734c2.475 0 4.849 0.983 6.6 2.734s2.734 4.124 2.734 6.6z">
            </path>
        </symbol>
        <symbol id="icon-star-filled" viewBox="0 0 34 32">
            <path stroke-linejoin="round" stroke-linecap="round" stroke-miterlimit="4" stroke-width="2.8235"
                d="M16.941 1.882l4.653 9.293 10.406 1.499-7.529 7.229 1.777 10.213-9.306-4.825-9.306 4.825 1.777-10.213-7.529-7.229 10.406-1.499 4.653-9.293z">
            </path>
        </symbol>
        <symbol id="icon-star-hero" viewBox="0 0 34 32">
            <path stroke-linejoin="round" stroke-linecap="round" stroke-miterlimit="4" stroke-width="2.5263"
                d="M16.842 2.807l4.337 8.786 9.698 1.418-7.018 6.835 1.656 9.656-8.674-4.562-8.674 4.562 1.656-9.656-7.018-6.835 9.698-1.418 4.337-8.786z">
            </path>
        </symbol>
        <symbol id="icon-close" viewBox="0 0 32 32">
            <path stroke-linejoin="round" stroke-linecap="round" stroke-miterlimit="4" stroke-width="2.4"
                d="M24 8l-16 16"></path>
            <path stroke-linejoin="round" stroke-linecap="round" stroke-miterlimit="4" stroke-width="2.4"
                d="M8 8l16 16"></path>
        </symbol>
        <symbol id="icon-scroll-up" viewBox="0 0 32 32">
            <path d="M15.053 14.133a1.334 1.334 0 0 1 1.894 0l6.107 6.12a1.334 1.334 0 1 0 1.894-1.88l-6.12-6.12a4.001 4.001 0 0 0-5.654 0l-6.12 6.12a1.337 1.337 0 0 0 .434 2.172 1.331 1.331 0 0 0 1.46-.292l6.107-6.12z"/>
        </symbol>
        <symbol id="icon-scroll-down" viewBox="0 0 32 32">
            <path d="M16.947 17.867a1.334 1.334 0 0 1-1.894 0l-6.107-6.12a1.334 1.334 0 1 0-1.894 1.88l6.12 6.12a4.001 4.001 0 0 0 5.654 0l6.12-6.12a1.337 1.337 0 0 0-.434-2.172 1.331 1.331 0 0 0-1.46.292l-6.107 6.12z"/>
        </symbol>
        <symbol id="icon-scroll-down-big" viewBox="0 0 56 32">
            <path d="M30.603 21.134A3.675 3.675 0 0 1 28 22.219a3.67 3.67 0 0 1-2.603-1.085L8.604 4.304a3.675 3.675 0 0 0-2.603-1.085 3.67 3.67 0 0 0-2.603 6.255l16.83 16.83a10.998 10.998 0 0 0 15.546 0l16.83-16.83a3.669 3.669 0 0 0 .791-3.975A3.659 3.659 0 0 0 51.41 3.5a3.655 3.655 0 0 0-2.82 0 3.659 3.659 0 0 0-1.193.803l-16.793 16.83z"/>
        </symbol>
        <symbol id="icon-scroll-up-big" viewBox="0 0 56 32">
            <path d="M26.066 11.43a3.673 3.673 0 0 1 4.024-.748c.444.192.846.471 1.182.819l16.561 17.058a3.668 3.668 0 1 0 5.277-5.098L36.512 6.402a11 11 0 0 0-15.546-.213L3.907 22.787a3.68 3.68 0 0 0-.07 5.169 3.668 3.668 0 0 0 5.206.071l17.022-16.598z"/>
        </symbol>
    </defs>
</svg>